<?xml version="1.0" encoding="utf-8"?>
<!-- Generator: Adobe Illustrator 19.0.0, SVG Export Plug-In . SVG Version: 6.00 Build 0)  -->
<svg version="1.1" id="Layer_1" xmlns="http://www.w3.org/2000/svg" xmlns:xlink="http://www.w3.org/1999/xlink" x="0px" y="0px"
	 viewBox="0 0 579 291" style="enable-background:new 0 0 579 291;" xml:space="preserve">
<style type="text/css">
	.st0{fill:#FFFFFF;}
	.st1{fill:#991D50;}
	.st2{fill:#231F20;}
	.st3{fill:#F27523;}
	.st4{fill:#232020;}
	.st5{fill:#242021;}
	.st6{fill:#242020;}
	.st7{fill:#252121;}
	.st8{fill:#252122;}
	.st9{fill:#272324;}
	.st10{fill:#252222;}
	.st11{fill:#282324;}
	.st12{fill:#F8F0E2;}
	.st13{fill:#FFFEFE;}
	.st14{fill:#FEFEFE;}
	.st15{fill:#991F51;}
</style>
<g id="XMLID_8_">
	<g id="XMLID_99_">
		<path id="XMLID_180_" class="st0" d="M289.7,229.4c-72.3,0-144.5,0-216.8,0c-0.6,0-0.8-0.1-0.8-0.8c0-54.3,0-108.6,0-162.9
			c0-0.6,0.1-0.8,0.8-0.8c144.5,0,289,0,433.5,0c0.6,0,0.8,0.1,0.8,0.8c0,54.3,0,108.6,0,162.9c0,0.6-0.1,0.8-0.8,0.8
			C434.2,229.4,361.9,229.4,289.7,229.4z"/>
		<path id="XMLID_179_" class="st1" d="M152.6,123.2c-19.1,0-38.1,0-57.2,0c-0.9,0-1-0.2-1-1c0-10.9,0-21.8,0-32.7c0-0.7,0.1-1,1-1
			c38.2,0,76.3,0,114.5,0c0.7,0,1,0.1,1,0.9c0,11,0,22,0,33c0,0.7-0.2,0.9-0.9,0.9C190.8,123.2,171.7,123.2,152.6,123.2z"/>
		<path id="XMLID_178_" class="st2" d="M101.8,141.2c0,3.4,0,6.8,0,10.2c0,7.7,0,15.3,0,23c0,0.8-0.2,0.9-0.9,0.9
			c-1.9,0-3.7,0-5.6,0c-0.5,0-0.7-0.1-0.7-0.6c0-11.8,0-23.5,0-35.3c0-6.1,6.2-8.1,9.7-6.3c1.5,0.7,2.5,1.9,3.3,3.3
			c5.2,9.8,10.4,19.7,15.6,29.5c0.1,0.2,0.3,0.5,0.4,0.8c1.3-2.5,2.6-4.9,3.9-7.4c4.1-7.7,8.2-15.4,12.3-23.1
			c1.1-2.1,2.8-3.5,5.2-3.7c4.5-0.4,7.6,2.9,7.6,6.3c0.1,8.8,0,17.7,0.1,26.5c0,3.1,0,6.1,0,9.2c0,0.6-0.2,0.7-0.7,0.7
			c-1.9,0-3.7,0-5.6,0c-0.7,0-1-0.1-1-0.9c0-8.6,0-17.3,0-25.9c0-2.1,0-4.3,0-6.4c0-0.3,0.1-0.5-0.1-0.9c-1,1.9-2,3.8-3,5.7
			c-4.3,8.1-8.5,16.2-12.8,24.2c-0.3,0.6-0.8,1.3-1.2,1.9c-2.2,3.2-7.6,3.3-9.7-0.3c-1.8-3-3.3-6.1-5-9.2
			c-3.9-7.3-7.7-14.6-11.6-21.9C102.1,141.4,102.1,141.2,101.8,141.2z"/>
		<path id="XMLID_177_" class="st2" d="M162.2,132.5c2.5-0.2,5.4,0.2,8.1,1.7c1.6,0.9,3,2.1,4.3,3.5c3.1,3.4,6.2,6.9,9.3,10.3
			c0.4,0.4,0.5,0.4,0.9,0c3-3.5,6.1-6.9,9.2-10.3c3.1-3.4,6.9-5.4,11.6-5.2c1.6,0,3.1,0,4.7,0c0.4,0,0.6,0.1,0.6,0.5
			c0,2,0,4.1,0,6.1c0,0.4-0.1,0.6-0.6,0.6c-1.5,0-3,0-4.4,0c-2.6-0.1-4.7,0.9-6.4,2.8c-2.8,3.1-5.5,6.1-8.3,9.2
			c-0.6,0.6-1.1,1.3-1.7,1.9c-0.3,0.3-0.2,0.4,0,0.7c3.5,3.9,7,7.8,10.5,11.6c1.4,1.5,3.3,2.3,5.4,2.3c1.6,0,3.1,0,4.7,0
			c0.5,0,0.7,0.1,0.7,0.7c0,2,0,3.9,0,5.9c0,0.3,0.1,0.6-0.4,0.6c-2.3-0.1-4.7,0.1-7-0.1c-3.9-0.4-7-2.3-9.5-5.1
			c-3-3.4-6-6.7-9-10.1c-0.5-0.5-0.7-0.6-1.2,0c-3.4,3.8-6.7,7.6-10.2,11.3c-2.6,2.8-6,4.1-9.9,4.1c-1.7,0-3.4,0-5.1,0
			c-0.5,0-0.8-0.1-0.7-0.7c0-1.9,0-3.9,0-5.8c0-0.5,0.1-0.7,0.7-0.7c1.5,0,2.9,0,4.4,0c2.5,0.1,4.6-0.9,6.2-2.7
			c3.3-3.7,6.6-7.4,10-11c0.4-0.4,0.3-0.6,0-1c-3.3-3.7-6.7-7.3-10-11c-1.7-1.8-3.7-2.8-6.2-2.7c-1.5,0-3,0-4.5,0
			c-0.4,0-0.6-0.1-0.6-0.5c0-2,0-4.1,0-6.1c0-0.4,0.1-0.6,0.5-0.5C159.5,132.5,160.6,132.5,162.2,132.5z"/>
		<path id="XMLID_176_" class="st1" d="M432,153.9c0-6.8,0-13.7,0-20.5c0-0.7,0.2-0.9,0.9-0.8c1.8,0.1,3.6,0.1,5.4,0
			c0.8,0,0.9,0.3,0.9,1c0,5.3,0,10.6,0,15.9c0,0.7,0.1,0.9,0.9,0.9c10.6,0,21.3,0,31.9,0c0.7,0,0.8-0.2,0.8-0.9c0-5.4,0-10.7,0-16.1
			c0-0.7,0.2-0.9,0.9-0.8c1.9,0,3.8,0,5.7,0c0.5,0,0.7,0.2,0.7,0.7c0,13.8,0,27.6,0,41.4c0,0.5-0.1,0.7-0.7,0.7c-1.9,0-3.9,0-5.8,0
			c-0.6,0-0.7-0.2-0.7-0.7c0-5.4,0-10.8,0-16.2c0-0.7-0.2-0.9-0.9-0.9c-10.6,0-21.2,0-31.8,0c-0.7,0-0.9,0.2-0.9,0.9
			c0,5.3,0,10.7,0,16c0,0.8-0.2,0.9-1,0.9c-1.8-0.1-3.5-0.1-5.3,0c-0.8,0-1-0.1-1-1C432.1,167.5,432,160.7,432,153.9z"/>
		<path id="XMLID_175_" class="st1" d="M406.6,132.5c6.5,0,13,0,19.6,0c0.7,0,0.9,0.2,0.9,0.9c-0.1,1.8,0,3.7,0,5.5
			c0,0.7-0.2,0.8-0.8,0.8c-12.5,0-25.1,0-37.6,0c-0.2,0-0.4,0-0.6,0c-1.2,0-1.7,0.6-1.7,1.7c0,6.9,0,13.8,0,20.7c0,1.5,0,2.9,0,4.4
			c0,1.2,0.4,1.7,1.6,1.7c1.7,0,3.4,0,5.1,0c11,0,22,0,33,0c1.2,0,1-0.1,1,1.1c0,1.8,0,3.5,0,5.3c0,0.7-0.1,0.9-0.8,0.9
			c-6.1,0-12.2,0-18.3,0c-6.7,0-13.4,0-20.1,0c-5,0-8.7-3.7-8.7-8.7c0-8.4,0.1-16.9,0-25.3c-0.1-4.6,4-8.9,8.8-8.8
			C394.1,132.6,400.3,132.5,406.6,132.5z"/>
		<path id="XMLID_174_" class="st1" d="M288.5,175.3c-2.3-0.1-4.6,0.2-6.9-0.3c-5-1.2-8.5-5.6-8.5-10.8c0-6.8,0-13.7,0-20.5
			c0-6.2,4.9-11.1,11.1-11.1c8.6,0,17.1,0,25.7,0c6.1,0,11.1,5,11.1,11.1c0,6.7-0.2,13.3,0.1,20c0.2,6.8-5.7,12.2-11.8,11.7
			c-0.1,0-0.2,0-0.3,0c-0.2-0.1-0.2-0.3-0.2-0.5c0.2-2.2,0.4-4.3,0.8-6.5c0-0.1,0.1-0.2,0.1-0.3c0.2-0.2,0.5-0.2,0.8-0.2
			c1.9-0.4,3.1-1.8,3.1-3.7c0-6.8,0-13.5,0-20.3c0-2-1.4-3.6-3.4-3.9c-0.4-0.1-0.7-0.1-1.1-0.1c-8,0-15.9,0-23.9,0
			c-0.5,0-0.9,0-1.4,0.1c-1.9,0.3-3.1,1.7-3.2,3.6c0,0.8,0,1.6,0,2.4c0,5.9,0,11.7,0,17.6c0,2.4,0.9,3.6,3.1,4.3
			c0.4,0.1,0.6,0.4,0.8,0.7c1.3,2,2.6,4,3.8,6C288.4,174.7,288.6,175,288.5,175.3z"/>
		<path id="XMLID_173_" class="st1" d="M374,150.3c0,5.4,0,10.8,0,16.3c0,4.9-3.8,8.7-8.7,8.7c-10.1,0-20.1-0.1-30.2,0
			c-4.6,0.1-9.1-3.6-9-8.9c0-11.1,0-22.1,0-33.2c0-0.6,0.2-0.7,0.8-0.7c1.9,0,3.8,0,5.7,0c0.7,0,0.8,0.2,0.8,0.8
			c0,10.9,0,21.8,0,32.7c0,1.7,0.4,2.1,2.1,2.1c9.8,0,19.6,0,29.3,0c1.7,0,2.2-0.5,2.2-2.1c0-10.8,0-21.7,0-32.5
			c0-0.8,0.2-1,0.9-0.9c1.8,0.1,3.6,0.1,5.3,0c0.8,0,0.9,0.3,0.9,1C374,139.1,374,144.7,374,150.3z"/>
		<path id="XMLID_172_" class="st1" d="M244.1,132.5c7.7,0,15.4,0,23.1,0c0.7,0,0.9,0.1,0.9,0.9c-0.1,1.8,0,3.7,0,5.5
			c0,0.6-0.2,0.8-0.8,0.8c-6.2,0-12.5,0-18.7,0c-0.7,0-0.9,0.2-0.9,0.9c0,11.3,0,22.6,0,33.9c0,0.8-0.2,1-0.9,0.9
			c-1.8-0.1-3.6-0.1-5.4,0c-0.7,0-0.9-0.2-0.9-0.8c0-7.7,0-15.4,0-23.2c0-3.6,0-7.2,0-10.8c0-0.7-0.2-0.8-0.8-0.8
			c-6.2,0-12.5,0-18.7,0c-0.7,0-0.9-0.2-0.9-0.9c0.1-1.8,0-3.7,0-5.5c0-0.7,0.2-0.8,0.8-0.8C228.7,132.5,236.4,132.5,244.1,132.5z"
			/>
		<path id="XMLID_171_" class="st3" d="M288.5,175.3c-1.5-2.5-3-4.9-4.6-7.2c-0.9-0.8-1-2.5-0.1-3.6c1.4-1.7,3.7-1.6,5,0.2
			c0.5,0.8,1,1.5,1.5,2.4c0.1-0.3,0.1-0.5,0.1-0.7c0-5.2,0-10.4,0-15.6c0-0.6,0-1.1,0.2-1.7c0.4-1.4,1.6-2.3,3-2.3
			c1.4,0,2.5,1,2.9,2.3c0.1,0.5,0.2,1,0.2,1.5c0,2.3,0,4.6,0,6.9c0,1,0,1,1,1c0.4,0,0.8,0,1.2,0.1c1,0.2,1.1,0.3,1.6,1.2
			c0.5-1,1.3-1.1,2.2-1c0.2,0,0.5,0.1,0.7,0.1c1,0,1.7,0.3,2.1,1.3c0.9-1.1,1.7-1.3,3-0.9c1.2,0.4,2,1.3,2,2.5
			c0.1,1.5-0.2,3.1-0.4,4.6c-0.1,0.5,0,1.1-0.4,1.5c-0.3,2.4-0.5,4.8-0.8,7.2c-0.1,0.9-0.2,1.8-0.3,2.8c-0.2,1.5-1.2,2.5-2.7,2.5
			c-4.2,0-8.4,0-12.6,0c-0.9,0-1.6-0.5-2.1-1.2C290.3,178,289.4,176.6,288.5,175.3z"/>
		<path id="XMLID_170_" class="st2" d="M362.5,199.1c-1.7-1.1-1.5-2,0.7-3.5c-1.1-0.6-1.8-1.4-2-2.6c-0.2-1.6,0.6-2.7,1.9-3.4
			c1.4-0.8,3-0.9,4.4-0.3c1.1,0.4,2.1,0.4,3.2,0.5c0.3,0,0.7-0.2,0.7,0.4c0,0.6-0.5,0.4-0.8,0.4c-0.3,0-0.7,0-1.1,0
			c1.2,3-0.2,5.1-3.4,5.5c-0.6,0.1-1.2,0-1.8,0c-0.6-0.1-1.2,0.3-1.2,0.9c0,0.6,0.5,0.7,1,0.8c1.3,0.1,2.7,0.1,4,0.2
			c0.4,0,0.7,0.1,1.1,0.1c2.3,0.3,2.4,2.3,1.8,3.7c-0.7,1.4-2,1.9-3.4,2.2c-1.8,0.4-3.6,0.3-5.4-0.1c-0.2-0.1-0.5-0.1-0.7-0.2
			c-1.5-0.6-1.7-1.8-0.7-3C361.4,200,361.9,199.6,362.5,199.1z"/>
		<path id="XMLID_169_" class="st2" d="M236.1,190.8c4.1-2.5,5-2.5,6.8,0.1c0.8-1,1.9-1.6,3.1-1.9c1.7-0.4,3.4,0.7,3.5,2.4
			c0.2,2.5,0.1,5,0.1,7.6c0,0.3-0.1,0.4-0.4,0.4c-0.1,0-0.1,0-0.2,0c-1.6,0.1-1.6,0.1-1.6-1.5c0-1.8,0-3.6,0-5.3
			c0-1.7-1.1-2.5-2.7-2c-1.5,0.4-1.9,1-1.9,2.5c0,1.9,0,3.7,0,5.6c0,0.5-0.1,0.8-0.7,0.8c-1.4,0-1.4,0-1.4-1.4c0-1.7,0-3.5,0-5.2
			c0-1.3-0.5-2.2-1.4-2.4c-0.8-0.2-2.7,0.6-3.1,1.3c-0.2,0.3-0.1,0.5-0.1,0.8c0,2,0,4.1,0,6.1c0,0.6-0.1,0.8-0.8,0.8
			c-1.3,0-1.3,0-1.3-1.3c0-2.7,0-5.5,0-8.2c0-0.6,0.1-0.8,0.8-0.8c1.3,0,1.3,0,1.3,1.3C236.1,190.5,236.1,190.6,236.1,190.8z"/>
		<path id="XMLID_168_" class="st2" d="M401.6,191.1c0.5-0.6,1-1.1,1.5-1.4c1.9-1.3,4.3-0.8,5.4,1.2c1.2,2.1,0.8,5.5-0.8,7.3
			c-1.3,1.4-3.7,1.8-5.5,1c-0.2-0.1-0.3-0.3-0.6-0.2c0,1.3,0,2.6,0,3.9c0,0.5-0.1,0.8-0.7,0.8c-1.4,0-1.4,0-1.4-1.4
			c0-4.1,0-8.2,0-12.2c0-0.7,0.2-1,0.9-0.9c0.2,0,0.4,0,0.6,0c0.6-0.1,0.7,0.2,0.7,0.7C401.6,190.2,401.6,190.6,401.6,191.1z"/>
		<path id="XMLID_167_" class="st2" d="M266.1,190.9c0.3-0.4,0.5-0.6,0.6-0.7c1.1-1,2.4-1.6,3.9-1.1c1.6,0.5,2.5,1.6,2.8,3.1
			c0.5,2.5-0.2,4.6-2.2,6.2c-2,1.6-4.3,1.5-6.6,0.4c-0.6-0.3-0.8-0.6-0.8-1.3c0-4.1,0-8.2,0-12.3c0-0.7,1.3-1.5,1.9-1.3
			c0.3,0.1,0.2,0.4,0.2,0.6C266.1,186.6,266.1,188.6,266.1,190.9z"/>
		<path id="XMLID_166_" class="st2" d="M224,189.8c0-1.6,0-3.1,0-4.6c0-0.6,1.3-1.5,1.9-1.3c0.3,0.1,0.2,0.3,0.2,0.5
			c0,4.9,0,9.7,0,14.6c0,0.5-0.2,0.6-0.6,0.5c-0.2,0-0.3,0-0.5,0c-0.8,0.1-1.2-0.1-1-1c-0.5,0-0.7,0.3-1.1,0.5
			c-2.5,1.2-4.8,0.4-6-2.1c-1.8-3.6,0.9-8,4.8-8C222.6,188.9,223.2,189.3,224,189.8z"/>
		<path id="XMLID_165_" class="st2" d="M116.6,191.1c0.4-0.4,0.7-0.7,1-1c2.1-1.9,5.1-1.2,6.2,1.4c0.8,1.9,0.6,3.8-0.3,5.5
			c-1.2,2.3-3.9,3.2-6.2,2.2c-0.2-0.1-0.4-0.2-0.7-0.3c0,1.4,0,2.7,0,4c0,0.6-0.1,0.8-0.8,0.8c-1.3,0-1.3,0-1.3-1.3
			c0-4.2,0-8.3,0-12.5c0-0.7,0.2-0.8,0.8-0.8c1.3,0,1.3,0,1.3,1.3C116.6,190.5,116.6,190.7,116.6,191.1z"/>
		<path id="XMLID_164_" class="st4" d="M107.7,199.4c-2.2,0.1-2.2,0.1-3.1-1.8c-0.4-0.8-0.6-2-1.3-2.4c-0.7-0.4-1.8-0.1-2.7-0.1
			c-0.8,0-1.5,0-2.3,0c-0.4,0-0.6,0.1-0.7,0.5c-0.5,1-1,2.1-1.4,3.1c-0.3,0.8-0.7,1-1.6,0.7c0.8-1.8,1.6-3.5,2.5-5.2
			c1.2-2.6,2.4-5.2,3.7-7.8c0.1-0.2,0.2-0.5,0.6-0.5c0.3,0,0.4,0.3,0.5,0.5c2,4.2,3.9,8.5,5.8,12.7
			C107.6,199.1,107.6,199.2,107.7,199.4z"/>
		<path id="XMLID_163_" class="st5" d="M352.8,190.7c0.8-0.7,1.7-1.4,2.8-1.7c1.8-0.4,3.4,0.6,3.5,2.4c0.1,2.5,0.1,5,0.1,7.5
			c0,0.3-0.1,0.4-0.4,0.4c-1.7,0.2-1.7,0.2-1.7-1.5c0-1.9,0-3.7,0-5.6c0-1.7-1.1-2.4-2.6-1.7c-0.2,0.1-0.3,0.1-0.4,0.2
			c-0.9,0.4-1.4,1-1.3,2.2c0.1,1.9,0,3.8,0,5.7c0,0.6-0.2,0.7-0.7,0.7c-1.4,0-1.4,0-1.4-1.4c0-2.7,0-5.4,0-8.1
			c0-0.7,0.2-0.8,0.8-0.8c1.3,0,1.3,0,1.3,1.3C352.6,190.5,352.6,190.7,352.8,190.7z"/>
		<path id="XMLID_162_" class="st5" d="M168.5,190.9c0.9-0.9,1.8-1.5,2.9-1.8c1.8-0.4,3.2,0.4,3.5,2.3c0.3,1.5,0.1,3.1,0.1,4.6
			c0,0.9,0,1.9,0,2.8c0,0.5-0.1,0.7-0.6,0.7c-1.5,0-1.5,0-1.5-1.5c0-1.8,0-3.6,0-5.4c0-1.9-1.2-2.6-2.9-1.8c-1,0.5-1.7,1.1-1.5,2.4
			c0.2,1.8,0,3.7,0.1,5.5c0,0.6-0.2,0.7-0.7,0.7c-1.4,0-1.4,0-1.4-1.4c0-2.6,0-5.3,0-7.9c0-0.9,0.3-1.1,1.1-1c1.1,0.1,1.1,0,1.1,1.1
			C168.5,190.4,168.5,190.6,168.5,190.9z"/>
		<path id="XMLID_161_" class="st4" d="M182.6,198.1c-0.8,0.6-1.6,1.2-2.6,1.4c-1.4,0.2-2.6-0.2-3.1-1.2c-0.6-1.2-0.3-2.5,0.8-3.5
			c1.1-1,2.5-1.4,3.9-1.8c1.1-0.3,1.1-0.3,1-1.5c-0.1-1.3-0.8-1.9-2.1-1.8c-0.9,0.1-1.3,0.4-1.4,1.4c-0.1,0.6,0,1.3-0.8,1.4
			c-0.4,0.1-0.8,0-1.1-0.4c-0.3-0.5-0.3-1-0.1-1.5c0.3-0.6,0.8-1,1.5-1.3c1.4-0.6,2.8-0.7,4.2-0.3c1.3,0.3,2,1.2,2,2.5
			c0,2.4,0,4.8,0,7.1c0,0.6-0.2,0.7-0.7,0.7C182.7,199.4,182.7,199.4,182.6,198.1z"/>
		<path id="XMLID_160_" class="st2" d="M256.8,188.9c3.1,0,5.4,2.2,5.4,5.1c0,3.1-2.4,5.5-5.4,5.6c-3,0-5.4-2.3-5.4-5.2
			C251.4,191.3,253.8,188.9,256.8,188.9z"/>
		<path id="XMLID_159_" class="st2" d="M164.5,194.1c0,3.1-2.4,5.5-5.4,5.5c-3,0-5.4-2.3-5.4-5.2c0-3.1,2.4-5.5,5.4-5.5
			C162.3,189,164.5,191.1,164.5,194.1z"/>
		<path id="XMLID_158_" class="st2" d="M337.2,190.9c0.8-0.8,1.5-1.3,2.4-1.7c2.2-0.8,4,0.4,4.1,2.7c0.1,2.3,0,4.7,0,7
			c0,0.4-0.2,0.5-0.6,0.6c-1.5,0-1.5,0.1-1.5-1.5c0-1.8,0-3.7,0-5.5c0-1.8-1.1-2.5-2.8-1.7c-1.1,0.5-1.8,1.1-1.7,2.5
			c0.2,1.8,0,3.6,0,5.4c0,0.5-0.1,0.8-0.7,0.8c-1.4,0-1.4,0-1.4-1.3c0-2.7,0-5.4,0-8.1c0-0.7,0.2-0.9,0.9-0.8c0.1,0,0.2,0,0.3,0
			c0.7-0.1,1,0.2,0.9,0.9C337.2,190.3,337.2,190.5,337.2,190.9z"/>
		<path id="XMLID_157_" class="st2" d="M447.9,190.9c0.8-0.8,1.5-1.4,2.4-1.7c2.2-0.8,4,0.3,4.1,2.6c0.1,2.4,0,4.7,0,7.1
			c0,0.3-0.1,0.5-0.5,0.5c-1.7,0.1-1.7,0.2-1.7-1.5c0-1.8,0-3.7,0-5.5c0-1.8-1.1-2.5-2.7-1.7c-1.1,0.5-1.8,1.1-1.7,2.5
			c0.1,1.8,0,3.7,0,5.5c0,0.5-0.1,0.7-0.7,0.7c-1.4,0-1.4,0-1.4-1.4c0-2.6,0-5.3,0-7.9c0-0.8,0.1-1.1,1-1c1.3,0.1,1.1-0.1,1.1,1.1
			C447.9,190.4,447.9,190.6,447.9,190.9z"/>
		<path id="XMLID_156_" class="st2" d="M322.6,198.1c-0.9,0.7-1.6,1.3-2.6,1.4c-1.4,0.3-2.7-0.2-3.1-1.3c-0.6-1.2-0.2-2.6,0.9-3.5
			c1.2-1,2.7-1.4,4.2-1.8c0.6-0.1,0.7-0.4,0.7-0.9c-0.1-1.6-0.7-2.3-2-2.3c-1,0-1.5,0.5-1.5,1.5c0,0.5-0.1,1.1-0.7,1.3
			c-0.4,0.1-0.9,0.1-1.2-0.3c-0.4-0.5-0.4-1.1,0-1.6c0.7-1.1,1.8-1.4,2.9-1.6c1.1-0.2,2.2-0.1,3.3,0.4c0.8,0.4,1.3,1,1.3,1.9
			c0,2.5,0,5,0,7.6c0,0.4-0.1,0.6-0.5,0.5c-0.1,0-0.2,0-0.3,0C322.7,199.4,322.7,199.4,322.6,198.1z"/>
		<path id="XMLID_155_" class="st5" d="M131.4,193.3c-1.1,0-2.1,0-3.2,0c-0.2,0-0.5-0.1-0.6,0.3c-0.2,1.5,1.2,3.8,2.7,4.2
			c1.5,0.5,3.4-0.3,4.3-1.9c0.1-0.2,0.1-0.5,0.6-0.3c0.4,0.2,0.2,0.5,0.1,0.7c-0.9,2.3-3.6,3.7-6,3.1c-2.4-0.6-4-3.1-3.6-5.7
			c0.5-3.1,2.4-4.9,5.2-4.8c2,0.1,3.7,1.4,4.2,3.3c0.2,1,0.2,1-0.8,1C133.3,193.3,132.4,193.3,131.4,193.3z"/>
		<path id="XMLID_154_" class="st5" d="M211,193.3c-0.9,0-1.9,0-2.8,0c-1,0-1.1,0-0.9,1.1c0.2,1.5,0.9,2.8,2.4,3.4
			c1.5,0.6,3.6-0.2,4.5-1.8c0.1-0.2,0.1-0.6,0.5-0.4c0.5,0.2,0.2,0.5,0.1,0.7c-0.9,2.4-3.7,3.8-6.1,3.1c-2.4-0.7-4-3.2-3.5-5.7
			c0.5-3.1,2.4-4.8,5.2-4.7c2.1,0.1,3.9,1.7,4.2,3.6c0.1,0.5,0.1,0.9-0.7,0.8C213,193.3,212,193.3,211,193.3z"/>
		<path id="XMLID_153_" class="st6" d="M289.9,193.3c-1,0-2.1,0-3.1,0c-0.6,0-0.7,0.2-0.6,0.7c0.1,0.8,0.3,1.6,0.7,2.2
			c1.4,2.4,4.7,2.2,6.2-0.2c0.1-0.2,0.1-0.7,0.6-0.4c0.4,0.2,0.2,0.5,0.1,0.7c-1,2.4-3.6,3.7-6,3c-2.4-0.7-3.9-3-3.5-5.6
			c0.4-3.1,2.4-4.9,5.3-4.8c2.2,0.1,4,1.8,4.2,3.9c0,0.4,0,0.5-0.4,0.5C292.1,193.3,291,193.3,289.9,193.3z"/>
		<path id="XMLID_152_" class="st5" d="M384.3,193.3c-1.1,0-2.1,0-3.2,0c-0.5,0-0.6,0.2-0.5,0.6c0.1,1.8,1.2,3.4,2.5,3.9
			c1.6,0.5,3.5-0.3,4.4-1.9c0.1-0.2,0.1-0.5,0.6-0.3c0.4,0.2,0.2,0.4,0.1,0.7c-0.8,2.3-3.4,3.7-5.8,3.2c-2.4-0.5-4-2.8-3.8-5.3
			c0.2-2.8,1.7-4.7,4.1-5.2c2.4-0.5,5,1.1,5.4,3.4c0.1,0.6,0,1-0.7,0.9C386.2,193.3,385.3,193.3,384.3,193.3z"/>
		<path id="XMLID_151_" class="st6" d="M311.3,193.3c-1.1,0-2.1,0-3.2,0c-0.2,0-0.5-0.1-0.5,0.3c-0.2,1.7,1.2,3.8,2.9,4.2
			c1.5,0.4,3.3-0.5,4.1-1.9c0.1-0.2,0.1-0.6,0.6-0.3c0.4,0.2,0.2,0.5,0.1,0.7c-0.8,2.1-3.3,3.6-5.4,3.2c-2.6-0.5-4.2-2.4-4.2-5
			c0-1.1,0.3-2.2,0.8-3.2c1-1.7,3-2.7,4.9-2.3c2,0.4,3.4,1.7,3.7,3.6c0.1,0.5,0,0.7-0.6,0.7C313.4,193.3,312.4,193.3,311.3,193.3z"
			/>
		<path id="XMLID_150_" class="st6" d="M439.9,193.3c-1.1,0-2.2,0-3.3,0c-0.2,0-0.5-0.1-0.5,0.3c-0.2,1.8,1.3,3.9,3,4.2
			c1.4,0.3,3.2-0.5,4-1.9c0.1-0.2,0.1-0.7,0.6-0.4c0.4,0.2,0.2,0.5,0.1,0.8c-0.9,2.1-3.3,3.5-5.5,3.1c-2.5-0.5-4.1-2.4-4.1-4.9
			c0-2.3,0.8-4.3,3-5.3c2.7-1.2,5.8,0.3,6.4,3.1c0.1,0.6,0.1,0.9-0.7,0.9C441.9,193.3,440.9,193.3,439.9,193.3z"/>
		<path id="XMLID_149_" class="st6" d="M416.4,193.3c-1.1,0-2.2,0-3.3,0c-0.2,0-0.5-0.1-0.5,0.3c-0.2,1.7,1.3,3.9,3,4.2
			c1.4,0.3,3.2-0.5,4-1.9c0.1-0.2,0.1-0.6,0.5-0.4c0.4,0.2,0.2,0.5,0.1,0.7c-0.9,2.2-3.4,3.6-5.8,3.1c-2.4-0.5-4-2.7-3.8-5.3
			c0.1-2.1,0.9-3.9,3-4.8c2.8-1.3,5.8,0.2,6.5,3.1c0.1,0.6,0.1,0.9-0.7,0.9C418.4,193.3,417.4,193.3,416.4,193.3z"/>
		<path id="XMLID_148_" class="st5" d="M472.8,193.3c-1.1,0-2.2,0-3.3,0c-0.3,0-0.4,0-0.5,0.4c-0.2,1.7,1.2,3.8,2.9,4.2
			c1.5,0.4,3.2-0.5,4.1-1.9c0.1-0.2,0.1-0.5,0.5-0.4c0.4,0.2,0.3,0.4,0.2,0.7c-0.7,2-3.3,3.6-5.3,3.3c-2.5-0.4-4.3-2.3-4.4-4.7
			c-0.1-2.4,0.7-4.4,3-5.5c2.8-1.3,6,0.4,6.5,3.4c0.1,0.5,0,0.6-0.5,0.6C474.9,193.3,473.8,193.3,472.8,193.3z"/>
		<path id="XMLID_147_" class="st4" d="M456.2,194.6c0-4,3.7-6.6,7.4-5.2c0.8,0.3,1.6,0.8,1.8,1.8c0.2,0.7-0.3,1.3-1.1,1.5
			c-0.7,0.1-1.4-0.3-1.5-1c-0.1-0.7-0.1-1.4-1-1.7c-0.9-0.3-1.7-0.1-2.4,0.5c-1.3,1.2-1.3,2.7-1,4.3c0.2,0.8,0.5,1.5,1,2.1
			c1.4,1.6,3.7,1.5,4.9-0.3c0.2-0.3,0.3-0.6,0.5-0.9c0.1-0.2,0.1-0.6,0.5-0.4c0.4,0.2,0.2,0.4,0.2,0.7c-0.7,2.4-2.8,3.9-5.1,3.6
			C457.9,199.2,456.2,197.2,456.2,194.6z"/>
		<path id="XMLID_146_" class="st5" d="M398.9,199.4c-0.7,0-1.3,0-2,0c-0.4,0-0.6-0.3-0.7-0.5c-0.9-1.3-1.9-2.6-2.9-3.9
			c-1.1,1.3-2.2,2.6-3.2,3.9c-0.4,0.6-0.9,0.7-1.6,0.5c1-1.2,1.9-2.4,2.9-3.5c0.4-0.6,1.2-1.1,1.2-1.7c0-0.5-0.7-1.1-1.1-1.7
			c-0.8-1.1-1.5-2.1-2.4-3.3c0.8,0,1.5,0,2.1,0c0.4,0,0.5,0.2,0.7,0.5c0.7,0.9,1.4,1.9,2.1,2.9c0.8-0.9,1.6-1.8,2.2-2.7
			c0.4-0.6,0.9-0.8,1.7-0.6c-1,1.2-1.8,2.3-2.8,3.4c-0.5,0.5-0.5,0.8-0.1,1.4c1.2,1.5,2.2,3,3.3,4.6
			C398.7,198.8,398.9,199,398.9,199.4z"/>
		<path id="XMLID_145_" class="st6" d="M148.3,188.9c1.4,0,2.4,0.6,3.3,1.6c0.4,0.5,0,0.6-0.2,0.8c-0.3,0.3-0.4,0-0.6-0.2
			c-0.7-0.9-1.6-1.6-2.9-1.4c-0.7,0.1-1.3,0.3-1.5,1c-0.2,0.7,0.3,1.2,0.8,1.5c0.9,0.6,2,0.9,2.9,1.4c1.2,0.6,2.2,1.3,2.1,2.8
			c0,1-0.5,1.8-1.3,2.4c-1.8,1.1-4.5,0.7-6-0.8c-0.5-0.5-0.2-0.7,0.1-1c0.4-0.4,0.5,0,0.7,0.2c0.6,0.8,1.3,1.4,2.4,1.4
			c0.9,0,1.7-0.4,1.9-1.1c0.2-0.7-0.1-1.4-0.9-1.9c-0.9-0.5-1.9-0.9-2.8-1.5c-1.6-0.9-2.1-2.6-1.2-4
			C145.9,189.3,147,189,148.3,188.9z"/>
		<path id="XMLID_144_" class="st4" d="M199.9,188.9c1.2-0.1,2.2,0.5,3.1,1.4c0.4,0.4,0.3,0.6-0.1,0.9c-0.4,0.4-0.5,0-0.7-0.2
			c-0.7-0.8-1.4-1.4-2.6-1.4c-0.8,0-1.5,0.2-1.8,1.1c-0.2,0.8,0.4,1.3,1,1.7c0.7,0.4,1.5,0.7,2.3,1.1c0.4,0.2,0.9,0.4,1.3,0.7
			c1,0.7,1.4,1.6,1.2,2.7c-0.2,1.1-0.8,1.8-1.8,2.2c-1.9,0.8-4.2,0.3-5.5-1.1c-0.4-0.4-0.3-0.6,0.1-1c0.4-0.4,0.6-0.1,0.8,0.2
			c0.6,0.8,1.4,1.4,2.4,1.4c0.9,0,1.6-0.4,1.9-1.1c0.3-0.9-0.2-1.4-0.9-1.8c-0.9-0.6-1.9-1-2.8-1.5c-0.9-0.5-1.6-1.2-1.6-2.3
			C196.1,190.2,197.5,188.9,199.9,188.9z"/>
		<path id="XMLID_143_" class="st5" d="M282.3,191.6c0,2.3,0,4.7,0,7c0,0.6-0.1,0.8-0.8,0.8c-1.4,0-1.4,0-1.4-1.4
			c0-4.2,0-8.5,0-12.7c0-0.3-0.2-0.6,0.2-0.8c0.5-0.2,1.1-0.6,1.7-0.5c0.4,0,0.2,0.4,0.2,0.6C282.3,186.9,282.3,189.3,282.3,191.6z"
			/>
		<path id="XMLID_142_" class="st7" d="M303.6,191.7c0,2.3,0,4.7,0,7c0,0.6-0.2,0.7-0.7,0.7c-1.4,0-1.4,0-1.4-1.4
			c0-4.2,0-8.5,0-12.7c0-0.7,1.2-1.6,1.9-1.3c0.3,0.1,0.2,0.4,0.2,0.6C303.6,187,303.6,189.4,303.6,191.7z"/>
		<path id="XMLID_141_" class="st7" d="M189.5,191.7c0,2.3,0,4.6,0,7c0,0.5-0.1,0.8-0.7,0.7c-1.4,0-1.4,0-1.4-1.4
			c0-4.2,0-8.5,0-12.7c0-0.7,1.2-1.6,1.9-1.4c0.4,0.1,0.2,0.4,0.2,0.6C189.6,186.9,189.5,189.3,189.5,191.7z"/>
		<path id="XMLID_140_" class="st7" d="M329.4,191c0.6-0.8,1.2-1.4,1.9-1.8c0.7-0.4,1.4-0.3,2.1,0.2c0.4,0.3,0.5,0.8,0.4,1.2
			c-0.1,0.4-0.5,0.6-0.9,0.7c-0.3,0-0.6,0-1-0.1c-1.2-0.5-2.5,0.4-2.5,1.7c0,1.9,0,3.8,0,5.7c0,0.7-0.1,0.9-0.8,0.9
			c-1.3-0.1-1.3,0-1.3-1.3c0-2.7,0-5.5,0-8.2c0-0.6,0.2-0.9,0.8-0.8c0,0,0.1,0,0.1,0c1.2,0,1.2,0,1.2,1.2
			C329.5,190.5,329.4,190.7,329.4,191z"/>
		<path id="XMLID_139_" class="st5" d="M139.4,190.8c0.7-0.7,1.2-1.4,2-1.7c0.7-0.3,1.4-0.2,2,0.2c0.4,0.3,0.5,0.7,0.4,1.2
			c-0.2,0.5-0.5,0.7-1,0.7c-0.3,0-0.6,0-0.9-0.1c-1.3-0.5-2.5,0.3-2.5,1.8c0,1.8,0,3.6,0,5.4c0,1.3,0.2,1.1-1.2,1.1
			c-0.1,0-0.3,0-0.4,0c-0.4,0-0.5-0.1-0.5-0.5c0-3.1,0-6.2,0-9.3c0-0.3,0.1-0.5,0.5-0.5C139.3,189,139.3,189,139.4,190.8z"/>
		<path id="XMLID_138_" class="st2" d="M424.4,190.9c0.6-0.7,1.1-1.3,1.8-1.7c0.7-0.3,1.4-0.3,2,0.1c0.5,0.3,0.6,0.7,0.5,1.3
			c-0.1,0.5-0.5,0.7-1,0.7c-0.3,0-0.6,0-0.9-0.1c-1.3-0.5-2.5,0.4-2.5,1.8c0,1.9,0,3.8,0,5.7c0,0.7-0.2,1-0.9,0.8
			c-0.2,0-0.5,0-0.7,0c-0.3,0-0.5-0.1-0.5-0.5c0-3.1,0-6.2,0-9.4c0-0.3,0.1-0.5,0.4-0.4c0,0,0.1,0,0.1,0
			C424.2,189,424.2,189,424.4,190.9z"/>
		<path id="XMLID_137_" class="st7" d="M194.1,194.2c0,1.5,0,3,0,4.5c0,0.5-0.1,0.7-0.7,0.7c-1.5,0-1.5,0-1.5-1.5c0-2.6,0-5.1,0-7.7
			c0-0.7,1.3-1.5,1.9-1.3c0.3,0.1,0.2,0.4,0.2,0.6C194.1,191.1,194.1,192.6,194.1,194.2z"/>
		<path id="XMLID_136_" class="st8" d="M348.1,194.2c0,1.5,0,3,0,4.4c0,0.6-0.1,0.8-0.7,0.8c-1.4,0-1.4,0-1.4-1.4c0-2.7,0-5.3,0-8
			c0-0.5,1.4-1.4,1.9-1.1c0.3,0.1,0.2,0.4,0.2,0.6C348.1,191.1,348.1,192.7,348.1,194.2z"/>
		<path id="XMLID_135_" class="st8" d="M277.7,194.2c0,1.5,0,3,0,4.5c0,0.6-0.1,0.7-0.7,0.7c-1.4,0-1.4,0-1.4-1.4c0-2.6,0-5.2,0-7.9
			c0-0.6,1.4-1.5,1.9-1.2c0.3,0.1,0.2,0.4,0.2,0.6C277.7,191.1,277.7,192.6,277.7,194.2z"/>
		<path id="XMLID_134_" class="st8" d="M432.2,194.2c0,1.5,0,3,0,4.5c0,0.6-0.2,0.7-0.7,0.7c-1.4,0-1.4,0-1.4-1.4c0-2.6,0-5.1,0-7.7
			c0-0.7,1.3-1.6,1.9-1.3c0.3,0.1,0.2,0.4,0.2,0.5C432.2,191.1,432.2,192.7,432.2,194.2z"/>
		<path id="XMLID_133_" class="st9" d="M193.3,184c0.5,0,0.9,0.3,1,1c0.1,0.6-0.5,1-1.2,1c-0.7,0-1.2-0.4-1.2-1
			C191.9,184.4,192.4,184,193.3,184z"/>
		<path id="XMLID_132_" class="st9" d="M276.9,186c-1,0-1.5-0.4-1.5-1c0-0.5,0.5-1,1.2-1c0.7,0,1.3,0.5,1.2,1
			C277.7,185.7,277.3,186,276.9,186z"/>
		<path id="XMLID_131_" class="st9" d="M431.1,184c0.7,0,1.2,0.4,1.2,1c0,0.6-0.5,1-1.1,1c-0.7,0-1.3-0.4-1.3-1
			C429.9,184.5,430.5,184,431.1,184z"/>
		<path id="XMLID_130_" class="st10" d="M347.1,186c-0.7,0-1.2-0.4-1.2-1c0-0.6,0.5-1,1.2-1c0.7,0,1.1,0.3,1.2,1
			C348.3,185.6,347.8,186,347.1,186z"/>
		<path id="XMLID_129_" class="st11" d="M480.4,198.6c0,0.6-0.4,1.1-1.1,1.1c-0.6,0-1.1-0.4-1.2-1c0-0.6,0.5-1.1,1.2-1.1
			C479.9,197.5,480.4,198,480.4,198.6z"/>
		<path id="XMLID_128_" class="st12" d="M194.8,108.1c0-2.4,0-4.8,0-7.2c0-0.6-0.3-1.3,0-1.8c0.3-0.4,1.1,0.1,1.6-0.1
			c0.4-0.1,0.6,0,0.5,0.5c-0.2,3-0.3,6-0.3,9c0,1.2,0,2.5,0.2,3.7c0,0.3,0,0.5-0.3,0.4c-0.5,0-0.9,0-1.4,0c-0.4,0-0.5-0.3-0.7-0.5
			c-2-2.8-4.1-5.6-6.1-8.3c-0.1-0.2-0.3-0.4-0.6-0.5c0,0.6,0,1.2,0,1.7c0,2.3-0.1,4.5,0.1,6.8c0.1,0.7-0.1,0.9-0.8,0.9
			c-1.4-0.1-1.4,0-1.3-1.3c0.2-3.8,0.2-7.7,0-11.5c0-0.7,0.1-0.9,0.8-0.9c0.9,0,1.5,0.3,2,1c2,2.7,4,5.4,6,8.1
			C194.7,108.1,194.7,108.1,194.8,108.1z"/>
		<path id="XMLID_127_" class="st12" d="M169.3,105.7c0-3.8,3-6.9,6.7-6.9c3.7,0,6.7,3,6.7,6.7c0,4.1-2.9,7.3-6.6,7.3
			C172.1,112.9,169.3,109.9,169.3,105.7z"/>
		<path id="XMLID_126_" class="st12" d="M156,112.6c-1,0-1.9,0-2.7,0c-0.3,0-0.5-0.2-0.6-0.4c-1.1-1.7-2.2-3.4-3.5-5
			c-0.4-0.5-0.3-1.1-0.2-1.7c0-0.3,0.4-0.2,0.6-0.2c1.6-0.3,2.5-1.6,2.1-3.1c-0.3-1-1-1.4-2-1.6c-0.3-0.1-0.6,0-0.9,0
			c-0.6-0.1-0.8,0.1-0.8,0.8c0,3.5,0,7,0.2,10.5c0,0.6-0.1,0.8-0.7,0.7c-0.3-0.1-0.5,0-0.8,0c-1.1,0-1.1,0-1-1c0.2-4,0.2-7.9,0-11.9
			c0-0.6,0.1-0.8,0.7-0.7c1.1,0.1,2.1,0,3.2,0c0.6,0,1.3,0.1,1.9,0.2c1.7,0.4,2.7,1.5,2.8,2.9c0.1,1.9-0.6,3.4-2.3,4
			c-0.6,0.2-0.5,0.4-0.2,0.8C153,108.8,154.4,110.6,156,112.6z"/>
		<path id="XMLID_125_" class="st12" d="M142.5,112.6c-0.4,0-0.7,0-1,0c-0.6-0.1-1.3,0.3-1.7-0.1c-0.4-0.4-0.4-1.1-0.6-1.7
			c-0.9-2.6-0.2-2-2.9-2.1c-0.5,0-1,0.1-1.5,0c-0.8-0.1-1.3,0.2-1.4,1c-0.1,0.4-0.2,0.8-0.4,1.3c-0.5,1.6-0.5,1.6-2.1,1.6
			c-0.6,0-0.7,0-0.5-0.6c1.2-2.8,2.2-5.7,3.2-8.6c0.4-1.3,0.9-2.6,1.3-3.9c0.1-0.4,0.3-0.6,0.7-0.6c1.8,0,1.8,0,2.4,1.7
			C139.4,104.7,141,108.6,142.5,112.6z"/>
		<path id="XMLID_124_" class="st12" d="M110.8,98.9c1.4-0.1,2.6-0.1,3.7,0.2c1.5,0.4,2.6,1.3,2.8,2.9c0.3,1.7-0.2,3.1-1.6,4.1
			c-1,0.8-2.2,1.2-3.5,1.3c-0.3,0-0.6,0.1-0.5-0.4c0.1-0.4-0.4-1,0.4-1.1c0.5-0.1,1-0.2,1.5-0.5c1-0.5,1.5-1.5,1.4-2.7
			c-0.1-1-0.8-1.8-1.9-2.1c-0.7-0.2-1.4-0.1-2.1-0.1c-0.6,0-0.4,0.5-0.4,0.7c0.1,3.6,0,7.1,0.2,10.7c0,0.7-0.1,0.9-0.8,0.7
			c-0.3-0.1-0.5-0.1-0.8,0c-1.1,0.1-1.1,0.1-1-1.1c0.2-4,0.3-8,0-12c0-0.5,0.1-0.7,0.6-0.7C109.6,98.9,110.3,99,110.8,98.9z"/>
		<path id="XMLID_123_" class="st12" d="M158.9,109.2c0.8,0.8,1.7,1.5,2.9,1.6c0.9,0.1,1.7-0.2,2.1-0.9c0.4-0.7,0.3-1.5-0.3-2.2
			c-0.6-0.7-1.4-1.3-2.2-1.8c-0.6-0.4-1.3-0.9-1.8-1.4c-1.5-1.7-1.1-4.1,0.8-5.2c1.6-0.9,4.2-0.6,5.6,0.5c0.3,0.2,0.2,0.3,0.1,0.5
			c-0.3,0.5-0.6,1-0.8,1.5c-0.3-0.3-0.6-0.6-1-0.9c-0.6-0.5-1.3-0.6-2-0.5c-0.6,0.1-1,0.5-1.2,1c-0.2,0.5,0,1,0.4,1.3
			c0.6,0.6,1.3,1,2,1.5c0.4,0.3,0.9,0.6,1.3,0.9c1.7,1.2,2.3,3,1.6,4.9c-0.6,1.6-2.4,2.7-4.4,2.5c-1.2-0.1-2.4-0.5-3.5-1.2
			c-0.3-0.2-0.4-0.3-0.2-0.7C158.4,110.4,158.6,109.8,158.9,109.2z"/>
		<path id="XMLID_122_" class="st12" d="M124,98.9c1,0,2,0,3,0c0.5,0,0.7,0.1,0.6,0.6c0,0.1,0,0.3,0,0.4c0.1,0.7-0.2,0.9-0.9,0.9
			c-1.1-0.1-2.1-0.1-3.2-0.2c-0.4,0-0.6,0.1-0.6,0.6c0,1,0,1.9,0,2.9c0,0.4,0.2,0.5,0.6,0.6c1.1,0.1,2.2,0,3.4-0.1
			c0.4,0,0.6,0,0.6,0.5c-0.1,1.7,0.3,1.4-1.5,1.4c-0.8,0-1.6,0-2.5,0c-0.4,0-0.6,0.1-0.6,0.6c0,1.1,0,2.3-0.1,3.4
			c0,0.5,0.1,0.7,0.7,0.7c1.2-0.1,2.4-0.1,3.5-0.1c0.6,0,0.8,0.1,0.7,0.7c-0.1,1.4,0.1,1.2-1.2,1.1c-1.8-0.1-3.7-0.1-5.5,0
			c-0.5,0-0.7,0-0.6-0.6c0.3-4.2,0.2-8.3,0-12.5c0-0.5,0.1-0.7,0.7-0.7C122.1,99,123.1,99,124,98.9C124,99,124,99,124,98.9z"/>
		<path id="XMLID_121_" class="st0" d="M309.8,168.1c0.2-1.8,0.4-3.5,0.6-5.3c0.3-1.9-1-3.5-3.5-3.2c-0.6,0.1-0.8,0.3-1.5,1.6
			c-0.1-1.6-1.1-1.8-2.3-1.9c-1.1-0.1-2.2-0.4-2.7,1.2c-0.2-1.6-1.3-1.5-2.4-1.6c-1.7-0.1-1.7-0.1-1.7-1.8c0-2.4,0-4.8,0-7.2
			c0-1.1-0.5-2-1.5-2.5c-1-0.5-2.1-0.4-3,0.3c-0.8,0.6-1.1,1.5-1.1,2.5c0,5.6,0,11.3,0,16.9c0,0.3,0,0.5-0.2,0.8
			c-0.5-0.9-1.2-1.7-1.6-2.6c-1-1.9-2.9-2-4-1.4c-1.5,0.8-1.9,2.3-1,4.2c-2.1-0.1-3.6-1.8-3.6-4.1c0-5.5,0-11,0-16.4
			c0-1.3,0-2.5,0-3.8c0-2.3,1.7-4.1,4-4.1c8.5,0,17,0,25.5,0c2.2,0,4,1.8,4,4c0,6.8,0,13.6,0,20.4
			C313.8,166.4,312.3,168,309.8,168.1z"/>
		<path id="XMLID_120_" class="st0" d="M366.1,202.6c-0.8,0-1.8,0-2.7-0.5c-1.1-0.6-1.3-2-0.2-2.7c0.2-0.1,0.3-0.1,0.5-0.1
			c1.7,0.2,3.4,0.3,5.1,0.3c0.3,0,0.7,0.1,1,0.3c0.9,0.4,1,1.2,0.2,1.8C368.9,202.5,367.6,202.6,366.1,202.6z"/>
		<path id="XMLID_119_" class="st0" d="M367.9,192.6c0,1.5-0.7,2.5-1.8,2.8c-0.8,0.2-1.7-0.3-2.2-1.2c0-0.1-0.1-0.1-0.1-0.2
			c-0.4-1-0.5-2-0.2-3c0.4-1.5,2-1.9,3.1-0.9C367.6,190.9,367.9,191.8,367.9,192.6z"/>
		<path id="XMLID_118_" class="st0" d="M401.6,194.5c0-0.5,0-1,0-1.6c0-1.2,0.8-2.2,2.2-2.5c1.1-0.3,2.1,0.3,2.6,1.5
			c0.7,1.7,0.8,3.4,0.1,5.1c-0.6,1.6-2.3,2.2-3.8,1.4c-0.7-0.4-1.2-1-1.2-1.9C401.6,195.8,401.6,195.2,401.6,194.5z"/>
		<path id="XMLID_117_" class="st0" d="M266.1,194.7c0-0.6,0-1.2,0-1.8c0-1.5,1.5-2.6,3-2.2c1.1,0.3,1.8,1.1,2.1,2.2
			c0.4,1.7,0.3,3.4-0.8,4.8c-1,1.3-2.9,1.3-4.1,0.2c-0.2-0.2-0.2-0.5-0.2-0.7C266.1,196.3,266.1,195.5,266.1,194.7z"/>
		<path id="XMLID_116_" class="st0" d="M224,194.7c0,0.5,0,1,0,1.5c0.1,0.8,0,1.5-0.9,1.9c-0.9,0.4-1.8,0.5-2.6-0.1
			c-0.8-0.5-1.2-1.3-1.5-2.1c-0.5-1.5-0.5-3.1,0.3-4.5c0.6-1.1,1.7-1.7,2.6-1.5c1.2,0.3,2,1.3,2.1,2.6
			C224,193.2,224,193.9,224,194.7z"/>
		<path id="XMLID_115_" class="st0" d="M116.6,194.5c0-0.5,0-1,0-1.5c0-1.3,0.9-2.3,2.2-2.6c1.1-0.2,2.1,0.3,2.6,1.5
			c0.7,1.7,0.8,3.5,0,5.2c-0.8,1.8-2.8,2.2-4.2,0.9c-0.4-0.4-0.7-0.9-0.7-1.5C116.6,195.9,116.6,195.2,116.6,194.5z"/>
		<path id="XMLID_114_" class="st0" d="M102.9,194c-1.5,0-3,0-4.4,0c-0.1,0-0.1,0-0.3-0.1c0.8-1.6,1.5-3.2,2.3-5
			C101.4,190.8,102.1,192.3,102.9,194z"/>
		<path id="XMLID_113_" class="st13" d="M182.7,193.5c0,1.2,0,2.3,0,3.4c0,0.2-0.1,0.4-0.3,0.5c-0.5,0.3-0.9,0.6-1.4,0.8
			c-0.8,0.2-1.5,0-1.9-0.6c-0.5-0.7-0.5-1.4,0.1-2.1c0.7-0.8,1.7-1.3,2.7-1.7C182.1,193.7,182.3,193.6,182.7,193.5z"/>
		<path id="XMLID_112_" class="st0" d="M259.9,194.9c0,0.9-0.2,1.7-0.6,2.5c-0.9,1.7-2.9,1.9-4.2,0.5c-1.4-1.5-1.8-4.7-0.9-6.5
			c1-2,3.3-2.1,4.6-0.3C259.7,192.2,259.8,193.5,259.9,194.9z"/>
		<path id="XMLID_111_" class="st0" d="M156.1,193.4c0-0.5,0.1-1.3,0.5-2.1c1.1-2.1,3.1-1.8,4.3-0.6c1.5,1.5,1.7,5.4,0.4,7.1
			c-1,1.3-2.8,1.4-3.9,0C156.4,196.6,156.1,195.2,156.1,193.4z"/>
		<path id="XMLID_110_" class="st14" d="M322.7,193.5c0,1.1,0,2.2,0,3.2c0,0.3-0.1,0.6-0.4,0.8c-0.3,0.2-0.5,0.4-0.8,0.5
			c-1.1,0.5-2,0.3-2.5-0.5c-0.5-0.8-0.3-1.7,0.6-2.4C320.5,194.3,321.5,193.9,322.7,193.5z"/>
		<path id="XMLID_109_" class="st14" d="M130,192.4c-0.6,0-1.2,0-1.8,0c-0.6,0.1-0.6-0.2-0.5-0.7c0.3-1,1.3-2,2.3-2
			c1,0,2.1,0.8,2.4,1.8c0.2,0.5,0.2,1-0.6,0.9C131.3,192.4,130.6,192.4,130,192.4z"/>
		<path id="XMLID_108_" class="st14" d="M209.6,192.4c-0.6,0-1.3,0-1.9,0c-0.3,0-0.5-0.1-0.4-0.5c0.1-1,1.2-2.1,2.2-2.2
			c1.1-0.1,2.4,0.9,2.6,2c0.1,0.4,0,0.7-0.5,0.6C210.9,192.4,210.3,192.4,209.6,192.4z"/>
		<path id="XMLID_107_" class="st14" d="M288.6,192.4c-0.7,0-1.3,0-2,0c-0.4,0-0.5-0.1-0.4-0.5c0.2-1.1,1.3-2.2,2.3-2.2
			c1.1,0,2.2,0.9,2.5,2c0.1,0.4,0.1,0.7-0.5,0.6C289.9,192.4,289.3,192.4,288.6,192.4z"/>
		<path id="XMLID_106_" class="st14" d="M383,192.4c-0.7,0-1.3,0-2,0c-0.4,0-0.5-0.1-0.5-0.5c0.2-1.1,1.3-2.1,2.3-2.1
			c1.1,0,2.3,0.9,2.5,2c0.1,0.4,0.1,0.7-0.5,0.7C384.2,192.4,383.6,192.4,383,192.4z"/>
		<path id="XMLID_105_" class="st14" d="M307.6,192.4c0.2-1.5,1-2.5,2.2-2.6c1.1-0.1,2.3,0.8,2.6,2c0.1,0.5,0.1,0.7-0.5,0.7
			C310.5,192.4,309.1,192.4,307.6,192.4z"/>
		<path id="XMLID_104_" class="st14" d="M438.6,192.4c-0.7,0-1.3,0-2,0c-0.5,0-0.5-0.1-0.4-0.6c0.3-1.2,1.3-2,2.3-2.1
			c1.1,0,2.2,0.8,2.5,2c0.1,0.5,0,0.7-0.5,0.7C439.9,192.4,439.2,192.4,438.6,192.4z"/>
		<path id="XMLID_103_" class="st14" d="M412.7,192.4c0.2-1.4,1-2.5,2.2-2.6c1.1-0.1,2.3,0.8,2.6,2c0.1,0.5,0.1,0.7-0.5,0.7
			c-1.4,0-2.7,0-4.1,0C412.8,192.4,412.8,192.4,412.7,192.4z"/>
		<path id="XMLID_102_" class="st14" d="M471.4,192.4c-0.7,0-1.3,0-2,0c-0.3,0-0.5,0-0.4-0.4c0.2-1.1,1.3-2.2,2.3-2.2
			c1.2,0,2.3,1,2.5,2.2c0.1,0.4-0.1,0.5-0.4,0.5C472.8,192.4,472.1,192.4,471.4,192.4z"/>
		<path id="XMLID_101_" class="st1" d="M171.8,105.5c0-1.2,0.4-2.6,1.4-3.7c1.6-1.7,4.2-1.6,5.7,0.2c1.8,2.2,1.7,5.8-0.2,7.9
			c-1.6,1.7-4.3,1.6-5.7-0.3C172.1,108.4,171.8,107.1,171.8,105.5z"/>
		<path id="XMLID_100_" class="st15" d="M134.3,106.9c0.6-1.7,1.1-3.3,1.7-5.1c0.6,1.7,1.1,3.2,1.7,4.7c0.1,0.4,0,0.4-0.3,0.4
			C136.4,107.1,135.4,107.1,134.3,106.9z"/>
	</g>
</g>
</svg>
