<?xml version="1.0" encoding="utf-8"?>
<!-- Generator: Adobe Illustrator 19.0.0, SVG Export Plug-In . SVG Version: 6.00 Build 0)  -->
<svg version="1.1" id="Layer_1" xmlns="http://www.w3.org/2000/svg" xmlns:xlink="http://www.w3.org/1999/xlink" x="0px" y="0px"
	 viewBox="0 0 579 291" style="enable-background:new 0 0 579 291;" xml:space="preserve">
<style type="text/css">
	.st0{fill:#FFFFFF;}
	.st1{fill:#3D3C3E;}
	.st2{fill:#0B0A0B;}
	.st3{fill:#3D3D3E;}
	.st4{fill:#929597;}
	.st5{fill:#0B0B0C;}
	.st6{fill:#0C0C0C;}
	.st7{fill:#0B0B0B;}
	.st8{fill:#0E0E0E;}
	.st9{fill:#0D0D0D;}
	.st10{fill:#0C0B0C;}
	.st11{fill:#0D0C0D;}
	.st12{fill:#0C0C0D;}
	.st13{fill:#101010;}
	.st14{fill:#111111;}
	.st15{fill:#111011;}
	.st16{fill:#0F0F10;}
	.st17{fill:#121212;}
	.st18{fill:#131213;}
	.st19{fill:#141314;}
	.st20{fill:#131314;}
	.st21{fill:#171717;}
	.st22{fill:#151415;}
	.st23{fill:#F3F4F4;}
	.st24{fill:#FEFEFE;}
	.st25{fill:#FEFEFF;}
	.st26{fill:#3F3E40;}
</style>
<g id="XMLID_8_">
	<g id="XMLID_98_">
		<path id="XMLID_179_" class="st0" d="M289.7,229.4c-72.3,0-144.5,0-216.8,0c-0.6,0-0.8-0.1-0.8-0.8c0-54.3,0-108.6,0-162.9
			c0-0.6,0.1-0.8,0.8-0.8c144.5,0,289,0,433.5,0c0.6,0,0.8,0.1,0.8,0.8c0,54.3,0,108.6,0,162.9c0,0.6-0.1,0.8-0.8,0.8
			C434.2,229.4,361.9,229.4,289.7,229.4z"/>
		<path id="XMLID_178_" class="st1" d="M152.6,88.5c19,0,38.1,0,57.1,0c0.8,0,1,0.1,1,1c0,11,0,21.9,0,32.9c0,0.7-0.2,0.9-0.9,0.9
			c-38.2,0-76.4,0-114.6,0c-0.8,0-0.9-0.2-0.9-1c0-11,0-21.9,0-32.9c0-0.8,0.2-0.9,0.9-0.9C114.5,88.5,133.6,88.5,152.6,88.5z"/>
		<path id="XMLID_177_" class="st2" d="M123.7,166.7c2.7-5,5.3-9.9,7.9-14.8c2.8-5.3,5.6-10.5,8.4-15.8c1.5-2.8,4.4-4.1,7.5-3.4
			c3.1,0.7,5.2,3.2,5.2,6.4c0.1,5.9,0,11.8,0,17.7c0,5.9,0,11.8,0,17.8c0,0.6-0.2,0.8-0.8,0.8c-1.8,0-3.6-0.1-5.4,0
			c-0.8,0-1-0.1-1-1c0-10.7,0-21.4,0-32.1c0-0.3,0.1-0.6-0.1-1.1c-0.9,1.7-1.7,3.3-2.6,4.9c-4.4,8.3-8.8,16.7-13.2,25
			c-0.3,0.6-0.7,1.2-1.1,1.7c-2.2,3.5-7.9,3.7-10.1-0.5c-1.6-2.9-3.1-5.8-4.7-8.7c-3.9-7.3-7.7-14.6-11.6-21.9
			c-0.1-0.2-0.2-0.3-0.4-0.6c0,0.5,0,0.8,0,1c0,10.8,0,21.6,0,32.5c0,0.7-0.2,0.9-0.9,0.9c-1.9-0.1-3.8,0-5.7,0
			c-0.5,0-0.6-0.1-0.6-0.6c0-11.8,0-23.7,0-35.5c0-3.3,2-5.7,5.1-6.5c3.2-0.8,6.1,0.5,7.7,3.5c3.5,6.5,6.9,13,10.4,19.5
			c1.8,3.4,3.7,6.9,5.5,10.4C123.4,166.3,123.6,166.5,123.7,166.7z"/>
		<path id="XMLID_176_" class="st2" d="M162.1,132.5c2.2-0.1,4.8,0.1,7.2,1.2c2,0.9,3.7,2.3,5.2,3.9c3.1,3.4,6.2,6.9,9.3,10.3
			c0.4,0.5,0.6,0.5,1,0c3.1-3.5,6.1-7,9.3-10.4c3-3.3,6.7-5.1,11.2-5.1c1.6,0,3.2,0,4.8,0c0.6,0,0.7,0.2,0.7,0.7c0,1.9,0,3.8,0,5.8
			c0,0.6-0.2,0.7-0.7,0.7c-1.9,0-3.8-0.1-5.7,0.1c-1.8,0.2-3.3,1-4.4,2.3c-3,3.2-5.9,6.5-8.9,9.8c-0.5,0.6-1,1.2-1.5,1.7
			c-0.3,0.3-0.3,0.5,0,0.8c3.5,3.8,6.9,7.7,10.4,11.4c1.5,1.7,3.5,2.4,5.7,2.4c1.5,0,3.1,0,4.6,0c0.5,0,0.7,0.1,0.7,0.6c0,2,0,4,0,6
			c0,0.3,0.1,0.6-0.4,0.5c-2.9-0.1-5.9,0.3-8.8-0.4c-3.1-0.8-5.7-2.5-7.8-4.9c-3-3.4-6.1-6.8-9.1-10.2c-0.4-0.5-0.6-0.4-1,0
			c-3.4,3.8-6.8,7.7-10.3,11.4c-2.6,2.7-5.8,4-9.5,4.1c-1.8,0.1-3.7,0-5.5,0c-0.5,0-0.6-0.2-0.6-0.6c0-1.9,0-3.9,0-5.8
			c0-0.6,0.2-0.7,0.7-0.7c1.8,0,3.6,0,5.3,0c1.8-0.1,3.4-0.8,4.6-2.1c3.6-3.9,7.1-7.8,10.7-11.7c0.3-0.3,0.2-0.5,0-0.8
			c-3.4-3.8-6.8-7.6-10.3-11.3c-1.5-1.7-3.5-2.5-5.8-2.5c-1.6,0-3.1,0-4.7,0c-0.5,0-0.6-0.1-0.6-0.6c0-2,0-4,0-6
			c0-0.5,0.2-0.6,0.6-0.6C159.5,132.5,160.6,132.5,162.1,132.5z"/>
		<path id="XMLID_175_" class="st3" d="M432,153.9c0-6.8,0-13.7,0-20.5c0-0.6,0.1-0.8,0.8-0.8c1.9,0.1,3.8,0,5.7,0
			c0.6,0,0.7,0.2,0.7,0.7c0,5.4,0,10.8,0,16.3c0,0.6,0.1,0.8,0.8,0.8c10.7,0,21.3,0,32,0c0.7,0,0.9-0.1,0.9-0.8c0-5.4,0-10.7,0-16.1
			c0-0.8,0.2-0.9,0.9-0.9c1.9,0,3.8,0,5.7,0c0.5,0,0.6,0.2,0.6,0.7c0,13.8,0,27.7,0,41.5c0,0.5-0.1,0.7-0.6,0.6c-2,0-3.9,0-5.9,0
			c-0.6,0-0.7-0.2-0.7-0.7c0-5.4,0-10.8,0-16.3c0-0.7-0.2-0.9-0.9-0.9c-10.6,0-21.2,0-31.8,0c-0.8,0-0.9,0.3-0.9,1
			c0,5.4,0,10.7,0,16.1c0,0.7-0.2,0.8-0.8,0.8c-1.9,0-3.7-0.1-5.6,0c-0.7,0-0.8-0.2-0.8-0.8C432,167.6,432,160.7,432,153.9z"/>
		<path id="XMLID_174_" class="st1" d="M406.6,132.5c6.5,0,13,0,19.6,0c0.7,0,0.9,0.1,0.9,0.8c-0.1,1.8-0.1,3.6,0,5.4
			c0,0.7-0.1,0.9-0.9,0.9c-12.6,0-25.1,0-37.7,0c-1.7,0-2.1,0.4-2.1,2.1c0,8,0,16.1,0,24.1c0,2,0.3,2.3,2.3,2.3c12.5,0,25,0,37.5,0
			c0.8,0,1,0.1,1,1c-0.1,1.9,0,3.7,0,5.6c0,0.5-0.1,0.6-0.6,0.6c-13,0-26,0-39,0c-4.6,0-8.3-3.8-8.3-8.5c0-7.6,0-15.2,0-22.8
			c0-1.6-0.1-3.1,0.2-4.7c0.8-3.8,4.4-6.7,8.2-6.7C393.9,132.5,400.2,132.5,406.6,132.5z"/>
		<path id="XMLID_173_" class="st1" d="M288.5,175.3c-2.3-0.1-4.6,0.2-6.9-0.3c-5-1.2-8.5-5.6-8.5-10.7c0-6.9,0-13.8,0-20.6
			c0-6.2,4.9-11.1,11.1-11.1c8.6,0,17.2,0,25.7,0c6,0,11,5,11,11c0,6.7-0.2,13.3,0.1,20c0.2,6.8-5.6,12.2-11.9,11.8
			c-0.1,0-0.2,0-0.3,0c-0.2-0.3-0.1-0.7-0.1-1c0.2-1.7,0.4-3.5,0.6-5.2c0.1-0.6,0.3-1,0.9-1.2c0.3-0.1,0.5-0.2,0.8-0.3
			c1.5-0.6,2.4-1.8,2.4-3.5c0-6.8,0-13.6,0-20.4c0-1.8-1.2-3.3-2.9-3.7c-0.5-0.1-1.1-0.2-1.6-0.2c-7.9,0-15.8,0-23.7,0
			c-0.5,0-1,0-1.5,0.1c-2,0.3-3.2,1.7-3.3,3.7c0,0.2,0,0.4,0,0.6c0,6.4,0,12.8,0,19.2c0,2.4,0.7,3.5,3,4.3c0.5,0.2,0.9,0.5,1.1,1
			c1.2,1.9,2.4,3.7,3.5,5.6C288.4,174.7,288.6,174.9,288.5,175.3z"/>
		<path id="XMLID_172_" class="st3" d="M326.1,150.3c0-5.7,0-11.3,0-17c0-0.7,0.2-0.8,0.8-0.8c1.9,0,3.7,0,5.6,0
			c0.6,0,0.8,0.2,0.8,0.8c0,10.9,0,21.9,0,32.8c0,1.6,0.4,2,2,2c9.8,0,19.7,0,29.5,0c1.5,0,2.1-0.5,2.1-2.1c0-10.9,0-21.7,0-32.6
			c0-0.8,0.2-0.9,0.9-0.9c1.9,0.1,3.7,0,5.6,0c0.5,0,0.6,0.1,0.6,0.6c0,11.3,0,22.6,0,33.9c0,4.3-3.9,8.2-8.2,8.2
			c-10.5,0-20.9,0-31.4,0c-4.1,0-8.4-3.7-8.3-9C326.2,160.9,326.1,155.6,326.1,150.3z"/>
		<path id="XMLID_171_" class="st1" d="M244.1,132.5c7.7,0,15.4,0,23.1,0c0.7,0,0.9,0.2,0.9,0.9c-0.1,1.8-0.1,3.6,0,5.4
			c0,0.7-0.2,0.8-0.9,0.8c-6.2,0-12.4,0-18.7,0c-0.7,0-0.9,0.2-0.9,0.9c0,11.3,0,22.6,0,33.9c0,0.8-0.2,0.9-0.9,0.9
			c-1.8-0.1-3.6-0.1-5.4,0c-0.7,0-0.9-0.2-0.8-0.8c0-10.9,0-21.8,0-32.7c0-0.5,0-0.9,0-1.4c0.1-0.6-0.2-0.7-0.7-0.7
			c-6.2,0-12.5,0-18.7,0c-0.7,0-1-0.2-0.9-0.9c0.1-1.8,0.1-3.6,0-5.4c0-0.7,0.2-0.8,0.8-0.8C228.7,132.5,236.4,132.5,244.1,132.5z"
			/>
		<path id="XMLID_170_" class="st4" d="M310.4,168.1c-0.5,0.1-0.7,0.3-0.7,0.9c-0.2,2.1-0.5,4.2-0.8,6.3c-0.1,1-0.2,2-0.3,3
			c-0.2,1.4-1.2,2.2-2.6,2.3c-4.2,0-8.5,0-12.7,0c-0.9,0-1.6-0.5-2.1-1.2c-0.9-1.3-1.8-2.7-2.6-4c-1.4-2.2-2.8-4.5-4.2-6.7
			c-0.1-0.2-0.3-0.3-0.6-0.5c-1-1.6-0.6-3.3,0.8-4.3c1.4-0.9,3.2-0.6,4.2,0.9c0.5,0.8,1,1.6,1.6,2.5c0-1,0-1.8,0-2.7
			c0-4.6,0-9.3,0-13.9c0-0.6,0-1.3,0.2-1.9c0.4-1.2,1.6-2.1,2.9-2.1c1.3,0,2.4,0.9,2.9,2.1c0.2,0.6,0.2,1.1,0.2,1.7c0,2.3,0,4.7,0,7
			c0,1,0,1,1,1c0.4,0,0.9,0.1,1.3,0.1c0.8,0.1,1.3,0.5,1.5,1.3c0.5-1.2,1.5-1.2,2.5-1c1,0.1,2.1,0,2.5,1.3c1.1-1.1,2-1.3,3.3-0.7
			c1.2,0.5,1.8,1.4,1.8,2.8c0,1.4-0.3,2.8-0.4,4.2C310.1,167.1,310,167.6,310.4,168.1z"/>
		<path id="XMLID_169_" class="st5" d="M242.9,190.9c0.8-1.1,1.9-1.6,3.1-1.9c1.8-0.4,3.4,0.7,3.5,2.5c0.1,2.5,0.1,4.9,0.1,7.4
			c0,0.3-0.1,0.4-0.4,0.4c-1.6,0.2-1.7,0.1-1.7-1.5c0-1.8,0-3.5,0-5.3c0-1.8-1.2-2.7-3-2.1c-1.3,0.5-1.7,1-1.7,2.4
			c0,1.9,0,3.8,0,5.7c0,0.5-0.1,0.7-0.7,0.7c-1.4,0-1.4,0-1.4-1.4c0-1.8,0-3.5,0-5.3c0-2-1.3-2.8-3.1-2.1c-1.4,0.6-1.6,0.9-1.6,2.4
			c0,1.9,0,3.7,0,5.6c0,0.5-0.1,0.7-0.7,0.7c-1.4,0-1.4,0-1.4-1.4c0-2.7,0-5.4,0-8.1c0-0.6,0.2-0.8,0.7-0.7c0,0,0.1,0,0.1,0
			c1.2,0,1.2,0,1.2,1.2c0,0.1,0,0.3,0,0.4c0.3,0.1,0.5-0.2,0.7-0.4c0.9-0.7,1.9-1.4,3.2-1.4C241.1,188.9,242,189.6,242.9,190.9z"/>
		<path id="XMLID_168_" class="st5" d="M362.5,199.1c-1.8-1-1.6-1.8,0.7-3.5c-1.3-0.7-2.2-1.8-1.9-3.4c0.3-1.7,1.5-2.6,3-3.1
			c1.4-0.4,2.8-0.2,4.1,0.4c0.8,0.4,1.6,0.1,2.4,0.2c0.3,0,0.7-0.2,0.7,0.4c0,0.6-0.4,0.4-0.7,0.4c-0.4,0-0.8,0-1.2,0
			c1.8,3.7-1.4,5.6-4.4,5.5c-0.3,0-0.6,0-0.8-0.1c-0.8-0.3-1,0.3-1.1,0.8c-0.2,0.6,0.4,0.8,0.9,0.8c1.3,0.1,2.7,0.1,4,0.2
			c0.3,0,0.7,0,1,0.1c2.2,0.4,3,2.4,1.6,4.2c-0.5,0.6-1.1,1-1.8,1.3c-2.3,0.9-4.7,0.9-7.1,0.2c-1.8-0.5-2.1-1.9-0.8-3.2
			C361.6,199.9,362,199.6,362.5,199.1z"/>
		<path id="XMLID_167_" class="st6" d="M401.6,191.1c0.5-0.6,0.9-1,1.3-1.3c2-1.5,4.7-0.9,5.8,1.4c0.9,2,0.8,4-0.3,5.9
			c-1.2,2.2-3.8,3-6.2,2c-0.2-0.1-0.3-0.2-0.6-0.3c0,1.4,0,2.7,0,4c0,0.6-0.1,0.8-0.8,0.8c-1.3,0-1.3,0-1.3-1.3c0-4.1,0-8.2,0-12.3
			c0-0.7,0.2-0.9,0.9-0.8c0.1,0,0.1,0,0.2,0c1.1,0,1.1,0,1.1,1.1C401.6,190.5,401.6,190.7,401.6,191.1z"/>
		<path id="XMLID_166_" class="st6" d="M266.3,190.8c0.2-0.2,0.3-0.4,0.5-0.5c1.1-1,2.4-1.6,4-1.1c1.5,0.5,2.5,1.6,2.8,3.2
			c0.5,2.5-0.2,4.6-2.2,6.1c-2,1.6-4.3,1.5-6.5,0.4c-0.5-0.2-0.8-0.6-0.8-1.2c0-4.1,0-8.3,0-12.4c0-0.6,1.3-1.5,1.9-1.3
			c0.3,0.1,0.2,0.4,0.2,0.6c0,2,0,4,0,6.1C266.2,190.7,266.2,190.7,266.3,190.8z"/>
		<path id="XMLID_165_" class="st7" d="M224,189.8c0-1.7,0-3.2,0-4.7c0-0.6,1.3-1.4,1.9-1.2c0.3,0.1,0.2,0.3,0.2,0.5
			c0,4.9,0,9.7,0,14.6c0,0.4-0.1,0.6-0.5,0.5c-0.2,0-0.3,0-0.5,0c-0.8,0.1-1.3,0-1-1.2c-0.5,0.3-0.8,0.5-1.2,0.6
			c-2.6,1.2-5,0.2-6.1-2.4c-1.4-3.3,0.7-7.1,4.2-7.7C222.1,188.8,223.1,189.1,224,189.8z"/>
		<path id="XMLID_164_" class="st7" d="M116.6,191c0.4-0.1,0.5-0.4,0.7-0.6c2.5-2.5,5.8-1.6,6.7,1.8c0.5,1.7,0.3,3.4-0.6,4.9
			c-1.2,2.2-3.9,3.1-6.2,2.1c-0.2-0.1-0.4-0.3-0.7-0.2c0,1.3,0,2.7,0,4c0,0.6-0.2,0.7-0.7,0.7c-1.3,0-1.3,0-1.3-1.3
			c0-4.1,0-8.2,0-12.3c0-0.7,0.2-1,0.8-0.8c0.2,0,0.4,0,0.7,0c0.4-0.1,0.6,0.1,0.5,0.6C116.6,190.1,116.6,190.5,116.6,191z"/>
		<path id="XMLID_163_" class="st8" d="M168.5,190.9c0.8-0.8,1.6-1.4,2.5-1.7c2.1-0.7,3.7,0.2,3.9,2.4c0,0.3,0.1,0.7,0.1,1
			c0,1.8,0,3.6,0,5.3c0,1.5-0.2,1.7-1.7,1.4c-0.5-0.1-0.3-0.4-0.3-0.7c0-2,0-4,0-6.1c0-2.1-1.2-2.8-3.1-1.8
			c-0.9,0.5-1.5,1.1-1.4,2.3c0.1,1.8,0,3.7,0,5.6c0,0.5-0.1,0.7-0.7,0.7c-1.4,0-1.4,0-1.4-1.4c0-2.7,0-5.3,0-8
			c0-0.7,0.2-0.9,0.9-0.8c0.1,0,0.2,0,0.3,0c0.7-0.1,1,0.1,0.9,0.9C168.5,190.3,168.5,190.5,168.5,190.9z"/>
		<path id="XMLID_162_" class="st9" d="M352.6,191c0.9-1,1.8-1.6,3-1.9c1.8-0.4,3.3,0.6,3.4,2.4c0.1,2.5,0.1,5,0.1,7.5
			c0,0.3-0.1,0.4-0.4,0.4c-1.6,0.2-1.7,0.1-1.7-1.5c0-1.8,0-3.7,0-5.5c0-1.8-1.1-2.5-2.7-1.7c-0.2,0.1-0.4,0.2-0.6,0.3
			c-0.8,0.4-1.2,1-1.1,2c0.1,1.9,0,3.8,0,5.7c0,0.6-0.1,0.8-0.8,0.8c-1.3,0-1.3,0-1.3-1.3c0-2.7,0-5.4,0-8.1c0-0.6,0.1-0.9,0.8-0.8
			c0.1,0,0.3,0,0.4,0c0.7-0.1,1,0.1,0.9,0.9C352.6,190.3,352.6,190.5,352.6,191z"/>
		<path id="XMLID_161_" class="st6" d="M107.6,199.4c-0.6,0-1.1,0-1.7,0c-0.4,0-0.6-0.1-0.8-0.5c-0.5-1.1-1-2.2-1.5-3.4
			c-0.2-0.4-0.3-0.6-0.8-0.5c-1.5,0-3.1,0-4.6,0c-0.4,0-0.6,0.1-0.7,0.5c-0.5,1.1-1,2.2-1.6,3.3c-0.1,0.2-0.1,0.4-0.3,0.5
			c-0.3,0.2-0.7,0.2-0.9,0.1c-0.4-0.2,0-0.5,0.1-0.7c1.9-4.1,3.8-8.2,5.8-12.3c0.1-0.2,0.2-0.5,0.5-0.5c0.3,0,0.4,0.2,0.5,0.5
			c1.9,4.2,3.9,8.4,5.8,12.6C107.6,199,107.6,199.2,107.6,199.4z"/>
		<path id="XMLID_160_" class="st6" d="M182.6,198.1c-0.9,0.8-1.8,1.4-2.9,1.5c-1.2,0.1-2.3-0.3-2.8-1.2c-0.5-1-0.4-2.3,0.3-3.1
			c0.7-0.8,1.6-1.3,2.6-1.6c0.5-0.2,1.1-0.4,1.6-0.5c0.7-0.2,1.3-0.3,1.2-1.2c-0.1-1.2-0.5-1.9-1.4-2.1c-1.2-0.2-2.3,0.2-2.2,1.6
			c0,0.5-0.1,1-0.7,1.2c-0.4,0.1-0.8,0-1.1-0.3c-0.4-0.5-0.3-1-0.1-1.5c0.3-0.6,0.8-1,1.4-1.3c1.4-0.6,2.8-0.7,4.2-0.3
			c1.3,0.3,2,1.2,2,2.5c0,2.3,0,4.7,0,7c0,0.6-0.2,0.7-0.7,0.7C182.7,199.4,182.7,199.4,182.6,198.1z"/>
		<path id="XMLID_159_" class="st6" d="M337.2,190.9c0.8-0.8,1.5-1.3,2.3-1.7c2.2-0.9,4.1,0.2,4.2,2.6c0.1,2.4,0,4.7,0,7.1
			c0,0.4-0.1,0.4-0.5,0.5c-1.6,0.1-1.6,0.1-1.6-1.5c0-1.8,0-3.6,0-5.3c0-2-1.2-2.7-3-1.8c-0.9,0.5-1.5,1.1-1.4,2.3
			c0.1,1.9,0,3.7,0,5.6c0,0.5-0.1,0.7-0.7,0.7c-1.4,0-1.4,0-1.4-1.4c0-2.7,0-5.4,0-8c0-0.7,0.2-0.9,0.8-0.8c0.2,0,0.4,0,0.6,0
			c0.6-0.1,0.7,0.2,0.7,0.7C337.2,190.2,337.2,190.5,337.2,190.9z"/>
		<path id="XMLID_158_" class="st10" d="M447.8,190.9c1-0.9,1.9-1.6,3-1.9c1.7-0.4,2.9,0.4,3.4,2c0.2,0.6,0.1,1.2,0.1,1.8
			c0,1.9,0,3.8,0,5.7c0,0.6-0.1,0.7-0.7,0.7c-1.4,0-1.4,0-1.4-1.4c0-1.9,0-3.7,0-5.6c0-1.7-1.1-2.4-2.7-1.7
			c-0.2,0.1-0.4,0.2-0.6,0.3c-0.8,0.4-1.3,1-1.2,2.1c0.1,1.9,0,3.8,0,5.7c0,0.5-0.1,0.7-0.7,0.7c-1.4,0-1.4,0-1.4-1.4
			c0-2.7,0-5.4,0-8c0-0.6,0.2-0.9,0.8-0.8c0.2,0,0.4,0,0.6,0c0.6-0.1,0.7,0.2,0.7,0.7C447.8,190.2,447.8,190.5,447.8,190.9z"/>
		<path id="XMLID_157_" class="st10" d="M256.8,189c3,0,5.4,2.2,5.4,5c0,3.1-2.4,5.6-5.4,5.6c-3,0-5.4-2.3-5.4-5.2
			C251.4,191.3,253.8,189,256.8,189z"/>
		<path id="XMLID_156_" class="st10" d="M153.8,194.3c0-3.1,2.4-5.4,5.5-5.3c3.1,0,5.3,2.2,5.3,5.2c0,3-2.5,5.5-5.4,5.4
			C156,199.5,153.8,197.3,153.8,194.3z"/>
		<path id="XMLID_155_" class="st10" d="M322.6,198.1c-0.9,0.7-1.7,1.3-2.7,1.5c-1.4,0.2-2.5-0.3-3-1.3c-0.6-1.2-0.3-2.5,0.8-3.5
			c1.1-0.9,2.5-1.3,3.8-1.8c0.4-0.1,1.1,0.1,1.1-0.6c0-0.9,0-1.9-0.9-2.5c-1.3-0.7-2.6,0-2.7,1.4c0,0.5-0.1,1-0.6,1.1
			c-0.4,0.1-0.8,0.1-1.1-0.2c-0.4-0.4-0.5-0.8-0.3-1.3c0.2-0.8,0.8-1.2,1.5-1.5c1.3-0.5,2.7-0.7,4.1-0.3c1.3,0.3,2,1.1,2,2.5
			c0,2.4,0,4.7,0,7.1c0,0.6-0.2,0.7-0.7,0.7C322.7,199.4,322.7,199.4,322.6,198.1z"/>
		<path id="XMLID_154_" class="st9" d="M211,193.3c-1,0-1.9,0-2.9,0c-0.7,0-1.1,0.1-0.8,0.9c0.1,0.3,0.1,0.6,0.2,1
			c0.5,1.5,1.3,2.6,2.9,2.8c1.7,0.2,3-0.6,3.9-2c0.1-0.2,0-0.5,0.5-0.3c0.4,0.2,0.3,0.4,0.2,0.6c-0.8,2.3-3.4,3.7-5.8,3.2
			c-2.4-0.5-4.1-2.8-3.8-5.3c0.1-1.2,0.4-2.4,1.2-3.4c1.2-1.6,2.9-2.1,4.8-1.7c1.8,0.4,2.9,1.4,3.4,3.2c0.3,1,0.2,1-0.8,1
			C212.9,193.3,211.9,193.3,211,193.3z"/>
		<path id="XMLID_153_" class="st9" d="M289.9,193.3c-1.1,0-2.1,0-3.2,0c-0.4,0-0.6,0.1-0.6,0.6c0.1,0.5,0.1,1,0.3,1.5
			c0.5,1.4,1.4,2.4,2.9,2.6c1.6,0.1,2.9-0.6,3.7-1.9c0.1-0.2,0.1-0.6,0.6-0.4c0.4,0.3,0.1,0.5,0,0.8c-1,2.3-3.6,3.6-5.9,3
			c-2.4-0.6-3.9-2.9-3.6-5.4c0.2-1.7,0.8-3.2,2.3-4.2c2.6-1.8,6.3-0.5,7.1,2.4c0.3,1,0.2,1.1-0.8,1.1
			C291.8,193.3,290.9,193.3,289.9,193.3z"/>
		<path id="XMLID_152_" class="st9" d="M384.2,193.3c-1,0-2.1,0-3.1,0c-0.5,0-0.7,0.2-0.6,0.7c0.1,0.5,0.2,1,0.3,1.4
			c0.5,1.4,1.4,2.4,2.9,2.6c1.6,0.1,2.9-0.6,3.7-1.9c0.1-0.2,0.1-0.7,0.6-0.4c0.5,0.3,0.1,0.5,0,0.7c-0.9,2.3-3.6,3.6-5.9,3
			c-2.4-0.6-4-2.9-3.7-5.5c0.4-3.1,2.4-5.1,5.2-5c2.1,0.1,3.8,1.5,4.3,3.4c0.1,0.6,0.1,1-0.7,0.9
			C386.2,193.2,385.2,193.3,384.2,193.3z"/>
		<path id="XMLID_151_" class="st9" d="M131.4,193.3c-1.1,0-2.1,0-3.2,0c-0.5,0-0.7,0.1-0.5,0.6c0.1,0.4,0.1,0.9,0.3,1.4
			c0.5,1.4,1.3,2.5,2.9,2.7c1.6,0.2,2.9-0.6,3.8-1.9c0.1-0.2,0-0.6,0.5-0.4c0.5,0.2,0.2,0.5,0.1,0.7c-0.9,2.3-3.6,3.7-6,3.1
			c-2.4-0.7-4-3-3.6-5.6c0.2-1.2,0.5-2.4,1.4-3.3c1.3-1.4,3-1.8,4.8-1.3c1.7,0.4,2.7,1.5,3.1,3.2c0.2,0.9,0.2,0.9-0.7,0.9
			C133.3,193.3,132.4,193.3,131.4,193.3z"/>
		<path id="XMLID_150_" class="st9" d="M472.7,193.3c-1,0-2,0-3,0c-0.6,0-0.7,0.2-0.6,0.7c0.1,0.7,0.2,1.4,0.5,2
			c0.6,1.2,1.5,2,2.9,2c1.5,0,2.7-0.6,3.5-1.9c0.1-0.2,0.1-0.7,0.6-0.4c0.5,0.3,0.2,0.6,0.1,0.8c-1,2.4-3.8,3.6-6.2,2.9
			c-2.5-0.8-3.9-3.3-3.3-6.1c0.8-3.6,4.3-5.4,7.3-3.6c1.2,0.7,1.9,1.7,2,3.1c0.1,0.5-0.1,0.6-0.5,0.6
			C474.9,193.3,473.8,193.3,472.7,193.3z"/>
		<path id="XMLID_149_" class="st11" d="M416.4,193.3c-1.1,0-2.2,0-3.3,0c-0.2,0-0.4-0.1-0.5,0.3c-0.5,2.1,1.9,4.7,4,4.4
			c1.3-0.2,2.4-0.8,3-2c0.1-0.2,0.1-0.5,0.5-0.3c0.4,0.2,0.2,0.4,0.1,0.7c-0.7,2.1-3.2,3.5-5.4,3.2c-2.5-0.4-4.2-2.2-4.3-4.7
			c-0.1-1.3,0.2-2.5,0.9-3.6c1-1.7,3-2.6,5-2.2c1.9,0.4,3.2,1.7,3.6,3.6c0.1,0.6,0,0.7-0.6,0.7C418.5,193.3,417.4,193.3,416.4,193.3
			z"/>
		<path id="XMLID_148_" class="st11" d="M439.9,193.3c-1.1,0-2.1,0-3.2,0c-0.4,0-0.6,0.1-0.5,0.6c0.1,0.8,0.3,1.6,0.7,2.3
			c1.4,2.4,4.7,2.4,6.2,0c0.1-0.2,0.1-0.8,0.6-0.5c0.5,0.3,0.1,0.6,0,0.9c-1.1,2.4-3.8,3.5-6.2,2.7c-2.5-0.8-3.8-3.3-3.3-6
			c0.7-3.4,3.6-5.2,6.6-4.1c1.6,0.6,2.5,1.8,2.8,3.5c0.1,0.5-0.1,0.6-0.5,0.6C442,193.3,441,193.3,439.9,193.3z"/>
		<path id="XMLID_147_" class="st11" d="M311.3,193.3c-1,0-2.1,0-3.1,0c-0.6,0-0.7,0.2-0.6,0.7c0.1,0.7,0.2,1.4,0.5,2
			c0.6,1.1,1.4,2,2.8,2c1.5,0.1,2.7-0.6,3.6-1.9c0.1-0.2,0.1-0.7,0.6-0.4c0.5,0.3,0.2,0.6,0,0.8c-1,2.4-3.7,3.6-6.1,2.9
			c-2.5-0.8-3.9-3.2-3.4-6c0.7-3.5,3.7-5.3,6.7-4c1.4,0.6,2.3,1.7,2.6,3.2c0.1,0.6,0,0.8-0.6,0.8
			C313.4,193.3,312.4,193.3,311.3,193.3z"/>
		<path id="XMLID_146_" class="st6" d="M456.2,194.5c0-3.9,3.6-6.5,7.3-5.2c0.7,0.2,1.3,0.6,1.6,1.3c0.3,0.5,0.4,1,0,1.5
			c-0.4,0.4-0.9,0.6-1.5,0.5c-0.5-0.2-0.8-0.6-0.8-1.2c-0.1-1.1-0.7-1.6-1.8-1.6c-1.3,0.1-2.3,1-2.7,2.3c-0.3,1.5-0.1,2.9,0.6,4.2
			c0.6,1.1,1.6,1.7,2.9,1.7c1.3,0,2.1-0.8,2.7-1.8c0.2-0.3,0.1-1.1,0.7-0.8c0.7,0.3,0.1,0.8-0.1,1.1c-1,2.3-2.9,3.4-5.3,2.9
			C457.7,199,456.2,197,456.2,194.5z"/>
		<path id="XMLID_145_" class="st12" d="M388.6,199.3c1.3-1.6,2.5-3.1,3.8-4.7c0.3-0.4,0.3-0.6,0-1c-1.1-1.4-2.1-2.9-3.3-4.5
			c0.8,0,1.5,0,2.1,0c0.4,0,0.5,0.3,0.7,0.5c0.7,0.9,1.4,1.9,2.1,2.9c0.8-0.9,1.5-1.8,2.3-2.7c0.5-0.7,0.5-0.7,1.6-0.5
			c-1,1.2-1.9,2.3-2.8,3.4c-0.4,0.4-0.4,0.7-0.1,1.2c1.3,1.7,2.6,3.5,3.9,5.4c-0.8,0-1.5,0-2.2,0c-0.4,0-0.5-0.3-0.6-0.6
			c-0.9-1.3-1.9-2.6-2.8-3.9c-1.1,1.3-2.1,2.5-3.1,3.7C389.9,199.2,389.4,199.6,388.6,199.3z"/>
		<path id="XMLID_144_" class="st6" d="M148.4,189c1.2,0,2.3,0.5,3.1,1.6c0.4,0.4,0,0.5-0.2,0.8c-0.3,0.3-0.4,0.1-0.6-0.1
			c-0.8-1-1.7-1.7-3.1-1.4c-0.6,0.1-1.2,0.4-1.3,1.1c-0.2,0.6,0.2,1.1,0.7,1.5c0.6,0.5,1.4,0.7,2.1,1.1c0.5,0.3,1,0.5,1.5,0.8
			c1.1,0.6,1.7,1.5,1.5,2.8c-0.2,1.3-0.9,2.1-2.1,2.4c-1.9,0.6-3.7,0.3-5.2-1.1c-0.4-0.4-0.2-0.6,0.1-1c0.4-0.4,0.5-0.1,0.7,0.2
			c0.7,0.8,1.4,1.5,2.6,1.5c0.8,0,1.5-0.3,1.7-1.1c0.3-0.8-0.2-1.4-0.8-1.8c-0.9-0.5-1.8-0.9-2.7-1.4c-1.2-0.6-1.9-1.5-1.7-3
			C145,190,146.3,189,148.4,189z"/>
		<path id="XMLID_143_" class="st6" d="M200,189c1.1,0,2.1,0.6,3,1.5c0.4,0.4,0.1,0.6-0.1,0.8c-0.4,0.4-0.5,0-0.6-0.2
			c-0.7-0.9-1.5-1.5-2.6-1.4c-0.8,0-1.5,0.2-1.7,1.1c-0.2,0.8,0.4,1.3,1,1.7c0.6,0.3,1.2,0.6,1.8,0.9c0.5,0.3,1.1,0.5,1.6,0.8
			c1,0.6,1.6,1.5,1.4,2.8c-0.2,1.2-0.9,1.9-1.9,2.3c-1.8,0.7-4,0.2-5.3-1c-0.3-0.3-0.5-0.6,0-1c0.5-0.4,0.6-0.1,0.9,0.2
			c0.7,0.8,1.4,1.4,2.6,1.4c0.8,0,1.5-0.3,1.7-1.1c0.3-0.8-0.2-1.4-0.8-1.8c-0.9-0.6-1.9-1-2.9-1.5c-0.9-0.5-1.6-1.2-1.6-2.3
			C196.2,190.2,197.6,188.9,200,189z"/>
		<path id="XMLID_142_" class="st13" d="M282.2,191.6c0,2.3,0,4.6,0,7c0,0.6-0.1,0.8-0.8,0.8c-1.3,0-1.3,0-1.3-1.3
			c0-4.2,0-8.5,0-12.7c0-0.3-0.2-0.7,0.2-0.9c0.5-0.2,1-0.6,1.6-0.5c0.4,0,0.2,0.4,0.2,0.6C282.2,186.9,282.2,189.3,282.2,191.6z"/>
		<path id="XMLID_141_" class="st14" d="M189.5,191.6c0,2.3,0,4.7,0,7c0,0.6-0.1,0.8-0.8,0.8c-1.3,0-1.3,0-1.3-1.3
			c0-4.2,0-8.5,0-12.7c0-0.7,1.1-1.6,1.8-1.4c0.4,0.1,0.2,0.4,0.2,0.6C189.6,186.9,189.5,189.3,189.5,191.6z"/>
		<path id="XMLID_140_" class="st15" d="M303.6,191.7c0,2.3,0,4.6,0,6.9c0,0.6-0.1,0.8-0.8,0.8c-1.3,0-1.3,0-1.3-1.3
			c0-4.2,0-8.5,0-12.7c0-0.7,1.1-1.6,1.8-1.4c0.4,0.1,0.2,0.4,0.2,0.6C303.6,187,303.6,189.3,303.6,191.7z"/>
		<path id="XMLID_139_" class="st14" d="M329.5,191c0.6-0.7,1-1.3,1.7-1.7c0.7-0.4,1.4-0.5,2.2,0c0.5,0.3,0.7,0.7,0.5,1.3
			c-0.1,0.5-0.5,0.6-1,0.7c-0.3,0-0.6,0-0.9-0.2c-1.3-0.5-2.5,0.4-2.5,1.8c0,1.9,0,3.8,0,5.8c0,0.6-0.1,0.9-0.8,0.8
			c-0.2,0-0.4,0-0.7,0c-0.5,0.1-0.6-0.2-0.6-0.7c0-3,0-5.9,0-8.9c0-0.5,0.2-0.7,0.7-0.7c1.3,0,1.3,0,1.4,1.4
			C329.5,190.6,329.5,190.7,329.5,191z"/>
		<path id="XMLID_138_" class="st16" d="M139.5,190.8c0.6-0.6,1.1-1.3,1.9-1.6c0.7-0.3,1.4-0.3,2.1,0.2c0.3,0.3,0.5,0.7,0.4,1.1
			c-0.1,0.5-0.5,0.6-0.9,0.7c-0.3,0-0.6,0-1-0.1c-1.3-0.5-2.6,0.3-2.6,1.8c0,1.9,0,3.8,0,5.7c0,0.7-0.1,1-0.8,0.9
			c-0.2,0-0.5,0-0.7,0c-0.3,0-0.5-0.1-0.5-0.5c0-3.1,0-6.2,0-9.3c0-0.3,0.1-0.5,0.4-0.4c0.1,0,0.2,0,0.3,0c1.3,0,1.3,0,1.3,1.2
			C139.3,190.5,139.3,190.7,139.5,190.8z"/>
		<path id="XMLID_137_" class="st6" d="M424.3,190.9c0.6-0.7,1.1-1.3,1.7-1.6c0.7-0.4,1.5-0.5,2.2,0c0.4,0.3,0.6,0.7,0.5,1.2
			c-0.1,0.5-0.5,0.7-1,0.7c-0.3,0-0.7,0-1-0.2c-1.2-0.5-2.5,0.4-2.5,1.7c0,1.9,0,3.9,0,5.8c0,0.7-0.2,0.8-0.8,0.8
			c-1.2,0-1.2,0-1.2-1.2c0-2.7,0-5.5,0-8.2c0-0.6,0.1-0.9,0.8-0.8c0.2,0,0.3,0,0.5,0c0.6-0.1,0.9,0.1,0.8,0.8
			C424.3,190.2,424.3,190.5,424.3,190.9z"/>
		<path id="XMLID_136_" class="st17" d="M277.7,194.2c0,1.5,0,3,0,4.5c0,0.5-0.1,0.7-0.7,0.7c-1.4,0-1.4,0-1.4-1.4
			c0-2.6,0-5.1,0-7.7c0-0.6,1.3-1.5,1.9-1.3c0.3,0.1,0.2,0.4,0.2,0.5C277.7,191.1,277.7,192.6,277.7,194.2z"/>
		<path id="XMLID_135_" class="st14" d="M194.1,194.2c0,1.5,0,3,0,4.5c0,0.5-0.1,0.7-0.7,0.7c-1.4,0-1.4,0-1.4-1.4
			c0-2.6,0-5.1,0-7.7c0-0.6,1.2-1.5,1.9-1.3c0.3,0.1,0.2,0.4,0.2,0.6C194.1,191.1,194.1,192.6,194.1,194.2z"/>
		<path id="XMLID_134_" class="st18" d="M348.1,194.2c0,1.5,0,3,0,4.5c0,0.5-0.1,0.7-0.6,0.7c-1.5,0-1.5,0-1.5-1.5
			c0-2.6,0-5.2,0-7.8c0-0.6,1.4-1.4,1.9-1.2c0.3,0.1,0.2,0.4,0.2,0.7C348.1,191.1,348.1,192.7,348.1,194.2z"/>
		<path id="XMLID_133_" class="st17" d="M432.2,194.1c0,1.5,0,3.1,0,4.6c0,0.5-0.1,0.7-0.7,0.7c-1.4,0-1.4,0-1.4-1.4
			c0-2.6,0-5.2,0-7.8c0-0.6,1.3-1.5,1.9-1.3c0.3,0.1,0.2,0.4,0.2,0.6C432.2,191,432.2,192.6,432.2,194.1z"/>
		<path id="XMLID_132_" class="st19" d="M276.6,184c0.6,0,1.2,0.5,1.2,1c0,0.6-0.5,1-1.2,1c-0.7,0-1.1-0.5-1.1-1
			C275.5,184.4,276,184,276.6,184z"/>
		<path id="XMLID_131_" class="st20" d="M431.2,184c0.6,0,1.2,0.5,1.2,1c0,0.6-0.5,1-1.2,1c-0.7,0-1.1-0.5-1.1-1
			C430,184.4,430.5,184,431.2,184z"/>
		<path id="XMLID_130_" class="st21" d="M193.1,186c-0.7,0-1.2-0.4-1.2-1c0-0.5,0.5-1,1.2-1c0.7,0,1.3,0.5,1.2,1
			C194.2,185.7,193.7,186,193.1,186z"/>
		<path id="XMLID_129_" class="st17" d="M348.2,185c0,0.6-0.6,1-1.3,1c-0.6,0-1-0.4-1.1-1c0-0.6,0.6-1,1.2-1
			C347.8,184,348.3,184.5,348.2,185z"/>
		<path id="XMLID_128_" class="st22" d="M480.4,198.6c0,0.6-0.5,1.1-1.1,1.1c-0.6,0-1.1-0.4-1.1-1c0-0.6,0.5-1.1,1.1-1.1
			C479.8,197.5,480.4,198,480.4,198.6z"/>
		<path id="XMLID_127_" class="st23" d="M187.9,103.1c-0.2,2.5-0.1,4.8-0.1,7c0,0.3,0,0.7,0,1c0,0.5,0.3,1.2,0,1.4
			c-0.5,0.2-1.2,0.1-1.8,0.1c-0.4,0-0.3-0.3-0.3-0.5c0.1-2.2,0.2-4.4,0.2-6.6c0-2,0-3.9-0.2-5.9c0-0.5,0.1-0.6,0.5-0.6
			c1.1-0.1,1.8,0.3,2.5,1.3c1.7,2.4,3.5,4.7,5.2,7.1c0.2,0.3,0.4,0.6,0.8,1c0-0.5,0.1-0.8,0.1-1.1c0-2.6,0.1-5.1-0.1-7.7
			c0-0.4,0-0.5,0.4-0.4c0.2,0,0.4,0.1,0.7,0.1c1.2,0,1.2,0,1.1,1.2c-0.2,3.9-0.4,7.9,0,11.8c0,0.4,0,0.5-0.5,0.5
			c-1.2,0.2-1.9-0.4-2.6-1.3c-1.7-2.5-3.6-5-5.4-7.4C188.3,103.7,188.1,103.5,187.9,103.1z"/>
		<path id="XMLID_126_" class="st23" d="M182.7,105.7c0,4-3,7.2-6.7,7.2c-3.9,0-6.7-3-6.8-7.1c0-3.7,3-6.9,6.7-6.9
			C179.7,98.8,182.7,101.9,182.7,105.7z"/>
		<path id="XMLID_125_" class="st23" d="M156,112.7c-0.4,0-0.7-0.1-1,0c-1.6,0.3-2.6-0.4-3.3-1.8c-0.7-1.2-1.5-2.3-2.4-3.4
			c-0.4-0.5-0.4-1.1-0.4-1.7c0-0.4,0.3-0.3,0.5-0.3c0.9-0.1,1.7-0.5,2.1-1.4c0.7-1.7-0.2-3.2-2-3.4c-1.5-0.1-1.5-0.1-1.5,1.3
			c0,3.3,0,6.6,0.2,9.9c0,0.6,0,0.9-0.7,0.8c-0.6-0.1-1.5,0.3-1.9-0.2c-0.3-0.4,0-1.2,0-1.8c0.2-3.7,0.1-7.3-0.1-11
			c0-0.6,0.1-0.8,0.7-0.7c1.4,0.2,2.8-0.2,4.2,0.1c0.3,0,0.6,0.1,0.9,0.2c1.8,0.5,2.7,1.5,2.8,3.2c0.1,1.8-0.7,3.2-2.3,3.8
			c-0.6,0.2-0.4,0.4-0.2,0.7c1.3,1.7,2.6,3.4,3.9,5.2C155.6,112.2,155.8,112.4,156,112.7z"/>
		<path id="XMLID_124_" class="st23" d="M142.5,112.7c-0.9,0-1.6,0-2.4,0c-0.3,0-0.4-0.2-0.5-0.4c-0.3-1-0.6-1.9-0.9-2.9
			c-0.1-0.5-0.4-0.6-0.8-0.6c-1.2,0-2.4,0-3.6,0c-0.4,0-0.6,0.2-0.7,0.6c-0.3,1-0.6,1.9-0.9,2.9c-0.1,0.3-0.2,0.4-0.6,0.4
			c-0.6,0-1.2,0-1.9,0c0.3-0.7,0.5-1.3,0.8-1.9c1.4-3.7,2.9-7.4,4-11.3c0.1-0.4,0.3-0.5,0.7-0.5c1.8,0,1.8,0,2.4,1.7
			c1.3,3.8,2.7,7.5,4.2,11.2C142.4,112.1,142.4,112.4,142.5,112.7z"/>
		<path id="XMLID_123_" class="st23" d="M108.3,106.7c0.2-2.4,0.2-4.9,0-7.3c0-0.5,0.1-0.6,0.5-0.6c1.7,0.1,3.4-0.2,5.1,0.1
			c1.8,0.3,3.1,1.4,3.4,2.9c0.4,1.8-0.3,3.5-1.9,4.5c-1,0.6-2,0.9-3.2,1c-0.3,0-0.6,0-0.5-0.4c0.1-0.4-0.5-1,0.3-1.1
			c0.4-0.1,0.9-0.2,1.3-0.3c1.2-0.5,1.9-1.7,1.7-3c-0.2-1.1-1.1-2-2.4-2.1c-1.9-0.2-2-0.2-1.9,1.7c0.1,3.3,0,6.6,0.2,9.8
			c0,0.6-0.1,0.7-0.7,0.6c-0.5-0.1-1,0-1.5,0c-0.4,0.1-0.5-0.1-0.5-0.5C108.3,110.3,108.3,108.5,108.3,106.7z"/>
		<path id="XMLID_122_" class="st23" d="M124,112.7c-1,0-2,0-3,0c-0.5,0-0.6,0-0.6-0.5c0.3-4.2,0.2-8.4,0-12.6
			c0-0.5,0.1-0.7,0.7-0.7c2,0.2,3.9,0.2,5.9,0c0.5,0,0.8,0.1,0.7,0.6c0,0.2,0,0.4,0,0.7c0.1,0.5-0.1,0.7-0.6,0.6
			c-1.1-0.1-2.3-0.1-3.4-0.2c-0.5,0-0.7,0.1-0.7,0.6c0.1,0.9,0,1.9,0,2.8c0,0.5,0.2,0.6,0.6,0.6c1.1,0,2.2,0,3.4-0.2
			c0.4-0.1,0.5,0,0.5,0.4c0.1,1.5,0.1,1.5-1.4,1.4c-0.9,0-1.7-0.1-2.6,0c-0.4,0-0.5,0.2-0.5,0.5c0,1.2,0,2.4,0,3.5
			c0,0.5,0.2,0.6,0.6,0.6c1.2-0.1,2.4,0,3.6-0.1c0.6,0,0.7,0.2,0.7,0.7c-0.1,1.2,0,1.2-1.3,1.2C125.7,112.6,124.8,112.7,124,112.7
			C124,112.7,124,112.7,124,112.7z"/>
		<path id="XMLID_121_" class="st23" d="M165.1,102.1c-0.2-0.3-0.4-0.6-0.6-0.8c-0.6-0.6-1.3-0.8-2.1-0.7c-0.6,0.1-1.1,0.4-1.3,1
			c-0.2,0.6,0,1.1,0.4,1.5c0.9,0.9,2,1.5,3.1,2.2c0.9,0.6,1.6,1.3,1.9,2.4c0.7,3-1.5,5.4-4.6,5.1c-1.2-0.1-2.3-0.6-3.3-1.2
			c-0.3-0.2-0.5-0.4-0.2-0.8c0.3-0.5,0.5-1,0.7-1.6c0.7,0.7,1.4,1.2,2.3,1.5c1.1,0.3,2.1,0.1,2.6-0.7c0.5-0.8,0.3-1.8-0.6-2.6
			c-0.8-0.7-1.7-1.2-2.5-1.9c-0.9-0.6-1.7-1.3-2-2.4c-0.4-1.7,0.4-3.3,2.1-4c1.8-0.7,3.5-0.3,5.2,0.7c0.3,0.2,0.2,0.3,0.1,0.5
			C165.7,100.9,165.4,101.5,165.1,102.1z"/>
		<path id="XMLID_120_" class="st0" d="M310.4,168.1c-0.4,0-0.6-0.1-0.5-0.6c0.2-1.3,0.3-2.7,0.5-4c0.1-0.6,0.2-1.3,0-1.9
			c-0.4-1.5-2.3-2.5-3.8-2c-0.6,0.2-0.7,0.8-1.1,1.4c-0.1-1.6-1.1-1.7-2.3-1.8c-1.1-0.1-2.2-0.4-2.7,1.4c-0.3-2.1-1.8-1.8-3-1.8
			c-1.3-0.1-1.1,0-1.1-1.2c0-2.6,0-5.1,0-7.7c0-2.1-1.8-3.4-3.7-2.8c-1.2,0.4-1.9,1.4-1.9,2.9c0,5.6,0,11.2,0,16.8
			c0,0.3,0,0.6-0.2,0.9c-0.6-0.9-1.2-1.8-1.7-2.7c-1-1.5-2.4-2-3.8-1.2c-1.4,0.7-1.9,2.2-1.2,3.8c0.1,0.1,0.2,0.3,0,0.4
			c-2.2-0.4-3.4-1.9-3.4-4.1c0-6.7,0-13.4,0-20c0-2.6,1.7-4.2,4.3-4.3c8.3,0,16.7,0,25,0c2.5,0,4.3,1.8,4.3,4.3c0,6.7,0,13.3,0,20
			C313.9,166.2,312.6,167.6,310.4,168.1z"/>
		<path id="XMLID_119_" class="st0" d="M366.1,202.7c-1,0-1.9-0.1-2.8-0.5c-1.2-0.6-1.3-1.9-0.3-2.7c0.2-0.2,0.4-0.1,0.6-0.1
			c1.6,0.2,3.2,0.2,4.8,0.3c1.1,0,1.8,0.4,1.9,1.1c0.1,0.6-0.4,1.2-1.5,1.6C368,202.6,367.1,202.7,366.1,202.7z"/>
		<path id="XMLID_118_" class="st0" d="M367.9,192.9c0,0.7-0.2,1.4-0.7,1.9c-1,1-2.3,0.9-3-0.2c-0.9-1.3-1-2.7-0.3-4
			c0.5-1.2,1.9-1.4,3-0.5C367.5,190.7,367.9,191.8,367.9,192.9z"/>
		<path id="XMLID_117_" class="st0" d="M401.6,194.5c0-0.5,0-1,0-1.5c0-1.3,0.9-2.3,2.2-2.6c1.2-0.2,2.1,0.3,2.7,1.5
			c0.7,1.7,0.7,3.4,0.1,5c-0.7,1.7-2.3,2.2-3.8,1.4c-0.7-0.4-1.1-1-1.1-1.9C401.6,195.9,401.6,195.2,401.6,194.5z"/>
		<path id="XMLID_116_" class="st0" d="M266.1,194.6c0-0.6,0-1.1,0-1.7c0-1.7,1.7-2.8,3.3-2.2c1,0.4,1.6,1.1,1.9,2.1
			c0.5,1.7,0.2,3.3-0.8,4.8c-1,1.3-2.9,1.5-4.1,0.3c-0.2-0.2-0.3-0.5-0.3-0.7C266.1,196.3,266.1,195.5,266.1,194.6z"/>
		<path id="XMLID_115_" class="st0" d="M224,194.6c0,0.6,0,1.1,0,1.7c0,1.4-1.2,2.3-2.6,2.1c-0.8-0.2-1.4-0.6-1.9-1.3
			c-1.1-1.9-1.3-3.8-0.3-5.8c0.6-1.2,1.7-1.7,2.7-1.5c1.2,0.3,2,1.3,2,2.6C224.1,193.1,224,193.9,224,194.6z"/>
		<path id="XMLID_114_" class="st0" d="M116.6,194.5c0-0.5,0-1,0-1.6c0-1.2,0.9-2.2,2.2-2.5c1.1-0.3,2.1,0.2,2.6,1.4
			c0.8,1.7,0.9,3.5,0.1,5.3c-0.7,1.6-2.2,2.1-3.7,1.3c-0.8-0.4-1.3-1-1.2-2C116.6,195.8,116.6,195.2,116.6,194.5z"/>
		<path id="XMLID_113_" class="st24" d="M98.2,194c0.8-1.7,1.6-3.3,2.4-5.1c0.8,1.8,1.6,3.4,2.3,5.1C101.3,194,99.8,194,98.2,194z"
			/>
		<path id="XMLID_112_" class="st25" d="M182.7,195.5c0,0.2,0,0.3,0,0.5c0,1.4-0.7,2.2-2.1,2.3c-0.7,0.1-1.2-0.2-1.5-0.7
			c-0.4-0.6-0.5-1.2-0.1-1.8c0.8-1.3,2.2-1.7,3.5-2.2c0.3-0.1,0.3,0.2,0.3,0.4C182.7,194.4,182.7,195,182.7,195.5z"/>
		<path id="XMLID_111_" class="st0" d="M259.9,194.8c0,0.9-0.2,1.8-0.6,2.5c-1,1.7-2.9,2-4.2,0.5c-1.4-1.5-1.8-4.7-0.9-6.5
			c0.5-0.9,1.1-1.6,2.1-1.6c1.2,0,2.1,0.5,2.7,1.5C259.7,192.4,259.8,193.6,259.9,194.8z"/>
		<path id="XMLID_110_" class="st0" d="M162.2,194.8c0,0.9-0.1,1.7-0.6,2.5c-1,1.7-3,2-4.2,0.4c-1.5-1.9-1.8-4-0.9-6.2
			c0.4-1,1-1.7,2.2-1.8c1.2-0.1,2.1,0.5,2.7,1.5C162.1,192.3,162.2,193.6,162.2,194.8z"/>
		<path id="XMLID_109_" class="st24" d="M322.7,195.3c0,0.2,0,0.4,0,0.7c0,1.3-1,2.3-2.3,2.3c-0.7,0-1.1-0.3-1.5-0.9
			c-0.3-0.6-0.4-1.2,0.1-1.8c0.9-1.1,2.1-1.6,3.4-2.1c0.3-0.1,0.3,0.1,0.3,0.3C322.7,194.4,322.7,194.9,322.7,195.3z"/>
		<path id="XMLID_108_" class="st24" d="M209.6,192.4c-0.7,0-1.3,0-2,0c-0.3,0-0.4,0-0.4-0.4c0.1-1.1,1.2-2.2,2.3-2.3
			c1.2-0.1,2.4,0.9,2.6,2.1c0.1,0.4,0,0.6-0.5,0.6C211,192.4,210.3,192.4,209.6,192.4z"/>
		<path id="XMLID_107_" class="st24" d="M288.6,192.4c-0.6,0-1.3,0-1.9,0c-0.4,0-0.6-0.1-0.5-0.5c0.2-1.1,1.3-2.1,2.4-2.1
			c1.2,0,2.2,1,2.5,2.1c0.1,0.4,0,0.5-0.4,0.5C290,192.4,289.3,192.4,288.6,192.4z"/>
		<path id="XMLID_106_" class="st24" d="M383,192.4c-0.6,0-1.3,0-1.9,0c-0.5,0-0.6-0.1-0.5-0.6c0.2-1.1,1.3-2.1,2.3-2.1
			c1.2,0,2.3,1,2.5,2.2c0.1,0.4,0,0.5-0.4,0.5C384.3,192.4,383.7,192.4,383,192.4z"/>
		<path id="XMLID_105_" class="st24" d="M130,192.4c-0.6,0-1.3,0-1.9,0c-0.5,0-0.5-0.2-0.4-0.6c0.3-1.1,1.3-2.1,2.3-2.1
			c1.1,0,2.2,0.9,2.5,2c0.1,0.5,0,0.7-0.5,0.7C131.3,192.4,130.7,192.4,130,192.4z"/>
		<path id="XMLID_104_" class="st24" d="M471.5,192.4c-0.7,0-1.3,0-2,0c-0.5,0-0.5-0.2-0.4-0.6c0.3-1.1,1.3-2,2.3-2.1
			c1.1,0,2.2,0.8,2.5,1.9c0.1,0.5,0.1,0.8-0.5,0.7C472.7,192.4,472.1,192.4,471.5,192.4z"/>
		<path id="XMLID_103_" class="st24" d="M415,192.4c-0.7,0-1.3,0-2,0c-0.4,0-0.5-0.1-0.4-0.5c0.2-1.1,1.2-2.1,2.3-2.2
			c1.1-0.1,2.2,0.8,2.6,1.9c0.1,0.5,0.2,0.8-0.5,0.7C416.3,192.4,415.7,192.4,415,192.4z"/>
		<path id="XMLID_102_" class="st24" d="M438.6,192.4c-0.7,0-1.4,0-2.1,0c-0.4,0-0.5-0.1-0.4-0.5c0.2-1.1,1.2-2.1,2.3-2.2
			c1.1-0.1,2.2,0.8,2.6,1.9c0.1,0.5,0.2,0.8-0.5,0.7C439.9,192.4,439.2,192.4,438.6,192.4z"/>
		<path id="XMLID_101_" class="st24" d="M310,192.4c-0.7,0-1.3,0-2,0c-0.4,0-0.5-0.1-0.4-0.5c0.2-1.1,1.2-2.1,2.3-2.2
			c1.1-0.1,2.3,0.8,2.6,2c0.1,0.5,0.1,0.7-0.5,0.7C311.3,192.4,310.7,192.4,310,192.4z"/>
		<path id="XMLID_100_" class="st3" d="M171.8,106.1c0-1.5,0.3-2.6,0.8-3.5c1.5-2.5,4.8-2.7,6.5-0.3c1.5,2.1,1.4,5.6-0.3,7.6
			c-1.6,1.8-4.3,1.7-5.8-0.2C172.1,108.4,171.8,107.1,171.8,106.1z"/>
		<path id="XMLID_99_" class="st26" d="M136,101.8c0.6,1.7,1.1,3.2,1.7,4.7c0.1,0.3,0,0.4-0.3,0.4c-0.9,0.1-1.8,0.1-2.7,0
			c-0.3,0-0.4-0.1-0.3-0.4C135,105,135.5,103.5,136,101.8z"/>
	</g>
</g>
</svg>
