<?xml version="1.0" encoding="utf-8"?>
<!-- Generator: Adobe Illustrator 19.0.0, SVG Export Plug-In . SVG Version: 6.00 Build 0)  -->
<svg version="1.1" id="Layer_1" xmlns="http://www.w3.org/2000/svg" xmlns:xlink="http://www.w3.org/1999/xlink" x="0px" y="0px"
	 viewBox="0 0 579 291" style="enable-background:new 0 0 579 291;" xml:space="preserve">
<style type="text/css">
	.st0{fill:#919395;}
	.st1{fill:#3B393B;}
	.st2{fill:#FFFEFE;}
	.st3{fill:#FFFFFF;}
	.st4{fill:#F3F4F4;}
	.st5{fill:#939597;}
	.st6{fill:#939598;}
	.st7{fill:#929597;}
	.st8{fill:#3D3C3E;}
	.st9{fill:#3D3D3E;}
	.st10{fill:#FEFEFE;}
</style>
<g id="XMLID_9_">
	<g id="XMLID_62_">
		<path id="XMLID_107_" class="st0" d="M146.7,200.1c0-23.7,0-47.3,0-71c0.3-2.7,1.9-4.4,4.2-5.5c0.8-0.4,1.7-0.6,2.6-0.6
			c0.3,0,0.6,0,0.8,0c86.2,0,172.3,0,258.5,0c2.2,0,4.1,0.6,5.7,2.1c1.5,1.4,2.1,3,2.1,5c0,18.3,0,36.7,0,55c0,4.6,0,9.2,0,13.8
			c0,4.1-2.5,6.9-6.6,7.5c-0.8,0.1-1.6,0.2-2.4,0.2c-85.4,0-170.7,0-256.1,0c-0.9,0-1.8-0.1-2.6-0.2c-2.2-0.3-3.8-1.4-5.2-3.1
			C147,202.3,146.8,201.2,146.7,200.1z"/>
		<path id="XMLID_106_" class="st1" d="M169.4,51c76.1,0,152.3,0,228.4,0c0.3,0.3,0.3,0.6,0.3,0.9c0,0.3,0,0.7,0,1
			c0,21.4,0,42.8,0,64.2c0,2.2,0,2.2-2.2,2.2c-74.9,0-149.8,0-224.7,0c-2.2,0-2.2,0-2.2-2.2c0-21.5,0-42.9,0-64.4
			C169,52.1,168.9,51.5,169.4,51z"/>
		<path id="XMLID_105_" class="st2" d="M169.4,51c0,22.4,0,44.7,0,67.1c0,0.8,0.2,1,1,1c75.5,0,151,0,226.5,0c0.8,0,1-0.2,1-1
			c0-22.4,0-44.7,0-67.1c7.4,0,14.8,0,22.3,0c0.5,0,0.6,0.1,0.6,0.6c0,62.8,0,125.6,0,188.4c0,0.7-0.3,0.6-0.7,0.6
			c-90.8,0-181.7,0-272.5,0c-0.6,0-0.8-0.2-0.8-0.8c0-13.2,0-26.4,0-39.6c0.4,1.5,1,2.8,2.1,3.9c1.5,1.4,3.3,2.1,5.3,2.1
			c0.2,0,0.3,0,0.5,0c86,0,171.9,0,257.9,0c2.8,0,5.2-0.9,6.8-3.3c0.8-1.2,1.2-2.4,1.2-3.8c0-22.9,0-45.7,0-68.6c0-3.8-3.1-7-7-7.1
			c-0.3,0-0.7,0-1,0c-85.9,0-171.9,0-257.8,0c-4.2,0-6.5,1.6-7.9,5.6c0,0.1-0.1,0.1-0.2,0.2c0-25.8,0-51.6,0-77.4
			c0-0.6,0.1-0.8,0.8-0.8C154.7,51,162,51,169.4,51z"/>
		<path id="XMLID_104_" class="st3" d="M166.8,162.2c0-6.8,0-13.6,0-20.4c0-0.7,0.2-1,0.9-1.1c4.1-0.5,8.1-0.8,12.2-0.7
			c3.5,0.1,7,0.5,10.3,1.7c6,2.2,9.9,6.4,11.5,12.6c1.5,5.7,1.1,11.3-1,16.8c-2.6,6.5-7.5,10.2-14.1,11.9c-4.2,1.1-8.4,1.1-12.7,1
			c-2.1,0-4.1-0.2-6.2-0.3c-0.7-0.1-0.9-0.3-0.9-0.9C166.8,175.8,166.8,169,166.8,162.2z"/>
		<path id="XMLID_103_" class="st3" d="M246.3,156.9c0.2-1.2,0.2-2.4,0.2-3.6c0-0.6,0.2-0.9,0.8-0.9c1.2,0.1,2.5,0,3.7,0
			c0.3,0,0.6,0,0.5,0.5c-0.5,7.1-0.2,14.3-0.2,21.4c0,3.1,0.1,6.1-0.2,9.2c-0.4,3.4-1.2,6.7-3.7,9.3c-2.2,2.3-5,3.5-8.1,4
			c-4.2,0.7-8.3,0.4-12.3-1.2c-2-0.8-2-0.8-1.4-2.9c0.2-0.6,0.4-1.3,0.6-1.9c0.1-0.5,0.3-0.6,0.8-0.3c2.6,1.5,5.5,2.2,8.5,2.2
			c5.6,0,9.4-2.6,10-9.1c0.2-1.7,0-3.4,0-5c-0.1,0-0.1,0-0.1,0c-3.5,5.8-12.6,6.5-17.7,2.2c-3.2-2.7-4.8-6.1-5.2-10.2
			c-0.5-4.6,0.2-9,2.9-12.9c3.2-4.7,9-6.9,14.5-5.5c2.4,0.6,4.3,2,5.8,4.1C245.9,156.4,246,156.7,246.3,156.9z"/>
		<path id="XMLID_102_" class="st3" d="M295,184.2c-3.5,0.1-6.9-0.4-10.1-1.8c-4.7-2.1-8-5.5-9.8-10.2c-2.4-6.2-2.5-12.6-0.3-18.8
			c2.7-7.3,8.1-11.7,15.6-13.3c4.8-1,9.6-0.8,14.4,0.8c0.1,0,0.1,0,0.2,0c1.3,0.5,1.3,0.5,0.9,1.8c-0.3,0.9-0.6,1.7-0.8,2.6
			c-0.1,0.6-0.3,0.7-0.9,0.5c-4.8-1.9-9.8-2.1-14.7-0.4c-4.1,1.4-7,4.2-8.6,8.3c-2.2,5.4-2.2,11-0.1,16.5c2.1,5.3,6.2,8.3,11.7,9.1
			c4.1,0.7,8.2,0.2,12.1-1.3c0.5-0.2,0.6-0.1,0.7,0.3c0.3,1.1,0.5,2.2,0.8,3.3c0.2,0.6,0,0.8-0.5,1c-2.6,1-5.3,1.4-8,1.6
			C296.7,184.3,295.9,184.2,295,184.2z"/>
		<path id="XMLID_101_" class="st3" d="M344.7,179.6c-0.5,0.6-0.8,1-1.3,1.4c-3.6,3.3-7.8,4.1-12.4,2.6c-3.9-1.3-6.1-5.4-5.5-9.6
			c0.6-4.1,3-6.7,6.7-8.3c3.1-1.4,6.5-1.8,9.8-1.9c0.4,0,0.7-0.1,1.1-0.1c1.1-0.1,1.1,0,1.1-1.1c-0.1-4.2-2.6-6.7-6.8-6.7
			c-2.8,0-5.5,0.6-8,2c-0.5,0.3-0.6,0.1-0.7-0.3c-0.3-0.9-0.5-1.7-0.9-2.6c-0.2-0.5-0.1-0.8,0.4-1c2.9-1.5,6-2.2,9.2-2.3
			c2.4-0.1,4.7,0.2,6.8,1.3c3.3,1.7,4.7,4.5,5.3,8c0.2,1.1,0.2,2.3,0.2,3.5c0,5.2-0.1,10.3,0.1,15.5c0,1,0.2,2,0.3,3
			c0.1,0.5,0,0.7-0.6,0.7c-1.3,0-2.6,0-3.9,0c-0.4,0-0.6-0.1-0.7-0.6C345,181.9,344.8,180.9,344.7,179.6z"/>
		<path id="XMLID_100_" class="st3" d="M365.8,184.3c-3.1,0-5.8-0.6-8.4-1.8c-0.5-0.2-0.6-0.5-0.4-1c0.3-0.9,0.7-1.9,0.9-2.8
			c0.2-0.6,0.3-0.8,1-0.4c1.9,1,4,1.6,6.1,1.8c1.4,0.1,2.8,0,4-0.6c3-1.3,3.6-5.3,1.1-7.5c-1.2-1-2.6-1.6-4-2.1
			c-2-0.8-4-1.7-5.6-3.1c-4.4-3.7-3.3-9.8,0.3-12.6c2.1-1.7,4.5-2.3,7.2-2.4c2.6-0.1,5,0.3,7.4,1.5c0.5,0.3,0.7,0.5,0.5,1.1
			c-0.4,0.9-0.7,1.9-0.9,2.8c-0.1,0.5-0.3,0.6-0.8,0.3c-1.9-1-3.9-1.6-6.1-1.5c-0.9,0-1.8,0.2-2.6,0.6c-2.7,1.4-3,5-0.6,6.8
			c1.1,0.8,2.3,1.3,3.5,1.8c1.8,0.7,3.6,1.4,5.2,2.5c2.9,2.1,4.1,4.9,3.7,8.4c-0.4,3.3-2.2,5.6-5.2,6.9
			C369.9,184,367.8,184.4,365.8,184.3z"/>
		<path id="XMLID_99_" class="st3" d="M391.3,184.3c-3.1,0-5.8-0.6-8.4-1.8c-0.5-0.3-0.7-0.5-0.4-1.1c0.4-1,0.6-1.9,0.9-2.9
			c0.1-0.5,0.3-0.6,0.8-0.4c2,1,4.1,1.7,6.3,1.8c1.4,0.1,2.9,0,4.2-0.7c2.7-1.4,3.3-5.1,1.1-7.2c-1.2-1.1-2.7-1.7-4.2-2.3
			c-1.8-0.7-3.6-1.5-5.1-2.6c-5.1-3.8-3.8-10.3,0-13.1c1.6-1.2,3.4-1.9,5.4-2.2c3.1-0.4,6.2,0,9,1.4c0.5,0.3,0.7,0.5,0.4,1.1
			c-0.4,0.9-0.7,1.9-1,2.8c-0.2,0.6-0.4,0.5-0.8,0.3c-1.9-1-4-1.6-6.2-1.5c-2.2,0.1-4,1.2-4.5,3c-0.6,1.7,0,3.4,1.4,4.5
			c1.3,1,2.9,1.5,4.4,2.1c2,0.8,3.9,1.7,5.5,3.2c4.1,4,3.2,11-1.8,13.9C396,183.9,393.6,184.3,391.3,184.3z"/>
		<path id="XMLID_98_" class="st3" d="M312.9,160.6c0-7.2,0-14.4,0-21.6c0-1.4-0.2-1.1,1.2-1.2c1.3,0,2.5,0,3.8,0
			c0.6,0,0.7,0.2,0.7,0.7c0,3,0,6.1,0,9.1c0,11.6,0,23.3,0,34.9c0,0.9-0.3,1.1-1.1,1c-1.3-0.1-2.6-0.1-3.9,0c-0.8,0-0.8-0.3-0.8-0.9
			C312.9,175.4,312.9,168,312.9,160.6z"/>
		<path id="XMLID_97_" class="st3" d="M209.6,168c0-4.9,0-9.8,0-14.7c0-0.6,0.1-0.9,0.8-0.8c1.4,0.1,2.9,0,4.3,0
			c0.5,0,0.7,0.2,0.7,0.7c0,10,0,19.9,0,29.9c0,0.6-0.2,0.7-0.7,0.7c-1.4,0-2.8,0-4.2,0c-0.7,0-0.8-0.2-0.8-0.8
			C209.6,177.9,209.6,172.9,209.6,168z"/>
		<path id="XMLID_96_" class="st3" d="M266.4,168c0,4.9,0,9.9,0,14.8c0,0.6-0.1,0.8-0.8,0.8c-1.3-0.1-2.7-0.1-4.1,0
			c-0.7,0-0.9-0.2-0.9-0.9c0-9.1,0-18.2,0-27.4c0-0.7,0-1.4,0-2.1c0-0.6,0.1-0.8,0.7-0.8c1.4,0,2.8,0,4.2,0c0.7,0,0.8,0.2,0.8,0.8
			C266.4,158.1,266.4,163.1,266.4,168z"/>
		<path id="XMLID_95_" class="st3" d="M216.1,143.1c0,2.2-1.6,3.7-3.7,3.7c-2.1,0-3.6-1.7-3.6-3.8c0-2.1,1.7-3.6,3.7-3.6
			C214.6,139.4,216.1,141,216.1,143.1z"/>
		<path id="XMLID_94_" class="st3" d="M263.5,139.4c2.1,0,3.7,1.6,3.7,3.6c0,2.1-1.6,3.7-3.7,3.7c-2,0.1-3.6-1.5-3.6-3.7
			C259.8,141,261.4,139.4,263.5,139.4z"/>
		<path id="XMLID_93_" class="st4" d="M352.6,79.7c0,1.5,0,3.1,0,4.6c0,4.5-0.1,9,0.2,13.6c0,0.5-0.2,0.5-0.5,0.5
			c-1.1,0-2.3,0-3.4,0c-0.5,0-0.3-0.3-0.3-0.5c0.2-3,0.3-6.1,0.3-9.1c0-5.5,0.2-11-0.3-16.4c-0.1-0.6,0-0.8,0.7-0.8
			c0.9,0.1,1.7,0.1,2.6,0c0.6-0.1,0.9,0.2,1.2,0.6c4.2,5.7,8.4,11.3,12.7,17c0.2,0.2,0.3,0.4,0.5,0.6c0.1,0,0.2,0,0.2,0
			c0-1.8,0-3.6,0-5.3c0-4.1,0.1-8.3-0.3-12.4c0-0.4,0.1-0.5,0.5-0.4c1.1,0.3,2.3,0.3,3.4,0c0.4-0.1,0.5,0,0.5,0.4
			c-0.5,5.5-0.6,11.1-0.5,16.6c0,3.1,0,6.3,0.5,9.4c0.1,0.4-0.1,0.5-0.4,0.4c-1-0.1-2-0.1-3,0c-0.5,0.1-0.8-0.1-1.1-0.5
			c-4.2-6-8.5-11.8-12.9-17.7c-0.1-0.1-0.2-0.3-0.3-0.4C352.8,79.7,352.7,79.7,352.6,79.7z"/>
		<path id="XMLID_92_" class="st4" d="M329.5,98.7c-5.8,0-10.5-3.3-12.4-8.6c-2.4-6.6-0.1-13.4,5.6-16.9c7.7-4.7,17.9-0.2,19.6,8.7
			c1.4,7.2-2.7,14.4-9.4,16.4C331.8,98.6,330.6,98.7,329.5,98.7z"/>
		<path id="XMLID_91_" class="st4" d="M280.8,86c1.6,2.1,3.2,4.2,4.7,6.2c1.5,2,3.1,4.1,4.7,6.2c-2-0.2-3.8-0.2-5.7-0.1
			c-0.3,0-0.5-0.2-0.6-0.4c-2.4-3.6-4.8-7.1-7.4-10.6c-0.6-0.8-0.3-2-0.2-3.1c0-0.3,0.6-0.2,0.9-0.2c1.7-0.1,3.1-0.8,3.9-2.3
			c1.9-3.5-0.2-6.9-4.4-7.1c-0.6,0-1.2,0-1.8,0c-0.5,0-0.6,0.2-0.6,0.7c0,6.2,0.1,12.3,0.3,18.5c0,1.3,0.1,2.6,0.1,4
			c0,0.5-0.1,0.5-0.6,0.5c-1.4,0-2.8,0-4.1,0c-0.5,0-0.5-0.2-0.5-0.6c0.6-8.2,0.4-16.4,0.1-24.6c0-0.6-0.4-1.4,0-1.7
			c0.3-0.3,1.1,0,1.7,0c2.5,0.1,5-0.3,7.5,0c2.1,0.2,4,0.8,5.6,2.1c3.2,2.7,2.8,10.1-2.8,12.1C281.4,85.8,281.1,85.9,280.8,86z"/>
		<path id="XMLID_90_" class="st4" d="M239.6,98.4c0.7-1.8,1.4-3.5,2-5.2c2.7-7,5.4-14,7.5-21.2c0.1-0.4,0.3-0.5,0.7-0.5
			c1.2,0.1,2.4,0.2,3.5,0c0.4-0.1,0.6,0.1,0.7,0.5c2.8,8.7,6.1,17.1,9.5,25.6c0.1,0.2,0.3,0.4,0.2,0.7c-1.6,0-3.3-0.1-4.9,0
			c-0.4,0-0.4-0.3-0.5-0.6c-0.7-2.1-1.4-4.2-2.1-6.3c-0.2-0.5-0.4-0.8-1-0.8c-2.6-0.1-5.3-0.1-7.9,0c-0.6,0-0.8,0.2-1,0.7
			c-0.6,2.1-1.3,4.2-1.8,6.2c-0.1,0.5-0.3,0.7-0.9,0.7C242.3,98.2,241,98.3,239.6,98.4z"/>
		<path id="XMLID_89_" class="st4" d="M196.5,98.4c0.4-4.6,0.4-9.1,0.4-13.6c0-4.3,0.1-8.5-0.4-12.8c0-0.4-0.1-0.7,0.5-0.6
			c3,0.2,6.1-0.1,9.1,0.1c2.3,0.1,4.4,0.8,6.1,2.4c3,2.8,3,7.8,0.1,10.9c-2.3,2.4-5.2,3.4-8.5,3.5c-0.4,0-0.6-0.1-0.6-0.6
			c0-0.1,0-0.1,0-0.2c0-0.7-0.2-1.4,0.1-2c0.3-0.6,1.2-0.3,1.8-0.5c3.4-0.8,5.2-3.3,4.6-6.4c-0.4-2.4-2.6-4-5.4-4.1
			c-0.8,0-1.7,0-2.5,0c-0.6,0-0.6,0.2-0.6,0.7c0,7.6,0,15.1,0.5,22.6c0,0.6,0,0.8-0.7,0.6c-0.7-0.2-1.5-0.2-2.3-0.2
			C198.1,98.2,197.4,98.3,196.5,98.4z"/>
		<path id="XMLID_88_" class="st4" d="M225.3,71.4c2.9,0.2,5.8,0.2,8.7,0c0.5,0,0.6,0.1,0.6,0.5c0,0.8,0,1.7,0,2.5
			c0,0.6-0.1,0.8-0.8,0.7c-2.6-0.2-5.1-0.4-7.7-0.4c-0.7,0-0.8,0.2-0.8,0.8c0,2.1,0,4.2,0,6.3c0,0.5,0.1,0.7,0.7,0.8
			c2.5,0.2,5,0,7.4-0.3c0.6-0.1,0.7,0,0.7,0.6c0,0.8,0,1.7,0,2.5c0,0.5-0.1,0.7-0.7,0.7c-2.4-0.2-4.9-0.2-7.4-0.2
			c-0.7,0-0.8,0.2-0.8,0.8c0,2.6,0,5.2-0.1,7.8c0,0.5,0.2,0.6,0.6,0.6c2.7,0,5.5-0.1,8.2-0.3c0.7,0,0.9,0.1,0.8,0.8
			c-0.1,0.8-0.1,1.6-0.1,2.4c0,0.5-0.2,0.6-0.7,0.6c-2.2-0.2-4.5-0.3-6.8-0.3c-2.1,0-4.1,0-6.2,0.3c-0.5,0.1-0.7-0.1-0.7-0.6
			c0.5-5.8,0.4-11.6,0.3-17.4c0-2.7-0.2-5.5-0.3-8.2c0-0.7,0.1-0.9,0.8-0.8C222.5,71.5,223.9,71.4,225.3,71.4z"/>
		<path id="XMLID_87_" class="st4" d="M308.2,77.6c-1.2-1.5-2.5-2.6-4.4-2.9c-2-0.3-3.6,0.9-3.9,2.7c-0.1,0.8,0.2,1.4,0.7,2
			c1.2,1.3,2.7,2.2,4.2,3.2c1.5,0.9,3,1.8,4.1,3.1c2.2,2.5,2.3,5.4,1.2,8.4c-1.1,2.9-3.6,4.2-6.6,4.5c-3.2,0.3-6.1-0.7-8.8-2.4
			c-0.5-0.3-0.6-0.5-0.3-1c0.6-1.1,1-2.2,1.4-3.4c1.2,1.2,2.5,2.2,4,2.8c1.1,0.4,2.1,0.7,3.3,0.5c2.5-0.4,3.7-3.1,2.4-5.3
			c-0.8-1.4-2.1-2.3-3.4-3.2c-1.5-1.1-3.2-2.2-4.6-3.5c-3.4-3-3-9.3,2.6-11.1c3.6-1.2,6.8-0.2,9.9,1.7c0.3,0.2,0.2,0.3,0.1,0.5
			C309.3,75.2,308.7,76.3,308.2,77.6z"/>
		<path id="XMLID_86_" class="st5" d="M300.1,233.7c0-3.8,3-6.7,6.9-6.8c4.2,0,7.2,2.8,7.2,6.8c0,3.7-3,6.5-6.8,6.6
			C303.4,240.5,300,237.7,300.1,233.7z"/>
		<path id="XMLID_85_" class="st5" d="M249.8,240.4c-4,0-6.9-2.8-6.9-6.6c0-3.9,3-6.7,6.9-6.8c4.8-0.1,8.4,4.2,6.8,9.1
			C255.7,238.7,253,240.4,249.8,240.4z"/>
		<path id="XMLID_84_" class="st5" d="M218.1,236.4c0,0.8,0,1.5,0,2.2c0,0.2-0.1,0.4-0.2,0.5c-2.2,1.6-7.3,2.1-9.6-0.6
			c-2.9-3.2-2.2-9.2,1.5-11.1c3.2-1.6,8.1-0.7,8.6,5.2c0,0.2,0,0.4,0,0.6c0.1,0.6-0.2,0.7-0.7,0.7c-2.6,0-5.1,0-7.7,0
			c-0.7,0-0.9,0.1-0.7,0.9c0.4,1.8,1.9,3.1,3.8,3.2C214.6,237.9,215.6,237.7,218.1,236.4z"/>
		<path id="XMLID_83_" class="st5" d="M375.5,236.3c0,0.8,0,1.5,0,2.2c0,0.2-0.1,0.3-0.3,0.5c-3.6,3-9.7,1.2-11-3.2
			c-0.5-1.7-0.5-3.5,0.1-5.2c1-2.8,3.5-4.3,6.7-3.9c2.4,0.3,4.3,2.4,4.6,5.1c0.2,1.9,0.2,1.9-1.7,1.9c-2.2,0-4.5,0-6.7,0
			c-0.7,0-0.8,0.2-0.6,0.8c0.4,1.9,1.9,3.1,3.9,3.2c1.5,0.1,2.8-0.3,4.1-1C374.8,236.7,375.1,236.5,375.5,236.3z"/>
		<path id="XMLID_82_" class="st5" d="M337.1,230.1c0-3.1,0-6.1,0-9.2c0-0.6,0.2-0.8,0.8-0.8c2.2,0,2.2,0,2.2,2.1
			c0,4.8,0,9.5,0,14.3c0,0.7,0.1,1,0.9,0.9c2.5-0.1,4.9,0,7.4,0c0.6,0,0.7,0.2,0.7,0.8c0,1.9,0,1.9-1.9,1.9c-3.1,0-6.1,0-9.2,0
			c-0.7,0-0.9-0.2-0.9-0.9C337.1,236.2,337.1,233.2,337.1,230.1z"/>
		<path id="XMLID_81_" class="st5" d="M193.1,230.1c0-3.1,0-6.1,0-9.2c0-0.6,0.1-0.8,0.8-0.8c2.2,0,2.2,0,2.2,2.1
			c0,4.8,0,9.6,0,14.4c0,0.7,0.1,0.9,0.9,0.9c2.5,0,4.9,0,7.4,0c0.6,0,0.8,0.2,0.8,0.8c0,1.9,0,1.9-1.8,1.9c-3.1,0-6.1,0-9.2,0
			c-0.7,0-0.9-0.2-0.9-0.9C193.1,236.2,193.1,233.2,193.1,230.1z"/>
		<path id="XMLID_80_" class="st5" d="M262.5,228.5c1.1-1,2.2-1.7,3.6-1.8c2.3-0.2,4.3,1.4,4.6,3.7c0.3,1.8,0.1,3.7,0.2,5.5
			c0,1.2,0,2.4,0,3.6c0,0.4-0.1,0.6-0.5,0.6c-2.1,0.1-2.1,0.1-2.1-2c0-1.9,0-3.7,0-5.6c0-0.5,0-1-0.1-1.5c-0.3-1.6-1.3-2.4-2.9-2.1
			c-1.7,0.2-2.7,1.4-2.7,3.1c0,2.5,0,4.9,0,7.4c0,0.6-0.1,0.8-0.8,0.8c-1.9,0-1.9,0-1.9-1.9c0-3.5,0-7,0-10.5c0-0.6,0.2-0.9,0.8-0.8
			c0.1,0,0.3,0,0.4,0C262.3,227,262.3,227,262.5,228.5z"/>
		<path id="XMLID_79_" class="st5" d="M357.7,234.8c0-1.6,0-3.1,0-4.7c0-0.6-0.2-0.8-0.7-0.8c-0.4,0-1,0.2-1.1-0.2
			c-0.2-0.6-0.2-1.3,0-2c0.1-0.4,0.5-0.2,0.8-0.2c0.8,0.1,1.1-0.2,1.1-1.1c-0.1-1.1,0.1-2.3,0.6-3.3c0.9-2.2,3.2-3.2,5.5-2.6
			c0.3,0.1,0.5,0.2,0.5,0.6c0,0.1,0,0.3,0,0.4c0,0.5,0.1,1.1-0.1,1.5c-0.3,0.5-0.8,0-1.3,0c-1.5,0.1-2.1,0.7-2.4,2.1
			c0,0.2-0.1,0.3-0.1,0.5c-0.2,1.8-0.2,1.9,1.6,1.9c0.5,0,0.7,0.1,0.7,0.7c0,1.7,0,1.7-1.7,1.7c-0.6,0-0.7,0.2-0.7,0.8
			c0,3.1,0,6.2,0,9.3c0,0.6-0.1,0.8-0.8,0.8c-1.9,0-1.9,0-1.9-1.9C357.7,237.1,357.7,236,357.7,234.8z"/>
		<path id="XMLID_78_" class="st5" d="M296.8,234.8c0,1.6,0,3.1,0,4.7c0,0.5-0.2,0.7-0.7,0.7c-2,0-2,0.1-2-1.9c0-2.7,0-5.3,0-8
			c0-0.7-0.2-0.9-0.9-0.9c-1.1,0-1.1,0-1.1-1c0-1.3,0-1.3,1.3-1.3c0.5,0,0.7-0.1,0.7-0.7c-0.1-1,0-2.1,0.3-3.1
			c0.8-2.5,3.1-3.8,5.6-3.2c0.4,0.1,0.6,0.3,0.5,0.7c0,0.1,0,0.2,0,0.3c0,0.5,0.1,1.1-0.1,1.5c-0.3,0.4-0.8,0-1.3,0
			c-1.4,0.1-2.2,0.7-2.4,2.1c0,0.2,0,0.4-0.1,0.6c-0.1,1.7-0.1,1.8,1.6,1.8c0.5,0,0.8,0.1,0.7,0.7c0,0.1,0,0.1,0,0.2
			c0,1.5,0,1.6-1.5,1.5c-0.7,0-0.9,0.2-0.9,0.9C296.8,231.8,296.8,233.3,296.8,234.8z"/>
		<path id="XMLID_77_" class="st5" d="M231.7,236.4c1,0.6,1.9,1.1,2.8,1.4c0.8,0.3,1.6,0.4,2.4,0.1c1.1-0.5,1.3-1.5,0.3-2.3
			c-0.7-0.5-1.4-0.9-2.2-1.3c-0.7-0.4-1.4-0.9-2.1-1.5c-1.1-1-1.5-2.3-1-3.7c0.5-1.4,1.6-2.1,3-2.3c1.6-0.3,3.1,0.1,4.6,0.7
			c0.3,0.2,0.5,0.3,0.5,0.7c0,0.7,0,1.3,0,2.1c-0.7-0.3-1.2-0.6-1.8-0.9c-0.8-0.4-1.6-0.5-2.5-0.4c-0.5,0.1-1,0.3-1.1,0.8
			c-0.1,0.5,0.1,0.9,0.5,1.2c0.6,0.5,1.2,0.8,1.9,1.2c0.7,0.4,1.4,0.8,2.1,1.4c1.4,1.3,2,2.7,1.4,4.2c-0.6,1.6-2,2.3-3.6,2.5
			c-1.6,0.2-3.2-0.2-4.6-0.9c-0.4-0.2-0.5-0.4-0.5-0.8C231.8,237.9,231.7,237.2,231.7,236.4z"/>
		<path id="XMLID_76_" class="st5" d="M282.1,230.4c-0.6-0.3-1.2-0.6-1.7-0.8c-0.8-0.4-1.6-0.6-2.5-0.5c-0.5,0.1-1.1,0.2-1.2,0.8
			c-0.2,0.6,0.1,1,0.6,1.3c0.6,0.4,1.2,0.7,1.8,1.1c0.8,0.5,1.6,0.9,2.2,1.5c1.2,1.1,1.9,2.4,1.3,4.1c-0.6,1.6-1.9,2.3-3.5,2.5
			c-1.7,0.2-3.2-0.1-4.7-0.9c-0.3-0.2-0.5-0.3-0.5-0.7c0-0.7,0-1.5,0-2.3c0.8,0.4,1.6,0.8,2.3,1.2c0.8,0.4,1.6,0.6,2.4,0.4
			c0.6-0.1,1.2-0.4,1.4-1c0.2-0.7-0.2-1.1-0.8-1.5c-1.1-0.8-2.4-1.3-3.5-2.2c-1.1-0.9-1.9-1.9-1.8-3.4c0.2-1.6,1.5-2.8,3.2-3.1
			c1.6-0.2,3.1,0.1,4.6,0.8c0.2,0.1,0.5,0.2,0.4,0.5C282.1,228.8,282.1,229.6,282.1,230.4z"/>
		<path id="XMLID_75_" class="st5" d="M220.5,236.4c1.1,0.6,2.1,1.2,3.2,1.5c0.7,0.2,1.4,0.2,2-0.1c1.1-0.5,1.3-1.6,0.3-2.3
			c-0.7-0.5-1.5-0.9-2.3-1.4c-0.7-0.4-1.4-0.9-2-1.5c-1.1-1-1.5-2.3-1-3.7c0.5-1.4,1.6-2.1,3.1-2.3c1.5-0.3,3,0.1,4.4,0.7
			c0.4,0.2,0.6,0.4,0.6,0.9c0,0.6,0,1.3,0,2c-0.8-0.3-1.4-0.7-2.1-1c-0.7-0.3-1.5-0.4-2.3-0.3c-0.5,0.1-0.9,0.3-1,0.8
			c-0.1,0.5,0.1,0.9,0.5,1.2c0.6,0.5,1.2,0.8,1.9,1.2c0.7,0.4,1.5,0.8,2.1,1.4c1.3,1.1,2,2.4,1.4,4.1c-0.6,1.7-1.9,2.3-3.6,2.5
			c-1.7,0.2-3.2-0.1-4.7-0.9c-0.3-0.2-0.5-0.3-0.5-0.7C220.5,238,220.5,237.3,220.5,236.4z"/>
		<path id="XMLID_74_" class="st5" d="M319.8,229.8c0.8-1.1,1.4-2,2.3-2.6c1.3-0.9,3.6-0.5,4.5,0.8c0.2,0.3,0.1,0.4-0.1,0.6
			c-0.4,0.6-0.6,1.4-1.2,1.8c0,0-0.2-0.1-0.3-0.2c-1-0.8-2-1.4-3.2-0.7c-1.4,0.7-2,2-2,3.5c0,2.1,0,4.2,0,6.3c0,0.7-0.1,0.9-0.9,0.9
			c-1.8,0-1.8,0-1.8-1.8c0-3.5,0-7.1,0-10.6c0-0.7,0.2-0.8,0.8-0.8c1.8,0,1.8,0,1.8,1.8C319.8,229,319.8,229.3,319.8,229.8z"/>
		<path id="XMLID_73_" class="st6" d="M353.7,233.6c0,1.9,0,3.9,0,5.8c0,0.6-0.1,0.8-0.8,0.8c-1.9,0-1.9,0-1.9-1.9c0-3.5,0-7,0-10.5
			c0-0.7,0.2-0.9,0.9-0.9c1.8,0,1.8,0,1.8,1.8C353.7,230.3,353.7,232,353.7,233.6z"/>
		<path id="XMLID_72_" class="st6" d="M354,223c0,0.9-0.7,1.6-1.5,1.6c-0.8,0-1.6-0.7-1.6-1.6c0-0.8,0.7-1.5,1.5-1.5
			C353.3,221.4,354,222.1,354,223z"/>
		<path id="XMLID_71_" class="st7" d="M172.5,162c0-5.4,0-10.7,0-16.1c0-0.7,0.1-1.1,0.9-1.2c4.1-0.6,8.2-0.7,12.2,0.4
			c5.8,1.6,9.3,5.3,10.5,11.1c0.8,4.1,0.7,8.3-0.7,12.3c-2,6.1-6.5,9.4-12.7,10.5c-3.1,0.5-6.3,0.4-9.5,0.2c-0.7,0-0.8-0.3-0.8-1
			C172.5,172.9,172.5,167.4,172.5,162z"/>
		<path id="XMLID_70_" class="st7" d="M245.7,167.7c-0.1,1.7,0.2,3.6-0.4,5.4c-1.1,3.4-3.4,5.5-6.9,5.9c-3.7,0.4-6.7-1-8.4-4.3
			c-2.5-4.9-2.4-9.8,0.3-14.6c2-3.4,5.9-4.8,9.6-3.7c3.5,1,5.8,4.3,5.8,8.2C245.7,165.6,245.7,166.5,245.7,167.7z"/>
		<path id="XMLID_69_" class="st5" d="M344.3,171c0,0.9,0.1,1.9,0,2.8c-0.7,5-6.2,7.3-10,5.9c-2.1-0.8-3.3-3-3.1-5.5
			c0.2-2.4,1.5-4,3.6-5c2.9-1.4,6-1.5,9.1-1.5c0.5,0,0.4,0.3,0.4,0.6C344.3,169.2,344.3,170.1,344.3,171
			C344.3,171,344.3,171,344.3,171z"/>
		<path id="XMLID_68_" class="st8" d="M321.2,84.8c0.1-2.3,0.6-4.4,1.8-6.4c3-4.8,9.3-5.1,12.6-0.5c3,4.1,2.7,10.8-0.5,14.7
			c-3,3.7-8.4,3.6-11.4-0.1C321.9,90.3,321.3,87.6,321.2,84.8z"/>
		<path id="XMLID_67_" class="st9" d="M251.1,77.1c1.1,3.2,2.2,6.3,3.3,9.4c0.2,0.4,0.1,0.6-0.4,0.7c-1.9,0.2-3.9,0.2-5.8,0
			c-0.3,0-0.6,0-0.4-0.5c1.1-3.1,2.1-6.2,3.1-9.3C250.9,77.3,251,77.2,251.1,77.1z"/>
		<path id="XMLID_66_" class="st3" d="M302.8,233.6c0-2.5,1.8-4.3,4.2-4.3c2.5,0,4.5,1.9,4.5,4.3c0,2.5-1.8,4.3-4.3,4.3
			C304.5,237.9,302.8,236.2,302.8,233.6z"/>
		<path id="XMLID_65_" class="st3" d="M249.9,237.9c-2.6,0-4.4-1.8-4.4-4.2c0-2.5,1.8-4.3,4.2-4.4c2.5,0,4.5,1.9,4.5,4.3
			C254.3,236.1,252.5,237.9,249.9,237.9z"/>
		<path id="XMLID_64_" class="st10" d="M212.4,232.2c-0.9,0-1.8,0-2.6,0c-0.4,0-0.5-0.1-0.4-0.5c0.3-1.6,1.7-2.6,3.3-2.6
			c1.6,0,2.7,0.9,3,2.5c0.1,0.5,0.1,0.8-0.6,0.7C214.2,232.2,213.3,232.2,212.4,232.2z"/>
		<path id="XMLID_63_" class="st10" d="M369.8,232.2c-0.9,0-1.8,0-2.7,0c-0.3,0-0.5,0.1-0.5-0.4c0.2-1.6,1.6-2.7,3.2-2.8
			c1.7,0,2.9,0.9,3.2,2.5c0.1,0.5,0,0.7-0.5,0.7C371.6,232.2,370.7,232.2,369.8,232.2z"/>
	</g>
</g>
</svg>
