<?xml version="1.0" encoding="utf-8"?>
<!-- Generator: Adobe Illustrator 19.0.0, SVG Export Plug-In . SVG Version: 6.00 Build 0)  -->
<svg version="1.1" id="Layer_1" xmlns="http://www.w3.org/2000/svg" xmlns:xlink="http://www.w3.org/1999/xlink" x="0px" y="0px"
	 viewBox="0 0 579 291" style="enable-background:new 0 0 579 291;" xml:space="preserve">
<style type="text/css">
	.st0{fill:#F27423;}
	.st1{fill:#991D50;}
	.st2{fill:#FFFEFE;}
	.st3{fill:#FFFFFF;}
	.st4{fill:#F8F0E2;}
	.st5{fill:#F27523;}
	.st6{fill:#991E50;}
	.st7{fill:#FFFEFD;}
</style>
<g id="XMLID_9_">
	<g id="XMLID_63_">
		<path id="XMLID_108_" class="st0" d="M146.7,200.3c0-23.7,0-47.5,0-71.2c0.2-0.7,0.1-1.4,0.5-2.1c1.3-2.3,3.2-3.7,5.9-4.1
			c0.5-0.1,1.1,0,1.7,0c86,0,171.9,0,257.9,0c1.4,0,2.8,0,4.1,0.8c2.5,1.4,3.9,3.3,3.9,6.3c0,7.5,0,15,0,22.5c0,15.6,0,31.1,0,46.7
			c0,4.1-2.4,6.8-6.5,7.3c-0.8,0.1-1.5,0.1-2.3,0.1c-85.5,0-170.9,0-256.4,0c-1.9,0-3.8-0.2-5.4-1.2
			C148.1,204.2,146.8,202.6,146.7,200.3z"/>
		<path id="XMLID_107_" class="st1" d="M169.4,51c76.1,0,152.3,0,228.4,0c0.3,0.2,0.4,0.5,0.4,0.9c0,0.4,0,0.9,0,1.3
			c0,21.2,0,42.4,0,63.6c0,0.5,0,1,0,1.5c-0.1,0.8-0.3,1-1.1,1.1c-0.4,0-0.7,0-1.1,0c-74.9,0-149.9,0-224.8,0c-2.2,0-2.2,0-2.2-2.2
			c0-21.5,0-43,0-64.5C169,52.2,168.8,51.5,169.4,51z"/>
		<path id="XMLID_106_" class="st2" d="M169.4,51c0,22.4,0,44.7,0,67.1c0,0.8,0.2,1,1,1c75.5,0,151,0,226.5,0c0.8,0,1-0.2,1-1
			c0-22.4,0-44.7,0-67.1c7.4,0,14.8,0,22.3,0c0.5,0,0.6,0.1,0.6,0.6c0,62.8,0,125.6,0,188.4c0,0.7-0.3,0.6-0.7,0.6
			c-90.8,0-181.7,0-272.5,0c-0.6,0-0.8-0.2-0.8-0.8c0-13.2,0-26.3,0-39.5c0.2,0.1,0.2,0.3,0.2,0.4c1,3.4,3.6,5.4,7.1,5.5
			c0.2,0,0.4,0,0.6,0c86,0,172,0,258,0c2.8,0,5.1-0.9,6.7-3.3c0.8-1.2,1.2-2.5,1.2-3.9c0-22.8,0-45.7,0-68.5c0-3.9-3.1-7.1-7.1-7.2
			c-0.3,0-0.6,0-0.8,0c-86,0-172,0-258,0c-4.2,0-6.5,1.7-7.8,5.6c0,0.1-0.1,0.1-0.2,0.2c0-25.8,0-51.6,0-77.4c0-0.6,0.1-0.8,0.8-0.8
			C154.7,51,162,51,169.4,51z"/>
		<path id="XMLID_105_" class="st3" d="M166.8,162.1c0-6.8,0-13.6,0-20.4c0-0.7,0.2-1,0.9-1.1c4.9-0.6,9.8-1,14.8-0.6
			c3.3,0.2,6.5,0.8,9.4,2.2c4.8,2.3,8.1,6,9.6,11.1c1.7,5.9,1.5,11.7-0.7,17.4c-2.5,6.6-7.5,10.4-14.2,12.1c-4.2,1.1-8.4,1.2-12.7,1
			c-2.1-0.1-4.1-0.2-6.2-0.4c-0.7-0.1-0.8-0.3-0.8-1C166.8,175.8,166.8,168.9,166.8,162.1z"/>
		<path id="XMLID_104_" class="st3" d="M245.7,178.3c-3.9,6.6-15.6,7.5-20.8-1c-3.7-6-3.1-15.1,1.3-20.6c3.7-4.6,10-6.3,15.2-4.2
			c2.1,0.9,3.7,2.3,4.9,4.4c0.2-0.6,0.1-1.1,0.2-1.6c0.1-0.5,0-1,0-1.6c0-1.4,0-1.4,1.4-1.4c1,0,2.1,0,3.1,0c0.4,0,0.6,0.1,0.5,0.5
			c-0.3,3.8-0.2,7.7-0.2,11.5c0,4.9,0,9.8,0,14.6c0,2.7-0.2,5.4-0.9,8c-1.2,4.5-3.9,7.5-8.4,8.9c-5.5,1.7-10.9,1.4-16.1-1
			c-0.7-0.3-0.9-0.7-0.6-1.5c0.4-1,0.7-2,1-3c0.1-0.4,0.2-0.4,0.6-0.2c2.5,1.4,5.2,2.1,8.1,2.3c6,0.4,10.1-3,10.5-9.1
			C245.8,181.8,245.7,180.2,245.7,178.3z"/>
		<path id="XMLID_103_" class="st3" d="M295,184.2c-3.5,0.1-6.9-0.4-10.1-1.9c-4.8-2.1-8.2-5.7-10-10.6c-2.2-6.1-2.3-12.2-0.2-18.3
			c2.7-7.4,8.1-11.8,15.7-13.4c4.9-1,9.8-0.8,14.5,0.8c1.4,0.4,1.3,0.5,0.9,1.8c-0.3,0.9-0.6,1.8-0.8,2.7c-0.1,0.6-0.3,0.6-0.9,0.4
			c-4.7-1.9-9.6-2.1-14.4-0.5c-4.2,1.4-7.3,4.1-8.9,8.3c-2.3,5.7-2.4,11.4,0,17.1c2.1,5.1,6.2,7.9,11.6,8.7
			c4.1,0.6,8.2,0.2,12.1-1.4c0.5-0.2,0.5,0,0.6,0.3c0.3,1.1,0.5,2.3,0.8,3.4c0.2,0.5,0,0.8-0.5,1c-2.6,1-5.3,1.4-8,1.6
			C296.7,184.3,295.9,184.2,295,184.2z"/>
		<path id="XMLID_102_" class="st3" d="M344.7,179.6c-2,2.7-4.5,4.1-7.6,4.6c-3.7,0.5-7.1,0-9.7-3.1c-3.5-4.2-2.3-10.8,2.3-14
			c2.4-1.6,5.1-2.4,7.9-2.9c2-0.3,3.9-0.4,5.9-0.5c0.5,0,0.6-0.2,0.6-0.6c0-0.8-0.1-1.6-0.2-2.4c-0.7-3-2.9-4.7-6.2-4.8
			c-3.1-0.1-6.1,0.6-8.8,2.3c-0.4-1.2-0.8-2.4-1.2-3.5c-0.1-0.4,0.2-0.5,0.4-0.6c2-1.1,4.1-1.8,6.3-2.1c2.2-0.4,4.5-0.4,6.7,0
			c4.8,1,7.7,4.1,8.4,9c0.2,1.2,0.2,2.4,0.3,3.5c0,4.9-0.1,9.9,0.1,14.8c0,1.2,0.2,2.4,0.3,3.5c0.1,0.5,0,0.8-0.6,0.7
			c-1.3,0-2.6,0-3.9,0c-0.4,0-0.6-0.1-0.7-0.6C345,181.9,344.8,180.9,344.7,179.6z"/>
		<path id="XMLID_101_" class="st3" d="M366.2,184.3c-3.5,0-6.1-0.6-8.7-1.8c-0.6-0.3-0.7-0.6-0.5-1.2c0.3-0.9,0.6-1.8,0.9-2.7
			c0.2-0.6,0.3-0.7,0.9-0.4c2.2,1.2,4.6,1.9,7.1,1.8c1.1,0,2.1-0.2,3.1-0.6c3-1.3,3.6-5.3,1.2-7.5c-1.2-1-2.6-1.6-4-2.1
			c-1.7-0.7-3.4-1.4-4.9-2.5c-5.7-4-4-11.1,0.5-13.9c2.7-1.6,5.7-1.9,8.7-1.6c1.7,0.2,3.4,0.6,5,1.5c0.4,0.2,0.6,0.5,0.4,1
			c-0.4,0.9-0.7,1.9-1,2.9c-0.2,0.5-0.3,0.5-0.8,0.3c-1.9-1-3.9-1.6-6.1-1.5c-0.9,0-1.8,0.2-2.6,0.6c-2.7,1.4-3,4.9-0.7,6.8
			c1.1,0.9,2.3,1.4,3.6,1.9c1.7,0.7,3.4,1.4,5,2.4c3,2,4.3,4.9,3.9,8.5c-0.4,3.3-2.2,5.6-5.2,7C369.9,184,367.8,184.3,366.2,184.3z"
			/>
		<path id="XMLID_100_" class="st3" d="M390,184.3c-1.8,0-4.5-0.6-7.1-1.8c-0.5-0.2-0.7-0.5-0.5-1.1c0.4-0.9,0.7-1.9,0.9-2.9
			c0.2-0.6,0.3-0.7,0.9-0.4c2.6,1.3,5.3,2.1,8.3,1.8c3.3-0.4,5.2-2.7,4.4-5.8c-0.3-1.3-1.1-2.1-2.2-2.8c-1.1-0.7-2.3-1.2-3.6-1.7
			c-2-0.8-4-1.8-5.6-3.2c-3.8-3.4-2.9-9,0.3-11.9c1.7-1.5,3.7-2.4,5.9-2.6c3.1-0.4,6.1,0,8.9,1.3c0.6,0.3,0.8,0.5,0.5,1.2
			c-0.4,0.9-0.7,1.9-1,2.8c-0.1,0.5-0.3,0.5-0.7,0.3c-1.9-1-4-1.6-6.2-1.5c-2.3,0.1-4.1,1.2-4.6,3.1c-0.5,1.6,0,3.3,1.4,4.4
			c1.2,0.9,2.6,1.5,4,2c1.7,0.7,3.4,1.4,4.9,2.5c5.1,3.7,4.7,11.6-0.8,14.7C396,183.9,393.6,184.3,390,184.3z"/>
		<path id="XMLID_99_" class="st3" d="M318.5,160.8c0,7.3,0,14.6,0,21.9c0,0.7-0.2,0.9-0.9,0.9c-1.3-0.1-2.6-0.1-3.9,0
			c-0.8,0-0.9-0.3-0.9-1c0-7.5,0-14.9,0-22.4c0-7.2,0-14.3,0-21.5c0-0.7,0.2-0.9,0.9-0.8c1.3,0.1,2.7,0.1,4.1,0
			c0.7,0,0.8,0.2,0.8,0.8C318.5,146.1,318.5,153.4,318.5,160.8z"/>
		<path id="XMLID_98_" class="st3" d="M209.6,168c0-4.9,0-9.9,0-14.8c0-0.6,0.1-0.8,0.8-0.8c1.4,0.1,2.8,0.1,4.1,0
			c0.7,0,0.9,0.2,0.9,0.9c0,8.9,0,17.7,0,26.6c0,1,0,2,0,3.1c0,0.5-0.1,0.7-0.7,0.7c-1.4,0-2.9,0-4.3,0c-0.6,0-0.8-0.2-0.8-0.8
			C209.6,177.9,209.6,173,209.6,168z"/>
		<path id="XMLID_97_" class="st3" d="M260.7,167.9c0-4.9,0-9.8,0-14.7c0-0.6,0.1-0.8,0.8-0.8c1.4,0.1,2.9,0,4.3,0
			c0.5,0,0.7,0.1,0.7,0.6c0,10,0,20,0,30c0,0.6-0.2,0.6-0.7,0.6c-1.4,0-2.9,0-4.3,0c-0.7,0-0.8-0.2-0.8-0.8
			C260.7,177.9,260.7,172.9,260.7,167.9z"/>
		<path id="XMLID_96_" class="st3" d="M216.1,143.1c0,2.2-1.5,3.7-3.7,3.7c-2,0-3.6-1.6-3.6-3.7c0-2.1,1.6-3.7,3.7-3.7
			C214.6,139.5,216.1,140.9,216.1,143.1z"/>
		<path id="XMLID_95_" class="st3" d="M263.3,146.8c-2.1-0.1-3.6-1.7-3.5-3.9c0.1-2,1.8-3.6,3.8-3.4c2.1,0.1,3.6,1.7,3.5,3.7
			C267.1,145.3,265.4,146.9,263.3,146.8z"/>
		<path id="XMLID_94_" class="st4" d="M366.5,89.6c0-1.6,0-3.2,0-4.8c0-4.3,0.1-8.5-0.3-12.8c0-0.5,0.2-0.6,0.5-0.5
			c1.1,0.3,2.2,0.3,3.3,0c0.5-0.1,0.6,0,0.6,0.5c-0.4,3.3-0.4,6.5-0.5,9.8c-0.1,4.6-0.1,9.2,0.2,13.8c0,0.7,0.1,1.4,0.3,2.1
			c0.1,0.4,0,0.6-0.5,0.6c-1-0.1-2.1-0.1-3.1,0c-0.5,0.1-0.7-0.3-0.9-0.6c-4.2-5.9-8.5-11.8-12.9-17.5c-0.1-0.2-0.3-0.4-0.7-0.5
			c0,1.6,0,3.2,0,4.8c0,4.5-0.1,8.9,0.2,13.4c0,0.4-0.1,0.5-0.5,0.5c-1.1,0-2.2,0-3.3,0c-0.6,0-0.4-0.4-0.4-0.7
			c0.4-5.1,0.4-10.2,0.4-15.4c0-3.4,0-6.7-0.4-10.1c-0.1-0.6,0.1-0.8,0.7-0.7c0.8,0,1.7,0.1,2.5,0c0.6-0.1,1,0.2,1.3,0.7
			c3.6,4.8,7.1,9.6,10.7,14.4c0.8,1,1.5,2.1,2.3,3.1C366.3,89.7,366.4,89.7,366.5,89.6z"/>
		<path id="XMLID_93_" class="st4" d="M329.5,98.7c-6.5,0-11.4-4-12.9-10.5c-1.4-6.1,1.1-12.1,6.3-15.1c7.7-4.5,17.7,0.1,19.4,8.9
			c1.3,7-2.5,14-8.9,16.1C332.1,98.5,330.8,98.7,329.5,98.7z"/>
		<path id="XMLID_92_" class="st4" d="M280.8,86c1.6,2.1,3.2,4.1,4.7,6.2c1.5,2,3.1,4.1,4.7,6.2c-2-0.2-3.8-0.2-5.6-0.1
			c-0.4,0-0.5-0.1-0.7-0.4c-2.3-3.6-4.8-7.1-7.3-10.5c-0.6-0.9-0.3-2-0.2-3.1c0-0.3,0.5-0.2,0.8-0.2c3-0.3,4.7-2.1,4.7-5.1
			c0-1.9-1.2-3.4-3.1-4c-1.3-0.4-2.6-0.3-3.9-0.3c-0.5,0-0.5,0.3-0.5,0.6c0,3.4,0,6.7,0,10.1c0.1,4.1,0.2,8.3,0.4,12.4
			c0,0.5-0.1,0.6-0.6,0.6c-1.3,0-2.7,0-4.1,0c-0.5,0-0.6-0.1-0.5-0.6c0.3-2.5,0.3-5,0.3-7.5c0.1-5,0-9.9-0.1-14.9
			c0-1.2-0.1-2.3-0.2-3.5c0-0.2-0.2-0.6,0.3-0.5c2.9,0.3,5.9-0.1,8.8,0.1c1.6,0.1,3.2,0.5,4.6,1.4c3.5,2,3.6,6.2,2.4,9
			C284.9,84,283.4,85.2,280.8,86z"/>
		<path id="XMLID_91_" class="st4" d="M263.7,98.3c-1.6,0-3.3-0.1-4.9,0c-0.4,0-0.4-0.4-0.5-0.6c-0.7-2.1-1.4-4.2-2.1-6.3
			c-0.2-0.5-0.4-0.7-0.9-0.7c-2.6-0.1-5.3-0.1-7.9,0c-0.6,0-0.9,0.3-1.1,0.8c-0.6,2.1-1.2,4.1-1.8,6.2c-0.2,0.6-0.4,0.7-0.9,0.6
			c-1.2-0.1-2.5,0-3.8,0.1c0.6-1.4,1.1-2.7,1.6-4c2.8-7.4,5.7-14.7,7.9-22.3c0.1-0.4,0.3-0.6,0.7-0.5c1.1,0.2,2.3,0.2,3.5,0
			c0.5-0.1,0.6,0.1,0.7,0.5c2.8,8.6,6,17,9.4,25.4C263.6,97.7,263.7,98,263.7,98.3z"/>
		<path id="XMLID_90_" class="st4" d="M201.3,81.2c0.1,5.2,0.2,10.4,0.4,15.5c0,0.5,0.4,1.2,0,1.6c-0.3,0.2-1-0.1-1.5-0.1
			c-1-0.1-2.1-0.1-3.1,0.2c-0.4,0.1-0.5,0.1-0.5-0.4c0.4-6.4,0.5-12.9,0.4-19.3c0-2.3,0-4.6-0.4-6.8c0-0.2-0.1-0.5,0.3-0.4
			c3.8,0.3,7.7-0.5,11.4,0.4c3.5,0.8,6.1,3.1,6.2,7.1c0.1,2.7-0.9,4.8-3,6.5c-2.2,1.8-4.8,2.6-7.6,2.7c-0.5,0-0.7-0.1-0.7-0.6
			c0-0.7-0.2-1.5,0.1-2c0.3-0.5,1.2-0.3,1.8-0.5c3.4-0.8,5.2-3.4,4.6-6.5c-0.4-2-2-3.5-4.2-3.9c-1.3-0.2-2.5-0.1-3.8-0.1
			c-0.5,0-0.4,0.3-0.4,0.6c0,1,0,2.1,0,3.1C201.3,79.1,201.3,80.2,201.3,81.2z"/>
		<path id="XMLID_89_" class="st4" d="M225.2,71.4c2.9,0.2,5.8,0.2,8.7,0c0.6,0,0.6,0.2,0.6,0.6c0,0.8-0.1,1.6,0,2.4
			c0.1,0.7-0.2,0.8-0.8,0.7c-2.5-0.2-5.1-0.4-7.6-0.4c-0.6,0-0.8,0.1-0.8,0.8c0,2.1,0,4.1-0.1,6.2c0,0.6,0.1,0.9,0.8,0.9
			c2.5,0.2,4.9-0.1,7.3-0.3c0.5-0.1,0.7,0,0.7,0.6c0,0.8,0,1.6,0,2.4c0,0.6-0.1,0.8-0.7,0.7c-2.5-0.2-5-0.2-7.4-0.2
			c-0.5,0-0.6,0.2-0.6,0.6c-0.1,2.7-0.1,5.4-0.1,8.1c0,0.5,0.3,0.4,0.6,0.4c2.7,0,5.5-0.1,8.2-0.3c0.7,0,0.9,0.1,0.8,0.8
			c-0.1,0.8-0.1,1.6-0.1,2.5c0,0.4-0.2,0.5-0.6,0.5c-3.2-0.3-6.4-0.4-9.6-0.2c-1.1,0-2.3,0.1-3.4,0.2c-0.6,0.1-0.8,0-0.7-0.7
			c0.4-4.8,0.3-9.6,0.3-14.4c0-3.7-0.1-7.5-0.3-11.2c0-0.6,0.1-0.8,0.8-0.8C222.5,71.5,223.8,71.4,225.2,71.4z"/>
		<path id="XMLID_88_" class="st4" d="M308.2,77.6c-0.7-0.8-1.4-1.6-2.3-2.1c-1.3-0.7-2.7-1-4.1-0.5c-1.5,0.5-2.6,2.9-1.2,4.4
			c1.2,1.3,2.7,2.2,4.1,3.1c1.5,1,3,1.8,4.2,3.2c2.2,2.5,2.3,5.4,1.2,8.3c-1.1,2.9-3.6,4.2-6.6,4.5c-3.2,0.3-6.1-0.7-8.8-2.4
			c-0.5-0.3-0.6-0.5-0.3-1.1c0.6-1,1-2.1,1.4-3.4c0.9,1,1.9,1.7,3,2.3c1.4,0.7,2.7,1.2,4.3,0.9c2.4-0.5,3.6-3.1,2.4-5.2
			c-0.8-1.4-2.1-2.3-3.4-3.2c-1.5-1.1-3.2-2.2-4.6-3.5c-3.5-3.1-3-9.6,3-11.3c3.4-1,6.5,0,9.4,1.8c0.3,0.2,0.3,0.3,0.1,0.6
			C309.3,75.2,308.7,76.3,308.2,77.6z"/>
		<path id="XMLID_87_" class="st5" d="M307,240.4c-2.7,0-4.8-1.1-6.1-3.5c-1.2-2.3-1.2-4.7,0.3-6.9c1.8-2.6,4.3-3.4,7.3-2.9
			c2.9,0.5,4.8,2.2,5.4,5.1C315,236.6,311.8,240.4,307,240.4z"/>
		<path id="XMLID_86_" class="st5" d="M249.8,240.4c-4,0-6.9-2.8-6.9-6.7c0-3.9,3-6.7,6.9-6.7c2.7,0,4.9,1,6.2,3.4
			c1.2,2.2,1.3,4.5,0,6.7C254.7,239.4,252.5,240.4,249.8,240.4z"/>
		<path id="XMLID_85_" class="st5" d="M218.1,236.3c0,0.4,0,0.7,0,0.9c0,1.9,0,1.9-1.7,2.6c-2.8,1.2-6.3,0.6-8.1-1.3
			c-2.6-2.8-2.4-8,0.5-10.4c1.8-1.5,3.9-1.7,6.1-0.9c2.4,0.9,3.2,3,3.5,5.4c0.1,1.3,0.1,1.3-1.1,1.3c-2.5,0-4.9,0-7.4,0
			c-0.6,0-0.8,0.1-0.6,0.7c0.5,2.4,2.5,3.7,5.1,3.3C215.7,237.6,216.9,237.1,218.1,236.3z"/>
		<path id="XMLID_84_" class="st5" d="M375.5,236.3c0,0.3,0,0.5,0,0.7c0,2.1-0.2,2.4-2.2,3c-1.6,0.4-3.2,0.5-4.8,0.2
			c-2.3-0.5-4.1-2.6-4.5-5.4c-0.3-2.5,0.1-4.8,2-6.6c1.8-1.6,3.9-1.9,6.1-1.1c2.2,0.8,3.2,2.6,3.5,4.8c0.3,1.9,0.3,1.9-1.6,1.9
			c-2.3,0-4.5,0-6.8,0c-0.6,0-0.7,0.2-0.6,0.8c0.4,1.9,1.9,3.2,3.9,3.3C372.3,237.9,373.9,237.4,375.5,236.3z"/>
		<path id="XMLID_83_" class="st5" d="M337.1,230.2c0-3.1,0-6.2,0-9.3c0-0.5,0.1-0.8,0.7-0.8c0.7,0.1,1.6-0.3,2.1,0.1
			c0.4,0.4,0.1,1.4,0.1,2.1c0,4.7,0,9.4,0,14.1c0,1.3-0.1,1.1,1.1,1.1c2.4,0,4.7,0,7.1,0c0.5,0,0.8,0.1,0.8,0.7c0,2,0,2-1.9,2
			c-3.1,0-6.2,0-9.3,0c-0.6,0-0.7-0.2-0.7-0.7C337.1,236.4,337.1,233.3,337.1,230.2z"/>
		<path id="XMLID_82_" class="st5" d="M193.1,230.1c0-3,0-6.1,0-9.1c0-0.6,0.1-0.9,0.8-0.8c0.7,0.1,1.6-0.3,2,0.1
			c0.4,0.4,0.1,1.3,0.1,2c0,4.8,0,9.7,0,14.5c0,0.6,0.1,0.8,0.8,0.8c2.5,0,5,0,7.5,0c0.5,0,0.7,0.1,0.7,0.7c0,2,0,2-2,2
			c-3.1,0-6.1,0-9.2,0c-0.6,0-0.7-0.2-0.7-0.7C193.1,236.3,193.1,233.2,193.1,230.1z"/>
		<path id="XMLID_81_" class="st5" d="M262.5,228.4c0.3-0.1,0.5-0.3,0.7-0.5c1.5-1.1,3.1-1.5,4.8-0.8c1.7,0.6,2.5,2,2.7,3.7
			c0.3,3,0.1,6,0.1,8.9c0,0.4-0.1,0.4-0.5,0.5c-2.2,0.1-2.2,0.2-2.2-2c0-1.9,0-3.7,0-5.6c0-0.5,0-1-0.1-1.5
			c-0.3-1.7-1.5-2.4-3.1-2.1c-1.6,0.3-2.5,1.4-2.5,3c0,2.5,0,5,0,7.4c0,0.5-0.1,0.7-0.7,0.7c-2,0-2,0-2-2c0-3.5,0-6.9,0-10.4
			c0-0.6,0.1-0.9,0.8-0.8c0.1,0,0.2,0,0.2,0C262.3,227,262.3,227,262.5,228.4z"/>
		<path id="XMLID_80_" class="st5" d="M359,240.2c-1.3,0-1.3,0-1.3-1.2c0-2.9,0-5.8,0-8.8c0-0.6-0.1-0.9-0.8-0.8
			c-0.3,0-0.9,0.2-1-0.2c-0.2-0.6-0.2-1.4,0-2c0.1-0.3,0.4-0.1,0.6-0.1c1.2,0,1.2,0,1.2-1.3c0-1,0.2-1.9,0.5-2.8
			c0.9-2.3,3.2-3.5,5.5-2.8c0.3,0.1,0.5,0.2,0.5,0.5c0,0.5,0,1.1,0,1.7c0,0.4-0.2,0.4-0.5,0.4c-2.3-0.3-3.3,0.5-3.4,2.9
			c-0.1,1.5-0.1,1.5,1.4,1.5c0.8,0,1,0.2,1,0.9c-0.1,1.4,0,1.5-1.5,1.4c-0.7,0-0.9,0.1-0.9,0.8c0,3,0,6,0,8.9c0,0.9-0.2,1.2-1.1,1.1
			C359.2,240.1,359.1,240.2,359,240.2z"/>
		<path id="XMLID_79_" class="st5" d="M294.1,234.8c0-1.6,0-3.1,0-4.7c0-0.6-0.2-0.8-0.7-0.7c-0.2,0-0.4,0-0.6,0
			c-0.5,0.1-0.7-0.2-0.6-0.7c0-0.1,0-0.2,0-0.3c0-1.3,0-1.4,1.3-1.4c0.5,0,0.6-0.2,0.6-0.7c-0.1-1.3,0.1-2.6,0.7-3.9
			c1-2.1,3.2-3,5.4-2.4c0.2,0.1,0.4,0.1,0.4,0.4c0,0.6,0,1.3,0,1.9c0,0.4-0.2,0.3-0.4,0.3c-0.4,0-0.7-0.1-1.1-0.1
			c-1.3,0.1-2,0.7-2.3,2c0,0.2-0.1,0.4-0.1,0.6c-0.2,1.8-0.2,1.9,1.7,1.9c0.5,0,0.6,0.1,0.6,0.6c0,1.7,0.1,1.8-1.7,1.8
			c-0.6,0-0.7,0.2-0.7,0.8c0,3.1,0,6.2,0,9.3c0,0.6-0.2,0.8-0.8,0.8c-1.8,0-1.8,0-1.8-1.7C294.1,237.2,294.1,236,294.1,234.8z"/>
		<path id="XMLID_78_" class="st5" d="M240,230.4c-0.9-0.5-1.7-0.9-2.6-1.2c-0.6-0.2-1.3-0.3-2-0.1c-0.9,0.3-1.2,1.1-0.5,1.9
			c0.4,0.4,0.9,0.7,1.4,0.9c0.9,0.5,1.9,1,2.7,1.7c1.3,1.1,2,2.4,1.5,4.2c-0.4,1.4-1.9,2.4-3.6,2.5c-1.6,0.1-3.2-0.2-4.6-0.9
			c-0.2-0.1-0.5-0.2-0.5-0.6c0-0.8,0-1.6,0-2.5c1,0.6,1.8,1.1,2.7,1.4c0.8,0.3,1.6,0.4,2.4,0.1c0.5-0.2,0.9-0.5,1-1
			c0.1-0.6-0.2-1-0.6-1.3c-0.7-0.5-1.5-0.9-2.2-1.3c-0.7-0.4-1.4-0.9-2-1.4c-1.1-1-1.5-2.3-1.1-3.7c0.4-1.4,1.6-2.1,3-2.3
			c1.6-0.3,3.2,0,4.6,0.8c0.2,0.1,0.5,0.2,0.4,0.5C240,228.8,240,229.6,240,230.4z"/>
		<path id="XMLID_77_" class="st5" d="M282.1,230.4c-0.8-0.4-1.4-0.7-2.1-1c-0.6-0.3-1.3-0.4-2-0.3c-0.6,0.1-1.1,0.2-1.3,0.9
			c-0.2,0.6,0.2,1,0.6,1.3c0.6,0.4,1.3,0.8,2,1.2c0.7,0.4,1.4,0.8,2,1.4c1.2,1.1,1.9,2.4,1.3,4.1c-0.6,1.7-2,2.3-3.6,2.5
			c-1.7,0.2-3.2-0.2-4.7-0.9c-0.2-0.1-0.4-0.2-0.4-0.5c0-0.8,0-1.6,0-2.5c1,0.5,1.8,1.1,2.7,1.4c0.8,0.3,1.6,0.4,2.4,0.1
			c0.5-0.2,0.9-0.5,1-1c0.1-0.6-0.2-1-0.7-1.3c-0.9-0.6-1.8-1.1-2.7-1.6c-0.7-0.4-1.4-0.9-1.9-1.6c-1.5-1.9-0.9-4.4,1.4-5.3
			c2-0.8,3.9-0.3,5.7,0.6c0.2,0.1,0.3,0.3,0.3,0.5C282.1,228.9,282.1,229.6,282.1,230.4z"/>
		<path id="XMLID_76_" class="st5" d="M228.8,230.4c-0.9-0.5-1.7-0.9-2.6-1.2c-0.6-0.2-1.1-0.2-1.7-0.2c-0.5,0.1-1,0.3-1.1,0.8
			c-0.2,0.5,0.1,1,0.6,1.3c0.4,0.3,0.8,0.5,1.2,0.8c0.9,0.6,1.9,1,2.7,1.7c1.5,1.2,2,2.6,1.5,4.2c-0.5,1.4-2,2.4-3.8,2.5
			c-1.6,0.1-3.1-0.2-4.5-0.9c-0.4-0.2-0.6-0.4-0.5-0.9c0-0.7,0-1.4,0-2.2c0.8,0.4,1.5,0.8,2.2,1.1c0.7,0.4,1.5,0.6,2.3,0.5
			c0.7-0.1,1.4-0.3,1.6-1.1c0.2-0.8-0.3-1.2-0.9-1.6c-1.1-0.7-2.4-1.3-3.4-2.1c-1.1-0.8-1.8-1.9-1.7-3.3c0.1-1.6,1.4-2.9,3.2-3.1
			c1.6-0.2,3.1,0.1,4.5,0.8c0.4,0.2,0.5,0.4,0.5,0.8C228.8,229,228.8,229.6,228.8,230.4z"/>
		<path id="XMLID_75_" class="st5" d="M319.8,229.8c0.8-1.1,1.3-1.9,2.2-2.5c1.4-0.9,3.6-0.6,4.6,0.7c0.2,0.2,0.1,0.4,0,0.5
			c-0.4,0.6-0.7,1.4-1.3,1.9c0,0-0.2-0.1-0.3-0.2c-0.9-0.8-1.9-1.3-3.1-0.7c-1.4,0.7-2,1.9-2.1,3.3c-0.1,2.2-0.1,4.4,0,6.5
			c0,0.6-0.1,0.9-0.8,0.8c-1.8,0-1.8,0-1.8-1.9c0-3.5,0-7.1,0-10.6c0-0.6,0.2-0.8,0.8-0.8c1.9,0,1.9,0,1.9,1.9
			C319.8,229.1,319.8,229.3,319.8,229.8z"/>
		<path id="XMLID_74_" class="st5" d="M353.7,233.6c0,2,0,3.9,0,5.9c0,0.5-0.2,0.7-0.7,0.7c-2,0-2,0-2-1.9c0-3.5,0-7.1,0-10.6
			c0-0.6,0.2-0.7,0.7-0.7c1.9,0,1.9,0,1.9,1.9C353.7,230.5,353.7,232,353.7,233.6z"/>
		<path id="XMLID_73_" class="st5" d="M354,223c0,0.9-0.7,1.6-1.5,1.6c-0.9,0-1.6-0.7-1.6-1.6c0-0.9,0.6-1.5,1.5-1.5
			C353.3,221.4,354,222.1,354,223z"/>
		<path id="XMLID_72_" class="st5" d="M172.5,162.1c0-5.4,0-10.8,0-16.2c0-0.7,0.1-1,0.9-1.1c4.3-0.6,8.5-0.7,12.7,0.5
			c6.1,1.8,9.4,6,10.3,12.1c0.5,3.5,0.4,6.9-0.6,10.3c-1.8,6.2-5.9,9.8-12.1,11.2c-3.5,0.7-7,0.6-10.5,0.4c-0.7,0-0.6-0.4-0.6-0.8
			C172.5,173,172.5,167.5,172.5,162.1z"/>
		<path id="XMLID_71_" class="st5" d="M245.7,167.8c-0.1,1.5,0.2,3.3-0.3,5c-0.9,3.5-3.6,5.9-7,6.3c-3.6,0.4-7-1.2-8.6-4.4
			c-2.4-4.8-2.3-9.8,0.4-14.5c2-3.4,5.9-4.8,9.6-3.8c3.4,1,5.8,4.3,5.8,8.2C245.7,165.6,245.7,166.6,245.7,167.8z"/>
		<path id="XMLID_70_" class="st5" d="M344.3,170.9c0,0.6,0,1.2,0,1.8c0.2,4.8-5.2,8.5-9.9,7c-2.2-0.7-3.4-2.9-3.2-5.6
			c0.2-2.4,1.6-4,3.7-5c2.9-1.3,5.9-1.4,9-1.5c0.5,0,0.5,0.2,0.5,0.6C344.3,169.2,344.3,170,344.3,170.9z"/>
		<path id="XMLID_69_" class="st1" d="M337.7,84.7c-0.1,2.9-0.7,5.6-2.7,7.9c-3,3.6-8.3,3.6-11.3,0c-3.2-3.9-3.5-10.5-0.6-14.6
			c3.1-4.5,9.4-4.5,12.5,0.1C337,80.1,337.6,82.3,337.7,84.7z"/>
		<path id="XMLID_68_" class="st6" d="M251.1,77.1c1.1,3.2,2.2,6.4,3.3,9.5c0.2,0.4,0,0.6-0.4,0.6c-1.9,0.2-3.9,0.2-5.8,0
			c-0.4,0-0.6-0.1-0.4-0.6c1-3.1,2.1-6.1,3.1-9.2C250.9,77.3,250.9,77.2,251.1,77.1z"/>
		<path id="XMLID_67_" class="st3" d="M307,237.9c-2.6,0-4.3-1.8-4.3-4.3c0-2.5,1.9-4.3,4.3-4.3c2.5,0,4.5,1.9,4.4,4.4
			C311.4,236.2,309.6,237.9,307,237.9z"/>
		<path id="XMLID_66_" class="st3" d="M249.9,237.9c-2.6,0-4.4-1.8-4.4-4.2c0-2.5,1.8-4.3,4.2-4.4c2.5,0,4.5,1.9,4.5,4.3
			C254.3,236.1,252.5,237.9,249.9,237.9z"/>
		<path id="XMLID_65_" class="st7" d="M212.4,232.2c-0.9,0-1.8,0-2.7,0c-0.4,0-0.5-0.1-0.4-0.5c0.3-1.5,1.7-2.7,3.3-2.7
			c1.6,0,2.8,0.9,3.1,2.5c0.1,0.5,0,0.7-0.5,0.7C214.2,232.2,213.3,232.2,212.4,232.2z"/>
		<path id="XMLID_64_" class="st7" d="M369.7,232.2c-0.9,0-1.8,0-2.7,0c-0.3,0-0.5,0-0.4-0.4c0.2-1.6,1.6-2.8,3.3-2.8
			c1.7,0,2.9,1,3.1,2.6c0.1,0.5,0,0.6-0.5,0.6C371.6,232.2,370.7,232.2,369.7,232.2z"/>
	</g>
</g>
</svg>
