<?xml version="1.0" encoding="utf-8"?>
<!-- Generator: Adobe Illustrator 19.0.0, SVG Export Plug-In . SVG Version: 6.00 Build 0)  -->
<svg version="1.1" id="Layer_1" xmlns="http://www.w3.org/2000/svg" xmlns:xlink="http://www.w3.org/1999/xlink" x="0px" y="0px"
	 viewBox="0 0 579 291" style="enable-background:new 0 0 579 291;" xml:space="preserve">
<style type="text/css">
	.st0{fill:#FFFFFF;}
	.st1{fill:#3D3C3E;}
	.st2{fill:#929597;}
	.st3{fill:#0E0E0F;}
	.st4{fill:#0C0C0D;}
	.st5{fill:#0C0C0C;}
	.st6{fill:#151516;}
	.st7{fill:#0E0D0E;}
	.st8{fill:#0F0E0F;}
	.st9{fill:#121212;}
	.st10{fill:#131213;}
	.st11{fill:#121213;}
	.st12{fill:#171718;}
	.st13{fill:#232324;}
	.st14{fill:#F3F4F4;}
	.st15{fill:#FDFDFD;}
	.st16{fill:#FEFEFF;}
	.st17{fill:#FCFCFD;}
	.st18{fill:#3D3D3F;}
	.st19{fill:#939597;}
</style>
<g id="XMLID_9_">
	<g id="XMLID_71_">
		<path id="XMLID_125_" class="st0" d="M76.7,138.8c0-34.6,0-69.3,0-103.9c0-1,0.2-1.2,1.2-1.2c19.8,0,39.6,0,59.4,0
			c0.6,0.7,0.4,1.5,0.4,2.3c0,12,0,24,0,36c0,16.6,0,33.3,0,49.9c0,2.3,0,2.3,2.4,2.3c99.8,0,199.6,0,299.4,0c2.4,0,2.4,0,2.4-2.5
			c0-28.5,0-57,0-85.5c0-0.9-0.2-1.8,0.4-2.6c19.9,0,39.8,0,59.8,0c0.9,0,1.1,0.1,1.1,1.1c0,74.1,0,148.2,0,222.3
			c0,1-0.3,1.1-1.2,1.1c-141.4,0-282.7,0-424.1,0c-1,0-1.2-0.3-1.2-1.2c0-13.5,0-26.9,0-40.4c0.6,0,0.8,0.5,1,0.9
			c1.6,3,4,4.5,7.5,4.5c136,0,272,0,408,0c4.5,0,7.7-2.1,8.9-6c0.3-0.9,0.3-1.7,0.3-2.6c0-23.7,0-47.4,0-71.1c0-5.2-3.1-8.5-8.4-9
			c-0.7-0.1-1.3,0-2,0c-135.1,0-270.2,0-405.2,0c-1.2,0-2.3,0-3.5,0.2c-2.5,0.5-4.4,1.8-5.5,4.1C77.5,138,77.4,138.7,76.7,138.8z"/>
		<path id="XMLID_124_" class="st1" d="M442.3,33.7c0,0.5,0,1.1,0,1.6c0,29.3,0,58.5,0,87.8c0,1.3-0.3,1.6-1.6,1.6
			c-100.6,0-201.2,0-301.8,0c-1.3,0-1.6-0.3-1.6-1.6c0-29.3,0-58.5,0-87.8c0-0.5,0-1.1,0-1.6C238.9,33.7,340.6,33.7,442.3,33.7z"/>
		<path id="XMLID_123_" class="st2" d="M76.7,138.8c0.3-0.2,0.3-0.5,0.4-0.8c1.4-3.4,3.9-5.1,7.5-5.2c0.3,0,0.6,0,0.9,0
			c95.5,0,191,0,286.5-0.1c40.5,0,81,0,121.5,0.1c4.8,0,8.4,2.7,9.2,7.2c0.1,0.5,0.1,1.1,0.1,1.6c0,24,0,48,0,72
			c0,4.9-3.8,8.7-8.7,8.7c-34.4,0-68.8,0-103.1,0c-20.8,0-41.5,0-62.3,0c-81.3,0-162.7,0-244,0c-3.5,0-6.1-1.8-7.5-5
			c-0.1-0.3-0.1-0.7-0.5-0.9C76.7,190.6,76.7,164.7,76.7,138.8z"/>
		<path id="XMLID_122_" class="st3" d="M211.8,243.6c0-2.5,0-5.1,0-7.6c0-0.8,0.2-1.1,1-1c1.6,0.1,3.2,0,4.8,0
			c2.8,0,4.9,1.8,5.1,4.3c0.2,3.1-1.3,4.9-4.4,5.4c-0.5,0.1-1,0.1-1.5,0.1c-2.4,0.1-2.4,0-2.4,2.5c0,1.2-0.1,2.5,0,3.7
			c0.1,1.2-0.5,1.1-1.4,1.1c-0.8,0-1.3,0-1.3-1.1C211.8,248.6,211.8,246.1,211.8,243.6z"/>
		<path id="XMLID_121_" class="st3" d="M248,252c0,1.7-0.1,3.4,0,5c0.1,1-0.5,0.9-1.1,0.9c-0.7,0-1.3,0.2-1.2-0.9
			c0.1-5.1,0-10.1,0-15.2c0-0.7,0.2-1,1-1c1.5,0.1,3-0.1,4.5,0.2c3.6,0.6,5.4,3.3,4.7,6.9c-0.7,3.3-3.4,5.1-6.9,4.4
			C248.8,252.1,248.5,252.1,248,252z"/>
		<path id="XMLID_120_" class="st4" d="M308.8,252.3c-3.5,0-5.9-2.3-5.9-5.7c0-3.4,2.5-5.8,6.1-5.8c3.5,0,6,2.5,6,5.9
			C315,249.9,312.4,252.3,308.8,252.3z"/>
		<path id="XMLID_119_" class="st4" d="M243.2,249c0.3,2.2,0.2,2.4-1.9,3c-2.8,0.8-5.3,0.2-6.8-1.7c-1.5-2-1.7-5.1-0.4-7.3
			c1.2-2.1,3.8-3,6.1-2.2c2,0.7,3.5,3.2,3.3,5.3c-0.1,0.8-0.5,0.6-0.9,0.6c-2,0-4,0.1-6,0c-1.1,0-1.1,0.4-0.8,1.2
			c0.5,1.4,1.8,2.3,3.4,2.3c0.7,0,1.4-0.1,2.1-0.3C241.9,249.6,242.6,249.2,243.2,249z"/>
		<path id="XMLID_118_" class="st4" d="M367.5,248.8c0.2,2.4,0.1,2.6-2.1,3.2c-5.2,1.4-9-2.4-7.6-7.6c0.7-2.5,3.1-4.2,5.6-3.9
			c2.6,0.4,4.4,2.6,4.4,5.3c0,0.7-0.3,0.8-0.9,0.8c-2,0-4.1,0-6.1,0c-0.8,0-1,0.2-0.7,1c0.6,2,2.5,2.9,4.8,2.4
			C365.7,249.8,366.6,249.4,367.5,248.8z"/>
		<path id="XMLID_117_" class="st5" d="M287.9,248.9c0.1,2.4,0,2.7-2.3,3.2c-2.3,0.5-4.7,0.5-6.3-1.6c-1.7-2.2-1.8-4.6-0.7-7
			c1.1-2.3,3.5-3.3,6-2.7c2.1,0.5,3.6,2.9,3.5,5.2c0,0.7-0.4,0.7-0.8,0.7c-2,0-4.1,0-6.1,0c-1,0-1,0.3-0.7,1.1
			c0.7,1.9,2.5,2.8,4.8,2.3C286.2,249.8,287,249.4,287.9,248.9z"/>
		<path id="XMLID_116_" class="st6" d="M334.5,243.5c0-2.4,0.1-4.9,0-7.3c0-1.1,0.4-1.3,1.4-1.3c1.1,0,1.3,0.4,1.3,1.4
			c-0.1,4.1,0,8.2,0,12.3c0,1,0.2,1.4,1.3,1.3c1.8-0.1,3.6,0,5.5-0.1c1,0,1,0.4,0.9,1.1c0,0.6,0.1,1.2-0.9,1.2c-2.8-0.1-5.6,0-8.4,0
			c-0.8,0-1-0.2-1-1C334.5,248.6,334.5,246.1,334.5,243.5z"/>
		<path id="XMLID_115_" class="st7" d="M257.7,244.5c-0.1-2.8,0.6-3.7,3.3-4c2.4-0.2,4.3,1.1,4.5,3.3c0.1,1.7,0.1,3.5,0.1,5.2
			c0,1.8,0,1.8,1.6,1.1c0.2,0.7,0.2,1.4-0.7,1.8c-0.9,0.4-1.9,0.7-2.7,0c-0.5-0.5-0.8-0.5-1.3-0.1c-0.5,0.3-1.1,0.5-1.8,0.5
			c-1.3,0.1-2.4-0.4-2.9-1.6c-0.5-1.2-0.1-2.5,1-3.5c1-0.9,2.3-1.1,3.5-1.6c0.5-0.2,1.2-0.2,1.1-1c-0.1-0.8-0.3-1.5-1.2-1.8
			c-1.1-0.4-2,0-2.9,0.5C258.7,243.7,258.3,244.1,257.7,244.5z"/>
		<path id="XMLID_114_" class="st8" d="M297.8,247.5c0-1,0-2,0-3.1c0-0.8,0.2-1.7-1.2-1.6c-0.8,0.1-0.3-0.8-0.4-1.3
			c-0.1-0.4-0.1-0.9,0.5-0.8c1.1,0.2,1-0.5,1.1-1.2c0.1-3.3,2-5.1,4.7-4.8c1.2,0.1,0.8,0.9,0.9,1.5c0.1,0.9-0.4,0.7-1,0.7
			c-1.7,0-3,2-2.3,3.5c0.2,0.5,0.7,0.3,1,0.2c1-0.1,0.9,0.4,1,1.1c0,0.8-0.1,1.2-1,1c-0.9-0.2-1.1,0.3-1,1.1c0,2.4,0,4.8,0,7.2
			c0,1-0.5,0.9-1.1,0.9c-0.6,0-1.2,0.1-1.2-0.9C297.8,250,297.8,248.7,297.8,247.5z"/>
		<path id="XMLID_113_" class="st3" d="M352.3,247.5c0-1.2,0-2.5,0-3.7c0-0.5,0-0.9-0.7-0.8c-1,0.2-0.9-0.4-0.9-1.1
			c0-0.7,0.1-1.2,1-1.1c0.5,0.1,0.7-0.2,0.7-0.7c0-0.8,0.1-1.7,0.3-2.5c0.6-1.8,2-2.8,3.9-2.8c1.1,0,1.7,0.3,1.4,1.5
			c-0.1,0.5,0,0.9-0.8,0.8c-1.9-0.2-3.1,1.5-2.5,3.3c0.2,0.7,0.8,0.4,1.1,0.3c1.1-0.1,0.8,0.6,0.9,1.2c0,0.7,0,1.2-0.9,1
			c-0.9-0.2-1.2,0.2-1.2,1.1c0.1,2.3,0,4.6,0,6.9c0,1-0.4,1.2-1.2,1.2c-0.8,0-1.2-0.1-1.1-1.1C352.4,249.9,352.3,248.7,352.3,247.5z
			"/>
		<path id="XMLID_112_" class="st9" d="M226.9,243.1c0.6-0.7,0.9-1.1,1.3-1.5c1-1,2.2-1.2,3.4-0.6c1.4,0.7,1.5,1.6,0.3,2.7
			c-0.3,0.3-0.4,0-0.6-0.1c-2.2-1.3-4.1-0.4-4.3,2.3c-0.1,1.8-0.1,3.6,0,5.3c0.1,1.1-0.6,1-1.2,1c-0.7,0-1.1,0-1.1-1
			c0.1-3.1,0.1-6.2,0-9.3c0-0.9,0.3-1.1,1.1-1.1c0.8,0,1.4,0,1.2,1.1C226.8,242.1,226.9,242.5,226.9,243.1z"/>
		<path id="XMLID_111_" class="st10" d="M319.8,243.2c0.5-0.6,0.8-1.1,1.2-1.5c1-1.1,2.2-1.4,3.4-0.8c1.5,0.6,1.6,1.5,0.5,2.7
			c-0.3,0.3-0.5,0.2-0.7,0c-2-1.7-3.9,0-4.2,2c-0.1,0.4-0.1,0.8-0.1,1.2c0,1.5-0.1,2.9,0,4.4c0.1,0.9-0.3,1.1-1.1,1.1
			c-0.7,0-1.2,0-1.2-1c0.1-3.1,0.1-6.2,0-9.3c0-1,0.4-1,1.2-1c0.8,0,1.3,0.1,1.1,1C319.7,242.2,319.8,242.5,319.8,243.2z"/>
		<path id="XMLID_110_" class="st11" d="M271.5,243.1c0.6-0.7,1.1-1.2,1.6-1.7c0.9-0.9,1.9-1,3.1-0.5c1.4,0.7,1.5,1,0.6,2.3
			c-0.3,0.4-0.4,0.6-1,0.3c-1.9-1.2-3.5-0.6-4,1.7c-0.5,1.8-0.1,3.7-0.2,5.6c0,1.4-0.5,1.7-1.9,1.4c-0.6-0.1-0.5-0.6-0.5-0.9
			c0-3.2,0-6.4,0-9.6c0-1.2,0.8-0.8,1.3-0.8c0.6-0.1,1.2,0,1,0.9C271.5,242,271.5,242.4,271.5,243.1z"/>
		<path id="XMLID_109_" class="st12" d="M346.6,246.5c0-1.6,0.1-3.3,0-4.9c0-1.1,0.7-0.8,1.2-0.8c0.5,0,1.1-0.2,1.1,0.8
			c-0.1,3.2-0.1,6.5,0,9.7c0,0.9-0.4,0.9-1.1,0.9c-0.6,0-1.3,0.3-1.3-0.8C346.6,249.7,346.6,248.1,346.6,246.5z"/>
		<path id="XMLID_108_" class="st13" d="M346.4,237.4c0.1-0.8,0.5-1.3,1.3-1.3c0.8,0,1.3,0.5,1.3,1.3c0,0.8-0.6,1.3-1.4,1.3
			C346.9,238.7,346.4,238.3,346.4,237.4z"/>
		<path id="XMLID_107_" class="st14" d="M400.4,85.3c0-1.9,0-3.8,0-5.6c0-5.9,0.1-11.7-0.3-17.6c-0.1-1,0.2-1.2,1.1-0.9
			c1.6,0.5,3.2,0.1,4.8-0.2c-0.3,3.7-0.5,7.3-0.6,10.9c-0.2,7.7-0.4,15.4,0.3,23c0.2,1.9,0.2,1.7-1.8,2c-2.7,0.4-4.1-0.8-5.6-3
			c-5-7.2-10.3-14.3-15.6-21.3c-0.2-0.2-0.3-0.4-0.8-0.6c0,1.9,0,3.7,0,5.6c0.1,6.1-0.2,12.2,0.3,18.3c0.1,0.9-0.2,1.1-1,1
			c-1.3-0.1-2.6-0.1-3.9,0c-0.8,0.1-0.8-0.2-0.8-0.9c0.7-11.4,0.8-22.7,0-34.1c0-0.7,0-1,0.8-0.9c0.3,0,0.5,0.1,0.8,0
			c2.9-0.6,4.6,0.8,6.2,3.1c4.8,6.8,9.9,13.4,14.9,20.1C399.5,84.7,399.7,85.1,400.4,85.3z"/>
		<path id="XMLID_106_" class="st14" d="M333.3,78.8c-0.2-9.8,8.3-18.8,19.1-17.9c9.8,0.7,17.3,9.9,16,20c-1,7.9-6.2,14.3-13.2,16.1
			c-10.1,2.6-19.8-3.9-21.6-14.3C333.5,81.4,333.4,80.1,333.3,78.8z"/>
		<path id="XMLID_105_" class="st14" d="M286.1,80.5c4.2,5.5,8.3,11,12.5,16.6c-2.7-0.2-5.1-0.2-7.5-0.1c-0.6,0-0.8-0.3-1-0.6
			c-3.1-4.7-6.3-9.4-9.7-13.9c-0.9-1.2-0.4-2.7-0.5-4.1c0-0.5,0.5-0.3,0.9-0.3c4.3-0.3,6.5-2.7,6.5-6.8c0-2.9-2.2-5.2-5.5-5.7
			c-4.3-0.6-4.4-0.5-4.4,3.7c0,8.9,0.3,17.8,0.6,26.6c0,1-0.2,1.2-1.1,1.1c-1.6-0.1-3.3-0.1-4.9,0c-0.7,0-0.9,0-0.9-0.8
			c0.8-10.8,0.5-21.6,0.2-32.4c0-0.9-0.7-2.2,0-2.7c0.6-0.4,1.8,0.1,2.7,0.1c2.4,0,4.9-0.1,7.3-0.2c1.9,0,3.7,0.3,5.5,0.8
			c4.3,1.3,6.7,4.2,6.8,8.4c0.1,4.5-2.3,8.4-6.3,9.9C287,80.2,286.5,80.3,286.1,80.5z"/>
		<path id="XMLID_104_" class="st14" d="M231.2,96.9c1.4-3.5,2.7-7,4.1-10.5c3-8.1,6.1-16.2,8.5-24.5c0.2-0.6,0.4-0.8,1.1-0.8
			c1.5,0.1,3,0,4.5,0c0.5,0,0.8,0,1,0.6c3.8,11.8,8.3,23.3,12.8,34.8c0,0.1,0,0.3,0,0.4c-2.2,0-4.4,0-6.5,0c-0.7,0-0.7-0.4-0.8-0.8
			c-0.9-2.8-1.9-5.5-2.7-8.3c-0.2-0.8-0.6-1-1.4-1c-3.3-0.1-6.6-0.1-9.9,0c-1.3,0-1.9,0.4-2.2,1.6c-0.6,2.6-1.5,5.1-2.2,7.7
			c-0.2,0.7-0.4,1-1.3,0.9C234.6,96.9,232.9,96.9,231.2,96.9z"/>
		<path id="XMLID_103_" class="st14" d="M173.6,97.1c0.4-6.2,0.5-12.1,0.5-18.1c0-5.8,0.1-11.5-0.5-17.3c0-0.4-0.2-0.8,0.5-0.8
			c4.8,0.3,9.7-0.5,14.5,0.4c8.3,1.5,11.8,10.1,6.8,16.6c-3,3.8-7.3,5.2-12,5.5c-0.1,0-0.3,0-0.4,0c-0.8-0.9-0.2-2.1-0.4-3.1
			c-0.1-0.5,0.1-0.8,0.7-0.8c1.4-0.1,2.7-0.4,4-1c2.9-1.4,4.5-4.3,4.1-7.4c-0.5-3.1-2.7-5.2-6-5.7c-1.5-0.2-3-0.1-4.5-0.2
			c-0.7,0-0.9,0.2-0.9,0.9c0,6,0.1,12.1,0.2,18.1c0.1,4.1,0.2,8.3,0.5,12.4c0.1,0.8-0.3,0.7-0.8,0.6
			C177.8,96.6,175.7,96.7,173.6,97.1z"/>
		<path id="XMLID_102_" class="st14" d="M218.5,92.4c1.7-0.1,3.4-0.2,5.1-0.3c0.7-0.1,1.2,0,1.1,1c-0.1,1.1-0.1,2.1-0.1,3.2
			c0,0.6-0.2,0.9-1,0.9c-5.8-0.5-11.6-0.5-17.4,0c-1.1,0.1-0.8-0.5-0.7-1.1c0.4-5.4,0.4-10.7,0.4-16.1c0-5.9-0.1-11.8-0.5-17.7
			c-0.1-1.1,0.2-1.4,1.3-1.3c5.5,0.4,10.9,0.4,16.4,0c1-0.1,1.3,0.2,1.2,1.2c-0.1,0.7,0,1.5,0,2.3c0,1.7,0,1.7-1.7,1.5
			c-3.2-0.3-6.4-0.4-9.6-0.5c-0.7,0-1,0.1-1,0.9c0,2.9,0,5.9,0,8.8c0,0.7,0.3,0.8,0.9,0.8c3.2,0.2,6.3,0,9.4-0.4
			c1.1-0.1,1.6,0.1,1.5,1.3c-0.2,1.2,0.5,2.7-0.2,3.5c-0.7,0.7-2.3,0-3.4,0c-2.4,0-4.8,0-7.2,0c-0.6,0-0.9,0.1-0.9,0.9
			c0,3.4-0.1,6.8-0.2,10.1c0,0.9,0.3,1.2,1.1,1.2c1.9,0,3.7,0,5.6,0C218.5,92.5,218.5,92.4,218.5,92.4z"/>
		<path id="XMLID_101_" class="st14" d="M322.7,69.1c-0.6-0.6-1.2-1.2-1.9-1.7c-1.6-1.5-3.5-2.2-5.8-1.9c-1.5,0.2-2.6,1-3.2,2.4
			c-0.6,1.5-0.2,2.8,0.9,3.9c1.5,1.5,3.2,2.6,5,3.8c1.6,1,3.2,1.9,4.6,3.1c3.5,2.9,4.7,7.2,3.3,11.7c-1.4,4.3-4.7,6.2-8.9,6.8
			c-4.5,0.6-8.5-0.9-12.2-3.3c-0.5-0.3-0.6-0.6-0.3-1.2c0.8-1.4,1.4-2.9,1.9-4.6c1.4,1.2,2.7,2.3,4.2,3.1c1.8,0.9,3.7,1.6,5.8,1.1
			c3.2-0.8,4.7-4.3,2.9-7.1c-0.9-1.4-2.1-2.4-3.4-3.4c-2.6-2-5.5-3.5-7.7-5.9c-3-3.2-3.3-8.1-0.5-11.4c1.7-2.1,4-3.2,6.7-3.5
			c3.9-0.5,7.5,0.6,10.7,2.7c0.5,0.3,0.6,0.5,0.3,1C324,66.1,323.3,67.6,322.7,69.1z"/>
		<path id="XMLID_100_" class="st0" d="M437.7,220.2c-18.6,0-37.3,0-55.9,0c-1.2,0-1.5-0.3-1.5-1.5c0-27.4,0-54.7,0-82.1
			c0-1.4,0.4-1.6,1.7-1.6c37.1,0,74.3,0,111.4,0c4.6,0,7.3,2.6,7.3,7.2c0,23.6,0,47.1,0,70.7c0,4.5-2.7,7.2-7.2,7.2
			C474.9,220.2,456.3,220.2,437.7,220.2z"/>
		<path id="XMLID_99_" class="st0" d="M106.3,174.8c0-7.3,0-14.6,0-21.9c0-0.8,0.1-1.2,1.1-1.4c6.9-0.8,13.8-1.4,20.7,0.1
			c10.4,2.2,16.5,9.7,16.8,20.4c0.1,5.3-0.6,10.4-3.3,15.2c-3.3,6-8.7,9-15.1,10.4c-6.3,1.4-12.7,0.9-19.1,0.5
			c-0.9-0.1-1.1-0.5-1.1-1.4C106.3,189.4,106.3,182.1,106.3,174.8z"/>
		<path id="XMLID_98_" class="st0" d="M192.2,169.2c0.1-1.6,0.2-2.8,0.2-4c0-0.7,0.2-1.1,1-1c0.8,0.1,1.6,0,2.4,0c2.1,0,2.1,0,2,2
			c-0.4,9.2-0.1,18.3-0.2,27.5c0,2.5-0.2,5-0.8,7.4c-1.3,5.7-4.8,9.3-10.5,10.7c-5.4,1.3-10.7,0.9-15.9-1.4c-1-0.5-1.3-1-0.8-2
			c0.5-1,0.5-2.6,1.2-3.1c0.7-0.5,1.9,0.8,2.9,1.1c2.6,0.9,5.3,1.4,8.1,1.2c5.5-0.4,9-3.9,9.5-9.5c0.1-1.8,0-3.6,0-5.8
			c-1.7,2.5-3.8,4.1-6.4,4.9c-5.9,1.9-12-0.2-15.6-5.3c-4.7-6.7-4-17.8,1.6-23.8c4.5-4.9,12.3-6.1,17.5-2.7
			C190,166.3,191.1,167.6,192.2,169.2z"/>
		<path id="XMLID_97_" class="st0" d="M245.8,193.5c3.1,0,6.2-0.4,9.1-1.6c0.6-0.3,0.8-0.1,1,0.5c0.2,0.9,0.3,1.8,0.7,2.7
			c0.5,1.3,0,1.7-1.2,2.1c-3.2,1-6.6,1.4-10,1.5c-4.6,0.1-8.9-0.6-13-2.8c-6.7-3.6-9.9-9.6-10.9-16.9c-0.7-5.1-0.2-10,1.8-14.8
			c3.5-8.1,9.8-12.5,18.4-13.7c4.7-0.7,9.4-0.3,13.9,1.2c1.1,0.4,1.4,0.8,0.9,1.9c-0.3,0.8-0.6,1.6-0.7,2.4c-0.2,1-0.6,1.2-1.6,0.8
			c-4.7-1.8-9.6-2-14.5-0.6c-6.6,2-11.1,7.8-11.8,15c-0.3,3.4-0.2,6.7,0.7,10c2.1,7.4,8.1,12,15.8,12.2
			C244.9,193.5,245.3,193.5,245.8,193.5z"/>
		<path id="XMLID_96_" class="st0" d="M298.3,193.8c-2,2.5-4.5,4.1-7.6,4.7c-2.2,0.4-4.5,0.4-6.7-0.3c-7.8-2.7-8.1-12.6-3-17
			c2.8-2.5,6.3-3.6,9.9-4.1c2-0.3,4-0.4,6-0.5c0.7,0,1-0.2,1-1c0.1-4.4-2.6-7.3-7-7.4c-3.4-0.1-6.5,0.6-9.5,2.4
			c-0.5-1.3-0.9-2.5-1.3-3.7c-0.1-0.4,0-0.6,0.3-0.8c5.8-2.8,11.7-3.9,17.8-1c3.6,1.7,5,5,5.6,8.7c0.5,3.1,0.2,6.3,0.2,9.4
			c0.1,4.7-0.2,9.3,0.4,14c0.1,0.7-0.1,0.8-0.7,0.8c-1.3,0-2.7,0-4,0c-0.6,0-0.8-0.2-0.9-0.7C298.7,196.2,298.7,195,298.3,193.8z"/>
		<path id="XMLID_95_" class="st0" d="M324.2,163.6c2.5,0,4.9,0.4,7.1,1.5c0.8,0.4,1.1,0.7,0.7,1.6c-0.4,1-0.5,2.5-1.2,3
			c-0.8,0.6-1.9-0.6-2.9-0.9c-2.1-0.6-4.2-0.9-6.3-0.3c-1.6,0.5-2.8,1.6-3.1,3.3c-0.3,1.9,0.3,3.4,1.9,4.5c1.3,0.9,2.7,1.5,4.2,2
			c1.8,0.7,3.5,1.5,5.1,2.6c5.7,4.2,5.2,12.9-1.1,16.1c-5.4,2.8-10.9,2.1-16.3-0.2c-0.5-0.2-0.7-0.5-0.5-1.1
			c0.4-1.2,0.4-2.8,1.2-3.4c0.9-0.8,2.1,0.6,3.2,1c2.5,0.7,4.9,1.2,7.5,0.6c2-0.5,3.5-1.6,3.9-3.8c0.4-2.2-0.4-3.9-2.3-5.2
			c-1.2-0.8-2.4-1.3-3.7-1.8c-1.6-0.6-3.1-1.3-4.5-2.2c-3-1.9-4.9-4.5-4.6-8.2c0.4-4.1,2.7-6.8,6.4-8.3
			C320.5,163.8,322.3,163.5,324.2,163.6z"/>
		<path id="XMLID_94_" class="st0" d="M351.8,163.6c2.3,0,4.7,0.4,7,1.5c0.8,0.4,1,0.8,0.7,1.6c-0.4,1-0.4,2.5-1.2,3
			c-0.8,0.6-1.9-0.7-2.9-0.9c-2-0.5-4.1-0.9-6.2-0.3c-1.8,0.5-3,1.6-3.3,3.5c-0.3,1.9,0.4,3.4,2,4.5c1.3,0.8,2.7,1.4,4.1,1.9
			c1.9,0.7,3.7,1.5,5.3,2.7c3.1,2.4,4.1,5.6,3.5,9.3c-0.6,3.7-2.8,6.1-6.3,7.3c-5,1.8-9.9,1.3-14.8-0.9c-0.6-0.3-0.9-0.6-0.6-1.3
			c0.4-0.9,0.6-1.8,0.8-2.7c0.2-0.9,0.5-1.1,1.4-0.6c3,1.5,6.1,2.3,9.4,1.6c2.1-0.4,3.6-1.6,4-3.7c0.5-2.2-0.4-4-2.4-5.3
			c-1.2-0.8-2.5-1.3-3.8-1.8c-1.8-0.7-3.4-1.5-5-2.6c-5.8-4-4.4-11.6,0.2-14.7C346.3,164.1,348.9,163.5,351.8,163.6z"/>
		<path id="XMLID_93_" class="st0" d="M270.2,173.3c0,7.7,0,15.5,0,23.2c0,1.3-0.4,1.6-1.6,1.5c-1.1-0.1-2.3-0.1-3.5,0
			c-0.9,0.1-1.2-0.2-1.2-1.2c0.1-4,0-8,0-12c0-11.6,0-23.2,0-34.8c0-1.2,0.3-1.6,1.5-1.5c1.1,0.1,2.3,0.1,3.5,0
			c1-0.1,1.3,0.3,1.3,1.3c0,5.2,0,10.5,0,15.7C270.2,168.2,270.2,170.8,270.2,173.3z"/>
		<path id="XMLID_92_" class="st0" d="M158.6,181.1c0,5.2,0,10.5,0,15.7c0,0.9-0.2,1.3-1.2,1.2c-1.3-0.1-2.6-0.1-3.9,0
			c-0.9,0-1.2-0.2-1.1-1.1c0.1-2.9,0-5.9,0-8.8c0-7.6,0-15.1,0-22.7c0-1,0.2-1.4,1.2-1.3c1.2,0.1,2.5,0.1,3.7,0
			c0.9-0.1,1.2,0.2,1.2,1.2C158.6,170.6,158.6,175.9,158.6,181.1z"/>
		<path id="XMLID_91_" class="st0" d="M213.8,181.2c0,5.1,0,10.2,0,15.3c0,1.3-0.4,1.6-1.6,1.5c-1.1-0.1-2.2-0.1-3.3,0
			c-1,0.1-1.3-0.3-1.3-1.3c0-7.4,0-14.8,0-22.2c0-3,0-6,0-9.1c0-0.9,0.2-1.3,1.2-1.2c1.3,0.1,2.6,0.1,3.9,0c0.9-0.1,1.2,0.3,1.2,1.2
			C213.8,170.7,213.8,176,213.8,181.2z"/>
		<path id="XMLID_90_" class="st0" d="M210.7,150.3c2.4,0,3.9,1.5,3.9,3.9c0,2.4-1.6,4-4,4c-2.3,0-3.9-1.7-3.9-4
			C206.7,151.9,208.4,150.3,210.7,150.3z"/>
		<path id="XMLID_89_" class="st0" d="M155.6,150.3c2.4,0,3.9,1.6,3.9,3.9c0,2.4-1.6,4-4,3.9c-2.3,0-3.9-1.7-3.8-4
			C151.7,151.8,153.3,150.3,155.6,150.3z"/>
		<path id="XMLID_88_" class="st0" d="M214.3,239.8c0-2.8,0-2.8,2.9-2.6c2.1,0.2,2.9,1,2.8,2.8c-0.1,1.6-1.1,2.4-3,2.4
			C214.3,242.5,214.3,242.5,214.3,239.8z"/>
		<path id="XMLID_87_" class="st15" d="M248,246.4c0-0.3,0-0.6,0-0.9c0.1-0.8-0.4-1.9,0.3-2.5c0.8-0.6,3.6,0.1,4.4,0.9
			c1.1,1.1,1.2,3.3,0.3,4.8c-0.8,1.4-2.4,1.9-4,1.5c-0.7-0.2-1.1-0.4-1-1.2C248.1,248.1,248,247.3,248,246.4z"/>
		<path id="XMLID_86_" class="st16" d="M312.6,246.6c0,2.2-1.5,3.6-3.8,3.6c-2.1,0-3.7-1.6-3.7-3.7c0.1-2.1,1.6-3.6,3.7-3.6
			C311,242.9,312.6,244.4,312.6,246.6z"/>
		<path id="XMLID_85_" class="st15" d="M241.2,245.3c-1.8,0-3.6,0-5.4,0c0.3-1.8,1.2-2.7,2.9-2.7
			C240.1,242.6,240.9,243.4,241.2,245.3z"/>
		<path id="XMLID_84_" class="st15" d="M359.9,245.3c0.5-1.9,1.3-2.7,2.7-2.7c1.3,0,2.2,0.5,2.6,1.8c0.2,0.6,0.2,1-0.6,0.9
			C363.1,245.3,361.6,245.3,359.9,245.3z"/>
		<path id="XMLID_83_" class="st15" d="M285.8,245.3c-1.8,0-3.6,0-5.4,0c0.4-1.9,1.4-2.8,3-2.6C284.9,242.7,285.7,243.5,285.8,245.3
			z"/>
		<path id="XMLID_82_" class="st17" d="M263.3,246.6c0,0.9-0.1,1.6,0,2.3c0.1,1.2-0.6,1.6-1.5,1.7c-0.9,0.2-1.6-0.1-1.9-1
			c-0.3-1,0.2-1.6,1-2C261.6,247.3,262.3,247,263.3,246.6z"/>
		<path id="XMLID_81_" class="st1" d="M339.9,78.4c0.2-3.8,1.3-7.7,4.6-10.6c3.8-3.3,9.6-3.2,13.2,0.4c4,4,4.9,9,3.9,14.4
			c-0.3,1.5-0.7,2.9-1.4,4.3c-2,3.8-4.9,6.2-9.4,6.1c-4.4-0.1-7.2-2.5-9.1-6.3C340.5,84.1,340,81.5,339.9,78.4z"/>
		<path id="XMLID_80_" class="st18" d="M246.3,68.4c1.6,4.5,3.1,8.7,4.5,12.9c0.2,0.6,0,0.7-0.5,0.7c-2.6,0.3-5.2,0.3-7.8,0
			c-0.7-0.1-0.7-0.3-0.5-0.8C243.4,77,244.8,72.9,246.3,68.4z"/>
		<path id="XMLID_79_" class="st19" d="M396.7,173.6c0-7.6,0-15.3,0-22.9c0-1.1,0.3-1.4,1.4-1.6c5.8-0.7,11.6-1.2,17.4-0.1
			c6.9,1.4,11.2,6.1,11.6,12.5c0.5,7.5-3,13.2-9.8,15.7c-4,1.5-8.2,1.9-12.5,1.4c-1.7-0.2-1.7-0.2-1.7,1.5c0,5.6,0,11.1,0,16.7
			c0,1-0.3,1.4-1.3,1.3c-1.3-0.1-2.6-0.1-3.9,0c-1,0.1-1.3-0.3-1.3-1.3c0-7.2,0-14.3,0-21.5C396.7,174.8,396.7,174.2,396.7,173.6z"
			/>
		<path id="XMLID_78_" class="st2" d="M451.9,178.5c0.1-4.5,2.1-10.2,7.9-13.9c9.6-6.1,25.4-2.3,26.6,13.5c0.3,3.6-0.1,7.1-1.5,10.4
			c-3.2,7.6-10.9,11.2-18.5,10.1C457.2,197.4,451.9,190.5,451.9,178.5z"/>
		<path id="XMLID_77_" class="st19" d="M438.6,169.3c0.8-1.8,1.7-3.4,3.1-4.7c2.1-1.9,4.6-2.9,7.5-2.6c0.7,0.1,1,0.3,1,1
			c-0.1,1.4,0,2.8,0,4.3c0,0.7-0.2,0.9-0.9,0.9c-6.1-0.1-9.8,3.3-10,9.4c-0.2,6.2-0.1,12.4-0.1,18.5c0,2,0,2-2.1,2
			c-1.2,0-2.3,0-3.5,0c-0.8,0-1.1-0.2-1.1-1c0.1-2.2,0-4.4,0-6.5c0-7.7,0-15.4,0-23.1c0-1.3-0.1-2.7-0.2-4c0-0.6,0.2-0.9,0.8-0.9
			c1.3,0,2.6,0.1,3.9,0c0.8,0,1.1,0.3,1.1,1.1c0,1.9,0,3.7,0,5.6C438.3,169.3,438.5,169.3,438.6,169.3z"/>
		<path id="XMLID_76_" class="st2" d="M112.4,174.7c0-5.8,0-11.6,0-17.3c0-0.6-0.1-1.2,0.8-1.4c5.6-0.7,11.2-0.9,16.5,1.6
			c5.4,2.6,8,7.2,8.5,12.9c0.4,3.8,0.2,7.6-1.1,11.3c-2.4,6.9-7.6,10.4-14.6,11.4c-3,0.4-6,0.4-9,0.1c-0.9-0.1-1.1-0.4-1.1-1.3
			C112.5,186.3,112.4,180.5,112.4,174.7z"/>
		<path id="XMLID_75_" class="st2" d="M191.4,180.9c-0.1,1.4,0.2,3.1-0.2,4.8c-0.8,3.9-3.6,6.8-7.1,7.4c-4.2,0.7-7.8-1.1-9.8-4.8
			c-2.9-5.2-2-13.3,1.9-17.2c2.6-2.6,6.5-3.4,9.8-2c3.2,1.3,5.4,4.7,5.5,8.3C191.4,178.4,191.4,179.5,191.4,180.9z"/>
		<path id="XMLID_74_" class="st19" d="M297.9,184.6c0.4,2.9-0.3,5.5-2.6,7.5c-2.2,1.9-4.7,2.5-7.4,2c-2.1-0.4-3.5-1.8-3.9-4
			c-0.6-2.7,0.1-4.9,2.3-6.6c2-1.5,4.3-2,6.7-2.3c1.1-0.1,2.3-0.1,3.4-0.3c1.1-0.1,1.7,0.1,1.5,1.4
			C297.9,182.9,297.9,183.8,297.9,184.6z"/>
		<path id="XMLID_73_" class="st0" d="M403.1,163.5c0-2.8,0-5.6,0-8.4c0-0.7,0.1-1.2,0.9-1.3c3.1-0.3,6.1-0.6,9.1,0.2
			c4.7,1.1,7.2,4,7.5,8.6c0.3,4.8-2.2,8.6-6.6,10.1c-3.3,1.1-6.7,1-10.1,0.6c-0.8-0.1-0.8-0.6-0.8-1.2
			C403.1,169.2,403.1,166.3,403.1,163.5z"/>
		<path id="XMLID_72_" class="st0" d="M479.7,180.1c0,3.7-0.8,6.9-2.8,9.7c-4.1,5.7-11.9,5.6-15.9-0.2c-3.4-4.9-3.5-13.1-0.2-18.1
			c2.2-3.4,5.4-5,9.4-4.6c3.9,0.3,6.4,2.7,8,6C479.3,175.3,479.8,177.8,479.7,180.1z"/>
	</g>
</g>
</svg>
