<?xml version="1.0" encoding="utf-8"?>
<!-- Generator: Adobe Illustrator 19.0.0, SVG Export Plug-In . SVG Version: 6.00 Build 0)  -->
<svg version="1.1" id="Layer_1" xmlns="http://www.w3.org/2000/svg" xmlns:xlink="http://www.w3.org/1999/xlink" x="0px" y="0px"
	 viewBox="0 0 579 291" style="enable-background:new 0 0 579 291;" xml:space="preserve">
<style type="text/css">
	.st0{fill:#FFFFFF;}
	.st1{fill:#991D50;}
	.st2{fill:#F27523;}
	.st3{fill:#242021;}
	.st4{fill:#242020;}
	.st5{fill:#262222;}
	.st6{fill:#242121;}
	.st7{fill:#252122;}
	.st8{fill:#272324;}
	.st9{fill:#2D2829;}
	.st10{fill:#F8F0E2;}
	.st11{fill:#FFFFFE;}
	.st12{fill:#FDFCFC;}
	.st13{fill:#FFFEFE;}
	.st14{fill:#FEFEFE;}
	.st15{fill:#FCFCFC;}
	.st16{fill:#FDFDFD;}
	.st17{fill:#991E50;}
</style>
<g id="XMLID_9_">
	<g id="XMLID_72_">
		<path id="XMLID_126_" class="st0" d="M76.7,138.8c0-34.6,0-69.3,0-103.9c0-1,0.2-1.2,1.2-1.2c19.8,0,39.6,0,59.4,0
			c0.6,0.7,0.4,1.5,0.4,2.3c0,12.1,0,24.2,0,36.3c0,16.5,0,33.1,0,49.6c0,2.3,0,2.3,2.4,2.3c99.8,0,199.6,0,299.4,0
			c2.4,0,2.4,0,2.4-2.5c0-28.5,0-57,0-85.5c0-0.9-0.2-1.8,0.4-2.6c19.9,0,39.8,0,59.8,0c0.9,0,1.1,0.1,1.1,1.1
			c0,74.1,0,148.2,0,222.3c0,1-0.3,1.1-1.2,1.1c-141.4,0-282.7,0-424.1,0c-1,0-1.2-0.3-1.2-1.2c0-13.5,0-26.9,0-40.4
			c0.6,0,0.8,0.5,1,0.9c1.6,3,4,4.5,7.5,4.5c136,0,272,0,408,0c4.6,0,7.7-2.1,8.9-6c0.3-0.9,0.3-1.7,0.3-2.6c0-23.7,0-47.4,0-71.1
			c0-5.2-3.1-8.5-8.4-9c-0.7-0.1-1.3,0-2,0c-135.1,0-270.2,0-405.2,0c-1.2,0-2.3,0-3.5,0.2c-2.5,0.5-4.4,1.8-5.5,4.1
			C77.5,138,77.4,138.7,76.7,138.8z"/>
		<path id="XMLID_125_" class="st1" d="M442.3,33.7c0,0.5,0,1.1,0,1.6c0,29.3,0,58.5,0,87.8c0,1.3-0.3,1.6-1.6,1.6
			c-100.6,0-201.2,0-301.8,0c-1.3,0-1.6-0.3-1.6-1.6c0-29.3,0-58.5,0-87.8c0-0.5,0-1.1,0-1.6C238.9,33.7,340.6,33.7,442.3,33.7z"/>
		<path id="XMLID_124_" class="st2" d="M76.7,138.8c0.5-0.4,0.4-0.9,0.7-1.4c1.4-2.9,3.8-4.4,7-4.6c0.3,0,0.6,0,0.9,0
			c95.1,0,190.3-0.1,285.4-0.1c41,0,81.9,0.1,122.9,0c6,0,9.5,4.7,9.4,9.4c-0.1,23.7-0.1,47.4-0.1,71.1c0,5.2-3.7,9-9,9
			c-34.2,0-68.4,0-102.6,0c-20.7,0-41.4,0-62.2,0c-81.3,0-162.5,0-243.8,0.1c-4.1,0-6.9-1.7-8.4-5.5c-0.1-0.2-0.1-0.3-0.3-0.4
			C76.7,190.6,76.7,164.7,76.7,138.8z"/>
		<path id="XMLID_123_" class="st3" d="M211.7,243.5c0-2.5,0-5.1,0-7.6c0-0.8,0.2-1,1-1c1.7,0.1,3.4,0,5.1,0
			c2.7,0.1,4.7,1.8,4.9,4.2c0.2,3.1-1.2,4.9-4.1,5.5c-1.1,0.2-2.1,0.2-3.2,0.1c-0.9-0.1-1,0.3-1,1.1c0.1,1.8,0,3.6,0,5.5
			c0.1,1.3-0.8,0.9-1.4,0.9c-0.7,0-1.3,0.1-1.3-1C211.8,248.6,211.7,246.1,211.7,243.5z"/>
		<path id="XMLID_122_" class="st3" d="M248.1,252c0,1.7-0.1,3.3,0,5c0.1,1-0.6,0.9-1.2,0.9c-0.6,0-1.3,0.2-1.3-0.9
			c0.1-5.1,0-10.1,0-15.2c0-0.7,0.1-1,0.9-1c1.3,0.1,2.7,0,4,0.1c3.7,0.2,5.7,2.7,5.4,6.6c-0.3,3.2-3,5.2-6.4,4.9
			C249.1,252.2,248.7,252.1,248.1,252z"/>
		<path id="XMLID_121_" class="st4" d="M308.8,252.3c-3.5,0-6-2.4-6-5.8c0-3.4,2.5-5.8,6.1-5.8c3.5,0,6,2.4,6,5.9
			C315,250,312.4,252.3,308.8,252.3z"/>
		<path id="XMLID_120_" class="st3" d="M243.3,248.8c0.2,2.5,0.1,2.5-2.1,3.2c-2.8,0.8-5.3,0.1-6.7-1.8c-1.5-2.1-1.6-5.4-0.1-7.5
			c1.3-1.9,3.9-2.7,6.1-1.8c1.9,0.8,3.3,3.2,3.1,5.3c-0.1,0.7-0.6,0.5-1,0.5c-2,0-4,0-6,0c-0.9,0-1.1,0.3-0.8,1.1
			c0.6,1.8,2.4,2.7,4.6,2.3C241.4,249.8,242.3,249.3,243.3,248.8z"/>
		<path id="XMLID_119_" class="st4" d="M288,248.8c0.1,2.4-0.1,2.9-2.4,3.3c-2.4,0.5-4.8,0.5-6.4-1.8c-1.6-2.3-1.8-4.7-0.5-7.2
			c1.2-2.2,3.7-3.2,6.2-2.4c2.4,0.8,3.2,3,3.3,5.3c0,0.7-0.4,0.7-0.9,0.7c-2,0-4,0.1-6,0c-1.1,0-1.1,0.4-0.8,1.2
			c0.7,1.7,2.4,2.6,4.5,2.2C286,249.9,286.9,249.4,288,248.8z"/>
		<path id="XMLID_118_" class="st4" d="M367.4,248.8c0.3,2.4,0.2,2.7-2,3.2c-2.2,0.5-4.5,0.6-6.2-1.2c-1.8-1.9-2.1-4.2-1.4-6.6
			c0.7-2.5,3.2-4.1,5.7-3.7c2.5,0.4,4.3,2.6,4.3,5.3c0,0.8-0.4,0.8-1,0.8c-2,0-4.1,0-6.1,0c-0.8,0-0.9,0.2-0.7,0.9
			c0.6,2,2.4,2.9,4.7,2.4C365.7,249.8,366.6,249.4,367.4,248.8z"/>
		<path id="XMLID_117_" class="st5" d="M337.1,242.5c0,2.2,0,4.3,0,6.5c0,0.7,0.2,0.9,0.9,0.9c2,0,3.9,0,5.9,0c0.9,0,1,0.4,1,1.1
			c0,0.7,0.1,1.3-1,1.3c-2.8-0.1-5.6,0-8.4,0c-0.7,0-1-0.2-1-1c0-5.1,0.1-10.2,0-15.3c0-1.2,0.7-1,1.4-1c0.7,0,1.4-0.2,1.3,1
			C337,238.1,337.1,240.3,337.1,242.5z"/>
		<path id="XMLID_116_" class="st3" d="M257.8,244.5c-0.7-3.1,1-3.6,3.1-3.9c2.6-0.4,4.5,1.1,4.7,3.4c0.1,1.8,0,3.6,0,5.3
			c0,1.6,0,1.6,1.6,0.9c0,0.6,0.3,1.3-0.5,1.7c-1,0.5-2.1,0.9-3,0.1c-0.5-0.5-0.8-0.4-1.3-0.1c-0.5,0.3-1.2,0.4-1.8,0.5
			c-1.4,0.1-2.5-0.5-3-1.7c-0.4-1.2-0.1-2.5,1-3.3c1-0.9,2.3-1.1,3.5-1.6c0.5-0.2,1.3-0.2,1.2-1.1c-0.1-0.9-0.4-1.5-1.4-1.7
			c-1.1-0.2-2,0.1-2.9,0.7C258.6,243.8,258.2,244.2,257.8,244.5z"/>
		<path id="XMLID_115_" class="st6" d="M297.7,247.4c0-1.2,0-2.5,0-3.7c0-0.4,0-0.9-0.6-0.8c-0.8,0.1-1.1-0.2-1-1
			c0-0.8,0.2-1.3,1.1-1.1c0.7,0.1,0.5-0.4,0.5-0.8c0-1.1,0.2-2.1,0.7-3.1c0.9-1.7,2.7-2.6,4.4-2.1c1.1,0.3,0.5,1.2,0.6,1.8
			c0.1,0.8-0.5,0.5-0.9,0.5c-1.8,0-3,1.6-2.5,3.4c0.2,0.7,0.7,0.4,1.1,0.3c0.9-0.1,1,0.4,1,1.1c0,0.7-0.1,1.2-1,1.1
			c-1-0.2-1.1,0.3-1.1,1.2c0.1,2.4,0,4.7,0,7.1c0,1-0.4,1-1.2,1c-0.8,0-1.3-0.1-1.2-1.1C297.8,249.9,297.7,248.6,297.7,247.4z"/>
		<path id="XMLID_114_" class="st3" d="M358,237.2c-2.4-0.5-3.2,0.2-3.3,2.5c0,0.8,0.2,1.2,1,1c0.9-0.2,1,0.3,1,1
			c0,0.7,0,1.3-0.9,1.1c-1-0.2-1.1,0.3-1,1.1c0,2.4,0,4.7,0,7.1c0,1.1-0.5,1.1-1.3,1.1c-0.8,0-1.2-0.1-1.2-1.1c0.1-2.4,0-4.9,0-7.3
			c0-0.4,0.1-1-0.6-0.9c-0.9,0.1-1-0.2-1-1c0-0.8,0.1-1.3,1.1-1.1c0.6,0.1,0.6-0.4,0.6-0.8c0-0.9,0.1-1.8,0.4-2.6
			c0.6-1.7,2.2-2.7,3.9-2.7c1,0,1.6,0.3,1.4,1.4C357.9,236.4,358,236.8,358,237.2z"/>
		<path id="XMLID_113_" class="st7" d="M271.6,242.5c0.5-0.4,1.1-0.8,1.6-1.3c1-0.8,2-0.9,3.1-0.3c1.4,0.7,1.5,1.7,0.3,2.7
			c-0.4,0.3-0.5,0-0.8-0.1c-1.9-1.2-3.5-0.5-4,1.7c-0.4,1.9-0.2,3.9-0.1,5.8c0,1-0.4,1.1-1.2,1.1c-0.9,0-1.2-0.2-1.2-1.2
			c0.1-3,0.1-6,0-8.9c0-1,0.2-1.4,1.3-1.4c1.1,0,1.3,0.4,1.2,1.3C271.5,242.2,271.6,242.5,271.6,242.5z"/>
		<path id="XMLID_112_" class="st7" d="M319.8,243.1c0.5-0.7,0.9-1.2,1.3-1.6c1.1-1.1,2.2-1.3,3.5-0.7c1.3,0.7,1.4,1.7,0.3,2.7
			c-0.4,0.3-0.5,0-0.8-0.2c-1.8-1.2-3.4-0.6-4,1.6c-0.5,1.9-0.2,3.9-0.2,5.8c0,0.9,0,1.4-1.2,1.3c-1.1,0-1.2-0.4-1.2-1.3
			c0-3,0.1-5.9,0-8.9c0-1.1,0.3-1.2,1.3-1.2c1,0,1.2,0.4,1.1,1.2C319.8,242.2,319.8,242.6,319.8,243.1z"/>
		<path id="XMLID_111_" class="st7" d="M226.9,243c0.4-0.5,0.7-0.9,1-1.2c0.5-0.6,1-1,1.7-1.2c1.2-0.4,2.3,0.1,3,1
			c0.6,0.8-0.6,1.4-0.9,2.3c-0.9-0.8-1.9-1.5-3-0.9c-1.2,0.6-1.8,1.8-1.8,3.2c0,1.7-0.1,3.4,0,5.1c0,1-0.6,0.9-1.2,0.9
			c-0.6,0-1.2,0.2-1.2-0.9c0.1-3.2,0.1-6.5,0-9.7c0-1.1,0.7-0.8,1.2-0.8c0.6,0,1.3-0.2,1.2,0.9C226.8,242,226.9,242.4,226.9,243z"/>
		<path id="XMLID_110_" class="st8" d="M348.9,246.5c0,1.6,0,3.2,0,4.8c0,0.9-0.4,0.9-1,0.9c-0.6-0.1-1.3,0.2-1.3-0.9
			c0.1-3.2,0-6.5,0-9.7c0-1.1,0.7-0.7,1.3-0.8c0.5,0,1.1-0.2,1.1,0.8C348.8,243.2,348.9,244.9,348.9,246.5z"/>
		<path id="XMLID_109_" class="st9" d="M349.1,237.2c0,1-0.6,1.5-1.3,1.6c-0.8,0-1.4-0.4-1.4-1.3c0-0.9,0.5-1.5,1.3-1.5
			C348.6,236,349,236.6,349.1,237.2z"/>
		<path id="XMLID_108_" class="st10" d="M381.9,72.1c0,6.1,0,12.2,0,18.2c0,1.9,0,3.8,0.3,5.7c0.1,0.7-0.1,0.9-0.8,0.9
			c-1.2-0.1-2.5-0.1-3.7,0c-0.9,0.1-1.1-0.2-1-1.1c0.5-6.6,0.6-13.2,0.5-19.8c0-4.6-0.1-9.2-0.5-13.7c-0.1-1,0.2-1,1.1-1.2
			c3.2-0.5,5.1,0.9,6.9,3.5c4.7,6.7,9.8,13.2,14.7,19.8c0.2,0.3,0.5,0.6,0.8,1c0.5-0.4,0.3-0.9,0.3-1.2c0-7.3,0.3-14.7-0.2-22
			c-0.1-0.9,0.2-1.2,1.1-0.9c1.4,0.4,2.7,0.2,4.1-0.1c0.6-0.1,0.7,0,0.7,0.6c-0.8,9-0.9,18.1-0.6,27.2c0.1,2.4,0.1,4.9,0.6,7.3
			c0.1,0.6-0.1,0.7-0.7,0.7c-1.4,0-2.8-0.1-4.1,0c-0.8,0-1-0.5-1.3-1c-5.6-7.9-11.3-15.7-17.2-23.4c-0.1-0.2-0.3-0.3-0.4-0.5
			C382.1,72.1,382,72.1,381.9,72.1z"/>
		<path id="XMLID_107_" class="st10" d="M333.4,79c0-9.3,7-17.3,15.6-18.1c9.4-0.9,17.5,5.2,19.3,14.4c1.8,9.3-4.2,19.3-13,21.6
			c-10.2,2.6-20.1-4-21.6-14.5C333.5,81.2,333.3,80,333.4,79z"/>
		<path id="XMLID_106_" class="st10" d="M286,80.5c4.2,5.5,8.3,10.9,12.4,16.4c-1.5,0-3-0.2-4.3,0c-2.8,0.5-4.4-0.7-5.8-3.1
			c-2.3-3.9-5.1-7.6-7.9-11.2c-1-1.3-0.4-2.8-0.5-4.2c0-0.6,0.6-0.3,1-0.4c4-0.3,6.3-2.7,6.4-6.6c0-3.2-2.3-5.6-5.8-6
			c-4.2-0.4-4.2-0.4-4.2,3.7c0,8.8,0.3,17.7,0.6,26.5c0,1.1-0.3,1.3-1.3,1.2c-1.6-0.1-3.2,0-4.8,0c-0.6,0-0.9,0-0.8-0.8
			c0.7-7.9,0.4-15.8,0.4-23.7c0-3.6-0.1-7.2-0.4-10.8c0-0.4-0.1-0.8,0.6-0.7c4,0.6,8.1-0.4,12.1,0.2c1.1,0.2,2.3,0.4,3.4,0.7
			c4.2,1.4,6.5,4.3,6.6,8.5c0.1,4.4-2.4,8.3-6.3,9.7C286.9,80.2,286.5,80.3,286,80.5z"/>
		<path id="XMLID_105_" class="st10" d="M231.2,96.9c2-5.2,4-10.4,5.9-15.5c2.4-6.4,4.7-12.8,6.6-19.4c0.2-0.6,0.4-0.9,1.2-0.9
			c1.4,0.1,2.8,0.1,4.3,0c0.8,0,1.1,0.2,1.3,0.9c3.7,11.3,8,22.5,12.4,33.6c0.5,1.3,0.5,1.3-0.9,1.3c-1.6,0-3.3,0-4.9,0
			c-0.7,0-0.9-0.2-1.1-0.8c-0.9-2.8-1.8-5.6-2.7-8.3c-0.2-0.8-0.6-1-1.4-1c-3.5-0.1-7-0.2-10.5,0c-0.8,0-1.1,0.3-1.4,1.1
			c-0.8,2.7-1.6,5.4-2.4,8.2c-0.2,0.7-0.5,1-1.3,0.9C234.6,96.9,233,96.9,231.2,96.9z"/>
		<path id="XMLID_104_" class="st10" d="M180,74.1c0.1,7.7,0.2,14.8,0.6,21.8c0.1,0.9-0.2,1.2-1.1,1c-1.6-0.3-3.3-0.3-4.9,0
			c-0.7,0.1-1,0-1-0.8c0.6-8.9,0.5-17.9,0.4-26.8c0-2.6-0.1-5.2-0.5-7.7c-0.1-0.5,0-0.8,0.6-0.7c4.7,0.3,9.5-0.5,14.2,0.3
			c5.2,0.9,8.4,3.9,9,8.6c0.6,4.5-1.2,8.1-5,10.6c-2.7,1.8-5.7,2.6-8.9,2.9c-0.7,0.1-1-0.2-1-0.9c-0.1-2.7-0.1-2.7,2.5-3.3
			c4.6-1.1,7.1-4.8,6.1-9c-0.7-2.9-3.4-4.8-6.9-5c-1.4-0.1-3.1-0.6-4,0.2c-0.8,0.7-0.2,2.4-0.2,3.7C179.9,70.8,180,72.8,180,74.1z"
			/>
		<path id="XMLID_103_" class="st10" d="M211.7,87c0,1.4,0.1,2.9,0,4.3c-0.1,1.1,0.5,1.3,1.3,1.2c3-0.1,5.9-0.2,8.9-0.3
			c3.2-0.1,2.6-0.6,2.6,2.4c0,2.4-0.1,2.4-2.4,2.3c-5.3-0.2-10.7-0.4-16,0.2c-0.7,0.1-0.8-0.1-0.8-0.8c0.6-7,0.5-13.9,0.4-20.9
			c0-4.4-0.2-8.8-0.4-13.2c0-1.1,0.1-1.4,1.3-1.3c5.5,0.4,10.9,0.4,16.4,0c1-0.1,1.4,0.1,1.2,1.2c-0.1,0.7,0,1.5,0,2.3
			c0,1.7,0,1.7-1.7,1.5c-3.1-0.3-6.3-0.4-9.4-0.5c-0.9,0-1.1,0.3-1.1,1.1c0,2.8,0,5.7,0,8.5c0,0.8,0.4,0.9,1,1
			c3.1,0.2,6.1,0,9.2-0.4c1.2-0.2,1.7,0.1,1.6,1.4c-0.1,0.8-0.1,1.7,0,2.5c0.1,1-0.3,1.2-1.2,1.1c-3.1-0.3-6.3-0.3-9.4-0.3
			c-0.8,0-1.2,0.2-1.1,1.1c0.1,1.9,0,3.7,0,5.6C211.9,87,211.8,87,211.7,87z"/>
		<path id="XMLID_102_" class="st10" d="M322.7,69.1c-0.7-0.6-1.3-1.2-1.9-1.8c-1.6-1.4-3.5-2.1-5.6-1.9c-1.6,0.2-2.7,1-3.3,2.5
			c-0.6,1.5-0.2,2.8,0.9,3.9c1.5,1.5,3.2,2.6,5,3.8c1.6,1,3.2,1.9,4.6,3.2c3.5,3,4.7,7.3,3.2,11.8c-1.3,3.8-5,6.4-9.4,6.7
			c-4.2,0.3-7.9-1.1-11.5-3.3c-0.6-0.4-0.8-0.7-0.4-1.4c0.8-1.4,1.4-2.8,1.8-4.5c1.7,1.6,3.3,2.9,5.3,3.7c1.5,0.6,3.1,0.9,4.7,0.5
			c3.4-0.8,4.8-4.7,2.6-7.6c-1.2-1.5-2.7-2.7-4.3-3.8c-2-1.4-4.1-2.8-6-4.5c-4.9-4.4-3.8-12.8,3.7-15c4.6-1.4,8.8-0.2,12.7,2.3
			c0.6,0.4,0.4,0.7,0.1,1.1C324,66.1,323.3,67.5,322.7,69.1z"/>
		<path id="XMLID_101_" class="st0" d="M437.9,135c18.5,0,37.1,0,55.6,0c3.7,0,6.3,1.9,7,5.2c0.1,0.6,0.1,1.1,0.1,1.7
			c0,23.8,0,47.6,0,71.4c0,4-2.8,6.9-6.9,6.9c-37.4,0-74.8,0-112.2,0c-1.1,0-1.3-0.3-1.3-1.3c0-27.5,0-55.1,0-82.6
			c0-1.2,0.4-1.3,1.4-1.3C400.5,135,419.2,135,437.9,135z"/>
		<path id="XMLID_100_" class="st0" d="M106.3,174.7c0-7.2,0-14.5,0-21.7c0-0.9,0.1-1.3,1.2-1.4c6.9-0.8,13.7-1.4,20.6,0.1
			c10.5,2.2,16.6,9.7,16.9,20.4c0.1,4.7-0.5,9.3-2.5,13.6c-3.2,6.9-8.9,10.4-16,11.9c-6.3,1.3-12.6,0.9-19,0.5
			c-0.9-0.1-1.1-0.5-1.1-1.4C106.3,189.3,106.3,182,106.3,174.7z"/>
		<path id="XMLID_99_" class="st0" d="M191.4,192.4c-4.9,7.5-18,7.6-23-2.2c-3.5-7-2.5-16.5,2.6-22c4-4.3,8.9-5.6,14.6-4.2
			c2.6,0.6,3.8,1.7,6.6,5c0.1-1.4,0.1-2.6,0.2-3.9c0-0.7,0.2-1,1-1c1.2,0.1,2.3,0.1,3.5,0c0.7,0,1,0.1,1,0.9
			c-0.5,10.2-0.1,20.4-0.3,30.5c-0.1,2.5-0.5,4.9-1.3,7.3c-1.3,3.8-3.7,6.6-7.5,8c-6.2,2.4-12.3,2.1-18.4-0.6
			c-1-0.4-1.2-0.9-0.8-1.9c0.4-1.1,0.4-2.6,1.2-3.1c0.8-0.6,1.9,0.7,3,1.1c2.4,0.8,4.8,1.3,7.3,1.2c6-0.1,9.7-3.5,10.2-9.4
			C191.5,196.4,191.4,194.5,191.4,192.4z"/>
		<path id="XMLID_98_" class="st0" d="M246.4,198.7c-3.9,0.2-7.8-0.2-11.5-1.6c-5.7-2.2-9.7-6.2-11.8-11.9c-2.5-7-2.6-14.1,0.3-20.9
			c3.4-8.1,9.8-12.4,18.3-13.6c4.7-0.7,9.4-0.3,13.9,1.2c1,0.3,1.5,0.7,1,1.9c-0.5,1.1-0.4,2.7-1.2,3.3c-0.9,0.7-2.1-0.5-3.2-0.8
			c-3.7-0.9-7.5-1.1-11.2-0.2c-6.2,1.5-10.3,5.3-12.1,11.3c-1.4,4.6-1.5,9.4-0.2,14.1c2.1,7.4,7.9,11.9,15.7,12.1
			c3.6,0.1,7.2-0.3,10.6-1.6c0.7-0.3,0.8-0.1,0.9,0.5c0.2,1,0.4,1.9,0.7,2.8c0.4,1.2,0,1.5-1,1.9
			C252.6,198.1,249.5,198.6,246.4,198.7z"/>
		<path id="XMLID_97_" class="st0" d="M281.4,170.5c-0.4-1.2-0.8-2.4-1.2-3.5c-0.2-0.5,0-0.7,0.4-0.9c5.5-2.7,11.2-3.6,17-1.3
			c3.9,1.6,5.6,5,6.2,9c0.2,1.3,0.3,2.6,0.3,4c0.1,6.5-0.3,13.1,0.4,19.6c0.1,0.7-0.2,0.7-0.7,0.7c-1.3,0-2.7,0-4,0
			c-0.6,0-0.8-0.2-0.9-0.7c-0.1-1.1-0.3-2.3-0.5-3.6c-2,2.6-4.5,4.2-7.6,4.8c-2.3,0.4-4.5,0.4-6.7-0.3c-7-2.4-8.8-12-3.1-17
			c2.8-2.5,6.2-3.5,9.8-4.1c2-0.3,4.1-0.5,6.1-0.5c0.8,0,1.1-0.2,1.1-1c0-4.5-2.6-7.3-7.1-7.3C287.3,168.1,285.4,168.5,281.4,170.5z
			"/>
		<path id="XMLID_96_" class="st0" d="M312.9,191.8c2.8,1.4,5.7,2.4,8.8,2.3c0.9,0,1.9-0.2,2.7-0.5c3.6-1.4,4.2-5.9,1.2-8.3
			c-1.2-1-2.7-1.6-4.1-2.1c-1.6-0.6-3.2-1.3-4.7-2.3c-2.9-1.9-4.8-4.4-4.5-8c0.3-3.8,2.3-6.6,5.9-8.1c4.4-1.8,8.8-1.5,13.2,0.4
			c0.7,0.3,0.8,0.7,0.6,1.4c-0.4,1.1-0.5,2.6-1.2,3.1c-0.7,0.6-1.9-0.7-2.9-0.9c-2.1-0.6-4.2-0.9-6.3-0.3c-1.6,0.5-2.8,1.6-3.1,3.3
			c-0.3,1.9,0.3,3.4,1.9,4.5c1.3,0.9,2.7,1.5,4.2,2c1.8,0.7,3.6,1.5,5.2,2.7c5.5,4.1,5.1,12.6-1,15.9c-5.5,3-11.1,2.3-16.7-0.2
			c-0.5-0.2-0.6-0.5-0.4-1C312.1,194.4,312.5,193.2,312.9,191.8z"/>
		<path id="XMLID_95_" class="st0" d="M351.3,163.5c2.9,0,5.2,0.5,7.5,1.5c0.7,0.3,1.1,0.7,0.7,1.5c-0.5,1.1-0.5,2.6-1.2,3.1
			c-0.8,0.6-1.9-0.7-2.9-1c-2-0.5-4.1-0.9-6.2-0.3c-1.8,0.5-3,1.6-3.3,3.5c-0.3,1.9,0.4,3.4,2,4.5c1.3,0.8,2.7,1.4,4.1,1.9
			c1.5,0.6,3,1.2,4.3,2.1c3.4,2.1,5,5.2,4.6,9.2c-0.4,3.9-2.5,6.6-6.1,8c-5.1,1.9-10.2,1.4-15.1-0.8c-0.6-0.3-0.7-0.6-0.5-1.2
			c0.4-1.2,0.4-2.8,1.2-3.4c0.8-0.6,2.1,0.7,3.2,1c2.5,0.8,4.9,1.2,7.5,0.6c2-0.5,3.4-1.6,3.8-3.6c0.4-2.2-0.3-3.9-2.1-5.2
			c-1.2-0.9-2.6-1.5-4.1-2c-1.8-0.7-3.5-1.5-5.1-2.6c-5.8-4.1-4.3-11.7,0.4-14.8C346.4,164.1,349,163.5,351.3,163.5z"/>
		<path id="XMLID_94_" class="st0" d="M264,173.2c0-7.6,0-15.3,0-22.9c0-1.7,0-1.7,1.8-1.7c1,0,2,0.1,3.1,0c1-0.1,1.4,0.2,1.4,1.3
			c-0.1,2.4,0,4.8,0,7.2c0,13.2,0,26.4,0,39.6c0,1.1-0.2,1.5-1.4,1.4c-1.1-0.1-2.3-0.1-3.5,0c-1.1,0.1-1.4-0.2-1.4-1.4
			C264,188.9,264,181.1,264,173.2z"/>
		<path id="XMLID_93_" class="st11" d="M152.5,181.1c0-5.2,0-10.5,0-15.7c0-0.9,0.3-1.2,1.2-1.2c1.3,0.1,2.6,0.1,3.9,0
			c0.9,0,1.1,0.2,1.1,1.1c0,5.2,0,10.5,0,15.7c0,5.2,0,10.5,0,15.7c0,1-0.2,1.3-1.3,1.3c-1.2-0.1-2.5-0.1-3.7,0
			c-0.9,0.1-1.2-0.2-1.2-1.2C152.5,191.6,152.5,186.4,152.5,181.1z"/>
		<path id="XMLID_92_" class="st0" d="M213.8,181.2c0,5.2,0,10.4,0,15.6c0,1-0.2,1.3-1.2,1.3c-1.3-0.1-2.6-0.1-3.9,0
			c-0.9,0-1.1-0.2-1.1-1.1c0-5.3,0-10.7,0-16c0-5.2,0-10.3,0-15.5c0-1,0.2-1.3,1.3-1.3c1.3,0.1,2.6,0.1,3.9,0
			c0.9-0.1,1.1,0.3,1.1,1.1C213.8,170.6,213.8,175.9,213.8,181.2z"/>
		<path id="XMLID_91_" class="st11" d="M210.8,150.3c2.3,0,3.9,1.6,3.8,4c0,2.4-1.7,4-4.1,3.9c-2.2-0.1-3.9-1.8-3.8-4.1
			C206.8,151.8,208.4,150.2,210.8,150.3z"/>
		<path id="XMLID_90_" class="st0" d="M155.7,150.3c2.3,0,3.9,1.7,3.8,4c-0.1,2.3-1.7,3.9-4,3.9c-2.3,0-4-1.7-3.9-4.1
			C151.7,151.8,153.3,150.2,155.7,150.3z"/>
		<path id="XMLID_89_" class="st0" d="M214.4,239.8c0-2.8,0-2.8,3.2-2.5c1.8,0.2,2.6,1.1,2.5,2.9c-0.1,1.2-0.8,1.9-1.9,2.1
			c-1.1,0.2-2.2,0.1-3.3,0.1c-0.5,0-0.5-0.3-0.5-0.6C214.4,241.1,214.4,240.4,214.4,239.8z"/>
		<path id="XMLID_88_" class="st12" d="M248.1,246.5c0-0.5,0-1,0-1.5c0-2.3,0-2.3,2.3-2c2.5,0.2,3.7,2,3.2,4.5
			c-0.4,2.1-2.4,3.2-4.6,2.7c-0.7-0.2-1-0.5-1-1.3C248.1,248.1,248.1,247.3,248.1,246.5z"/>
		<path id="XMLID_87_" class="st13" d="M308.9,250.1c-2.1,0-3.7-1.6-3.7-3.6c0-2.1,1.6-3.6,3.6-3.6c2.1,0,3.8,1.5,3.8,3.6
			C312.6,248.7,311.1,250.1,308.9,250.1z"/>
		<path id="XMLID_86_" class="st14" d="M235.8,245.3c0.3-1.8,1.1-2.6,2.5-2.7c1.2-0.1,2.2,0.4,2.7,1.5c0.3,0.6,0.5,1.3-0.7,1.2
			C238.8,245.2,237.3,245.3,235.8,245.3z"/>
		<path id="XMLID_85_" class="st15" d="M280.5,245.3c0.2-1.7,1.1-2.6,2.6-2.7c1.4-0.1,2.4,0.7,2.7,2c0.1,0.5,0,0.7-0.5,0.7
			C283.7,245.3,282.1,245.3,280.5,245.3z"/>
		<path id="XMLID_84_" class="st16" d="M360,245.3c0.3-1.8,1.2-2.6,2.7-2.7c1.4,0,2.3,0.7,2.7,1.9c0.2,0.6,0.1,0.8-0.6,0.8
			C363.2,245.3,361.6,245.3,360,245.3z"/>
		<path id="XMLID_83_" class="st15" d="M263.2,246.6c0,0.9-0.1,1.6,0,2.2c0.1,1.2-0.5,1.6-1.5,1.8c-0.9,0.2-1.6-0.1-1.9-1
			c-0.3-1,0.2-1.6,1-2C261.6,247.3,262.4,247,263.2,246.6z"/>
		<path id="XMLID_82_" class="st1" d="M362,78.7c-0.1,3.5-0.8,6.6-2.6,9.5c-4.1,6.4-12.6,6.4-16.7,0.1c-3.6-5.5-3.6-13.3,0-18.5
			c4-5.7,11.8-6,16.1-0.5C361,72.1,362,75.3,362,78.7z"/>
		<path id="XMLID_81_" class="st17" d="M246.3,68.4c1.6,4.5,3,8.7,4.5,12.9c0.2,0.6,0.1,0.7-0.5,0.8c-2.6,0.3-5.1,0.3-7.7,0
			c-0.7-0.1-0.8-0.2-0.6-0.9C243.4,77,244.8,72.8,246.3,68.4z"/>
		<path id="XMLID_80_" class="st2" d="M396.7,173.8c0-7.6,0-15.2,0-22.8c0-1.2,0.2-1.8,1.6-1.9c5.8-0.6,11.5-1.2,17.2,0
			c7,1.4,11.1,6.1,11.6,12.6c0.5,7.5-3,13.1-9.8,15.6c-4.3,1.6-8.7,1.9-13.1,1.3c-0.9-0.1-1,0.1-1,0.9c0,5.8,0,11.6,0,17.3
			c0,1.1-0.3,1.4-1.3,1.3c-1.3-0.1-2.6-0.1-3.9,0c-1,0.1-1.3-0.2-1.3-1.2C396.7,189.2,396.7,181.5,396.7,173.8z"/>
		<path id="XMLID_79_" class="st2" d="M451.8,180.5c0.1-6.4,2.1-12,7.7-15.7c5.7-3.7,11.8-4,17.9-1c5.9,2.9,8.5,8.1,9,14.4
			c0.4,5-0.4,9.7-3.4,13.8c-4,5.5-11.4,8.1-18.3,6.4c-6.7-1.6-11.4-6.8-12.5-13.8C451.9,183.3,451.8,181.9,451.8,180.5z"/>
		<path id="XMLID_78_" class="st2" d="M438.6,169.3c0.8-1.7,1.7-3.4,3.1-4.7c2.2-2,4.7-3,7.7-2.7c0.7,0.1,0.9,0.3,0.9,1
			c0,1.5,0,2.9,0,4.4c0,0.5,0,0.9-0.7,0.8c-6.1-1-10.4,4.1-10.3,10.6c0,6,0,11.9,0,17.9c0,1.2-0.3,1.6-1.5,1.5c-1.3-0.1-2.7-0.1-4,0
			c-1,0.1-1.2-0.3-1.2-1.2c0-8.4,0-16.8,0-25.2c0-2.7-0.1-5.4-0.2-8.1c0-0.8,0.2-1,0.9-1c1.3,0.1,2.6,0,3.9,0c0.7,0,0.9,0.3,0.9,0.9
			c0,1.9,0,3.8,0,5.7C438.3,169.3,438.4,169.3,438.6,169.3z"/>
		<path id="XMLID_77_" class="st2" d="M112.4,174.6c0-5.8,0-11.6,0-17.3c0-0.6-0.1-1.1,0.7-1.2c5.6-0.7,11.1-0.9,16.3,1.5
			c5.5,2.5,8.1,7.1,8.7,12.9c0.4,4.1,0.2,8.3-1.3,12.2c-2.6,6.5-7.6,9.7-14.3,10.6c-3,0.4-6,0.3-9,0.1c-1-0.1-1.1-0.4-1.1-1.3
			C112.4,186.2,112.4,180.4,112.4,174.6z"/>
		<path id="XMLID_76_" class="st2" d="M191.4,180.8c-0.1,1.5,0.2,3.3-0.2,5c-0.8,3.6-3.5,6.5-6.9,7.1c-3.9,0.7-7.7-0.8-9.6-4.2
			c-3-5.3-2.9-10.8,0.1-16.1c2.2-3.8,6.4-5.2,10.5-4c3.7,1.1,6.1,4.7,6.1,8.9C191.4,178.6,191.4,179.6,191.4,180.8z"/>
		<path id="XMLID_75_" class="st2" d="M298,184.5c0.3,2.8-0.2,5.4-2.5,7.4c-2.2,1.9-4.7,2.6-7.5,2.1c-2.1-0.4-3.5-1.8-3.9-3.9
			c-0.6-2.7,0-5,2.2-6.8c1.6-1.2,3.5-1.8,5.4-2.1c1.8-0.3,3.5-0.4,5.3-0.5c0.7-0.1,1.1,0.2,1,1C297.9,182.6,298,183.6,298,184.5z"/>
		<path id="XMLID_74_" class="st0" d="M403.1,163.5c0-2.8,0-5.7,0-8.5c0-0.7,0.1-1.1,0.9-1.2c3.3-0.4,6.6-0.6,9.9,0.3
			c4,1.1,6.3,3.9,6.8,8c0.5,4.2-1.4,8-4.9,9.9c-3.8,2-7.9,1.8-12,1.3c-0.8-0.1-0.7-0.7-0.7-1.2C403.1,169.2,403.1,166.4,403.1,163.5
			z"/>
		<path id="XMLID_73_" class="st0" d="M479.8,179.8c0,4-0.8,7.2-2.8,10.1c-4.2,5.7-11.9,5.5-15.9-0.3c-3.5-5.1-3.4-13.5,0.1-18.5
			c4.1-5.7,12.2-5.6,16.1,0.2C479.1,174,479.8,177.1,479.8,179.8z"/>
	</g>
</g>
</svg>
