<?xml version="1.0" encoding="utf-8"?>
<!-- Generator: Adobe Illustrator 19.0.0, SVG Export Plug-In . SVG Version: 6.00 Build 0)  -->
<svg version="1.1" id="Layer_1" xmlns="http://www.w3.org/2000/svg" xmlns:xlink="http://www.w3.org/1999/xlink" x="0px" y="0px"
	 viewBox="0 0 579 291" style="enable-background:new 0 0 579 291;" xml:space="preserve">
<style type="text/css">
	.st0{fill:#7D7D7D;}
	.st1{fill:#161616;}
	.st2{fill:#F4F4F4;}
	.st3{fill:#7E7E7E;}
</style>
<g id="XMLID_9_">
	<g id="XMLID_37_">
		<path id="XMLID_57_" class="st0" d="M117.1,145.5c0-32.4,0-64.9,0-97.3c0-0.7,0.1-1,0.9-1c109.8,0,219.6,0,329.4,0
			c0.8,0,0.9,0.2,0.9,1c0,32.4,0,64.9,0,97.3c-0.3,0.4-0.7,0.5-1.2,0.5c-0.5,0-1,0-1.6,0c-108.6,0-217.1,0-325.7,0
			C118.9,146,117.9,146.3,117.1,145.5z"/>
		<path id="XMLID_56_" class="st1" d="M117.1,145.5c110.4,0,220.8,0,331.2,0c0,32.6,0,65.2,0,97.8c0,0.8-0.2,1-1,1
			c-109.8,0-219.5,0-329.3,0c-0.8,0-1-0.2-1-1C117.1,210.7,117.1,178.1,117.1,145.5z"/>
		<path id="XMLID_55_" class="st2" d="M383.1,88.7c-0.4,1.7-0.2,3.2-0.3,4.6c0,7.3-0.3,14.5,0.3,21.8c0.1,0.7-0.2,0.8-0.8,0.8
			c-1.5,0-3,0-4.6,0c-0.6,0-0.8-0.2-0.7-0.8c0.7-8.8,0.6-17.6,0.5-26.4c0-3.6-0.1-7.2-0.5-10.8c-0.1-0.7,0.2-0.9,0.8-0.9
			c1.5,0,3,0,4.5,0c0.6,0,0.9,0.4,1.2,0.8c5.6,7.5,11.2,15,16.8,22.5c0.8,1,1.5,2,2.3,3c0.1,0,0.2,0,0.3-0.1c0-0.9,0-1.9,0-2.8
			c0-7.6,0.2-15.3-0.3-22.9c0-0.6,0.2-0.7,0.7-0.6c1.6,0.4,3.2,0.4,4.8,0c0.7-0.2,0.8,0.2,0.8,0.8c-0.7,8.2-0.8,16.4-0.8,24.6
			c0,4.2,0.1,8.4,0.7,12.6c0.1,0.6-0.1,0.9-0.7,0.8c-1.5-0.1-3-0.2-4.6,0c-0.6,0.1-0.9-0.3-1.1-0.7c-5.6-7.9-11.4-15.7-17.2-23.5
			C384.6,90.7,383.9,89.8,383.1,88.7z"/>
		<path id="XMLID_54_" class="st2" d="M330.1,96.4c-0.1-11.3,9.3-20.3,20.1-19.8c11.2,0.6,19.6,10.8,18,22
			c-1.1,7.3-4.6,12.9-11.3,16.1c-10.2,4.9-22.3-0.7-25.7-11.7c-0.3-1.1-0.6-2.1-0.8-3.2C330.1,98.6,330,97.3,330.1,96.4z"/>
		<path id="XMLID_53_" class="st2" d="M292.2,116c-2.9-0.2-5.6-0.3-8.2-0.1c-0.5,0-0.7-0.3-0.9-0.6c-3.4-5.2-6.9-10.3-10.7-15.3
			c-0.6-0.8-0.3-1.7-0.4-2.6c0-1.9,0-1.9,1.8-2.1c4.4-0.7,7-4.2,6.1-8.6c-0.6-2.7-3.1-4.8-6.4-5c-1.1-0.1-2.2,0-3.3-0.1
			c-0.7,0-0.9,0.3-1,1c-0.2,4.1,0,8.2,0,12.3c0.1,6.7,0.3,13.3,0.5,20c0,0.7-0.2,1-0.9,1c-1.9-0.2-3.8-0.1-5.7,0
			c-0.7,0-0.9-0.2-0.8-0.9c0.6-9.7,0.6-19.4,0.4-29.1c-0.1-2.8-0.1-5.5-0.4-8.3c0-0.5,0.1-0.8,0.6-0.7c5,0.6,9.9-0.6,14.9,0.4
			c2.7,0.5,5.1,1.5,6.9,3.6c4.4,5.3,1.8,14.3-4.8,16.7c-1.3,0.5-1.3,0.5-0.5,1.6c4,5.3,8,10.5,12,15.8
			C291.6,115.2,291.8,115.4,292.2,116z"/>
		<path id="XMLID_52_" class="st2" d="M235.7,104.8c-2,0-3.9,0-5.9,0c-0.7,0-1,0.3-1.2,1c-0.9,3-1.8,6-2.6,8.9
			c-0.3,0.9-0.7,1.2-1.6,1.1c-1.4-0.1-2.9-0.1-4.3,0c-0.9,0.1-1-0.2-0.7-0.9c3.2-7.8,6.2-15.8,9-23.7c1.5-4.4,3.1-8.7,4.3-13.2
			c0.2-0.8,0.5-1.1,1.4-1c1.6,0.1,3.2,0,4.8,0c0.6,0,0.9,0.2,1.1,0.8c4.1,12.6,8.8,24.9,13.7,37.1c0.3,0.8,0.2,1-0.7,1
			c-1.9-0.1-3.8-0.2-5.7,0c-0.9,0.1-1.2-0.3-1.4-1.1c-0.9-3-1.9-5.9-2.9-8.9c-0.3-0.8-0.7-1.1-1.6-1.1
			C239.5,104.9,237.6,104.8,235.7,104.8C235.7,104.8,235.7,104.8,235.7,104.8z"/>
		<path id="XMLID_51_" class="st2" d="M163.5,98.7c0.1,5.5,0.3,11,0.6,16.5c0,0.6-0.1,0.8-0.7,0.7c-2.1-0.4-4.1-0.4-6.2,0
			c-0.5,0.1-0.8-0.1-0.7-0.7c0.4-4.1,0.4-8.3,0.5-12.4c0.1-5.7,0.2-11.5,0-17.2c-0.1-2.7-0.1-5.5-0.5-8.2c-0.1-0.4,0.1-0.8,0.6-0.7
			c5.2,0.5,10.4-0.6,15.5,0.4c2.4,0.5,4.7,1.3,6.6,3.1c4.8,4.4,4.4,12.4-0.8,16.8c-3.2,2.7-7,3.9-11.2,4.1c-0.7,0-1-0.2-0.9-0.9
			c0-1-0.3-2.2,0.1-3c0.4-0.8,1.7-0.5,2.7-0.7c4-1,6.3-3.3,6.7-6.8c0.5-4.5-2.4-8-7.2-8.4c-1.4-0.1-2.9,0-4.4-0.1
			c-0.6,0-0.9,0.2-0.9,0.9c0,4.4,0.1,8.8,0.1,13.3C163.5,96.4,163.5,97.6,163.5,98.7z"/>
		<path id="XMLID_50_" class="st2" d="M191.5,95c-0.1-5-0.2-11-0.5-17c-0.1-0.9,0.2-1.2,1.1-1.1c6.1,0.4,12.2,0.3,18.2,0
			c0.9,0,1.2,0.2,1.1,1.1c-0.1,0.9,0,1.9,0,2.8c0,1.6,0,1.6-1.6,1.5c-3.3-0.3-6.7-0.4-10-0.5c-1.7,0-1.7,0-1.7,1.7
			c0,2.8-0.1,5.5-0.1,8.3c0,1.4,0,1.4,1.5,1.5c3.4,0.2,6.8,0,10.2-0.4c0.8-0.1,1.1,0.1,1.1,1c-0.1,1.1,0,2.3,0,3.4
			c0,0.8-0.2,1.1-1.1,1c-3.4-0.3-6.9-0.4-10.4-0.3c-1,0-1.3,0.4-1.4,1.3c-0.1,3.7-0.1,7.4-0.1,11.1c0,0.8,0.5,0.9,1.1,0.9
			c3.5,0,7-0.2,10.5-0.3c2.8-0.1,2.3-0.4,2.4,2.3c0,0.7-0.1,1.4-0.1,2.1c0,0.8-0.3,1.1-1.2,1c-4.7-0.4-9.5-0.4-14.2-0.3
			c-1.5,0.1-3,0.2-4.4,0.3c-0.7,0.1-1,0-0.9-0.9C191.5,108.8,191.6,102.4,191.5,95z"/>
		<path id="XMLID_49_" class="st2" d="M310.7,76.6c4,0,7.1,1.3,10,3.1c0.5,0.3,0.5,0.6,0.2,1.1c-0.9,1.3-1.6,2.7-2.2,4.1
			c-0.3,0.8-0.5,0.6-0.9,0.1c-1.3-1.6-2.9-2.9-5-3.3c-1.3-0.3-2.6-0.2-3.9,0.2c-2.2,0.8-3.6,4.1-1.6,6.3c1.5,1.7,3.4,2.9,5.3,4.1
			c1.8,1.2,3.6,2.2,5.2,3.5c4.2,3.3,5.1,7.6,3.8,12.5c-1.2,4.7-4.8,6.9-9.4,7.6c-5,0.8-9.4-0.9-13.5-3.5c-0.6-0.3-0.6-0.7-0.3-1.3
			c0.7-1.3,1.3-2.7,1.7-4.1c0.3-0.9,0.6-0.7,1.1-0.2c2.2,2.1,4.6,3.6,7.7,4c2.5,0.3,4.8-0.7,5.8-2.6c1.1-2.2,0.6-4.6-1.2-6.5
			c-2.1-2.3-4.8-3.9-7.3-5.6c-1.7-1.2-3.3-2.4-4.5-4.1c-3.2-4.1-2.4-9.9,1.7-13C305.7,77.3,308.4,76.7,310.7,76.6z"/>
		<path id="XMLID_48_" class="st2" d="M286.4,174.8c7.1,0,13.4,2.9,17.6,9.4c6.5,10,3.2,26.3-12.7,30.1c-6.2,1.5-12.2,0.8-17.7-2.8
			c-7-4.6-10.1-12.8-8.1-21.4c1.8-7.8,8.3-13.8,16.3-15C283.1,174.9,284.5,174.8,286.4,174.8z"/>
		<path id="XMLID_47_" class="st2" d="M333.1,174.8c8.1,0.1,14.6,3.2,18.6,10.3c5.8,10.4,1.8,25.6-13.2,29.2c-5.6,1.3-11.2,1-16.3-2
			c-7.3-4.2-10.5-10.6-10.1-19c0.6-10.3,9-17.9,18.9-18.4C331.7,174.9,332.4,174.8,333.1,174.8z"/>
		<path id="XMLID_46_" class="st2" d="M224.9,195c0-6.1,0-12.2,0-18.4c0-1,0.3-1.3,1.3-1.2c1.1,0.1,2.2,0.1,3.3,0
			c1-0.1,1.1,0.3,1.1,1.2c0,4.8,0,9.7,0,14.5c0,1,0.3,1.2,1.2,1.2c6.5,0,13,0,19.5,0c1,0,1.2-0.3,1.2-1.3c0-4.8,0-9.7,0-14.5
			c0-0.9,0.3-1.1,1.1-1.1c1.2,0.1,2.5,0,3.7,0c0.6,0,0.8,0.2,0.8,0.8c0,1.6,0,3.1,0,4.7c0,10.7,0,21.5,0,32.2c0,1.6,0.2,1.4-1.5,1.4
			c-1.1,0-2.1,0-3.2,0c-0.8,0-1-0.2-1-1c0-4.9,0-9.9,0-14.8c0-0.9-0.2-1.2-1.2-1.2c-6.5,0-13.1,0-19.6,0c-0.9,0-1.2,0.2-1.2,1.1
			c0,4.8,0,9.6,0,14.4c0,1.7,0.2,1.5-1.5,1.5c-1,0-2-0.1-3,0c-1,0.1-1.2-0.3-1.2-1.2C224.9,207.2,224.9,201.1,224.9,195z"/>
		<path id="XMLID_45_" class="st2" d="M217.7,184.2c-2.7-1.5-5.4-2.7-8.2-3.3c-5.1-1.1-10-0.9-14.4,2.1c-5.2,3.5-7.5,9.7-5.8,16.1
			c1.5,5.7,6.6,10,12.7,10.6c5.5,0.5,10.5-0.9,15.2-3.6c0.3-0.2,0.5-0.3,1-0.6c0,1.5-0.1,2.9,0,4.3c0.2,1.5-0.4,2.3-1.8,2.8
			c-6.2,2.6-12.6,3.3-19.2,1.6c-9.2-2.4-15.2-11.7-14.3-21.2c1-9.6,9.4-17.8,20.2-18c4.9-0.1,9.5,1.1,14,3c0.4,0.2,0.6,0.4,0.6,0.8
			C217.7,180.4,217.7,182.2,217.7,184.2z"/>
		<path id="XMLID_44_" class="st2" d="M156.4,204.4c0.8,0.7,1.4,1.4,2,2c2.8,2.6,6,4,9.9,3.4c4.4-0.7,6-5,3.3-8.5
			c-1-1.2-2.2-2.2-3.5-3c-2.2-1.4-4.6-2.7-6.7-4.2c-2.2-1.6-4-3.4-4.8-6.1c-1.6-5.6,1.6-11.1,7.3-12.6c4.2-1.1,8.3-0.5,12.1,1.7
			c0.5,0.3,0.8,0.7,0.7,1.3c0,1.8,0,3.5,0,5.4c-0.6-0.1-0.8-0.5-1.2-0.8c-2.8-2.3-6-3.5-9.7-2.9c-0.4,0.1-0.8,0.2-1.2,0.3
			c-3.6,1.3-4.3,4.7-1.7,7.5c1.6,1.7,3.7,2.8,5.7,4c2.3,1.4,4.7,2.7,6.6,4.7c4.7,5,3.9,13.1-1.7,16.6c-3.2,1.9-6.6,2-10.1,1.3
			c-2.3-0.5-4.5-1.4-6.4-2.8c-0.2-0.2-0.6-0.3-0.6-0.7C156.4,208.9,156.4,206.7,156.4,204.4z"/>
		<path id="XMLID_43_" class="st2" d="M407.7,184c-1.9-1.7-3.7-2.9-5.8-3.6c-2-0.6-3.9-0.7-5.9-0.1c-3.8,1.2-4.7,4.8-2,7.7
			c1.2,1.2,2.6,2.1,4,3c2.4,1.5,4.9,2.7,7.1,4.5c4.4,3.7,5.6,9.8,2.9,14.4c-2,3.3-5.2,4.9-9,5.1c-3.9,0.2-7.5-0.8-10.8-3
			c-0.5-0.3-0.8-0.7-0.7-1.3c0-2,0-4,0-5.9c0.6,0.5,1.3,1.1,1.9,1.6c2.8,2.6,6.1,4.1,10,3.5c4.5-0.7,6.1-5.1,3.2-8.7
			c-1.1-1.3-2.4-2.2-3.7-3.1c-1.9-1.2-3.8-2.3-5.6-3.5c-0.9-0.6-1.8-1.3-2.6-2.1c-3.1-2.8-4-6.3-2.9-10.3c1.1-3.9,3.8-6.1,7.6-6.9
			c4.1-0.9,8-0.3,11.7,1.8c0.6,0.3,0.8,0.7,0.8,1.4C407.7,180.2,407.7,182,407.7,184z"/>
		<path id="XMLID_42_" class="st2" d="M361,195c0-6.2,0-12.4,0-18.5c0-0.8,0.2-1.1,1-1.1c1.2,0.1,2.4,0.1,3.6,0c0.8,0,1,0.2,1,1
			c0,5.2,0,10.5,0,15.7c0,5.2,0,10.4,0,15.6c0,1.8-0.2,1.6,1.6,1.6c5,0,9.9,0,14.9,0c0.8,0,1.2,0.2,1.1,1.1c-0.1,1-0.1,2.1,0,3.1
			c0.1,0.8-0.2,1-1.1,1c-6.5,0-13.1,0-19.6,0c-0.6,0-1.1,0-1.7,0c-0.8,0.1-1-0.2-1-1c0-4.3,0-8.6,0-13C361,198.7,361,196.9,361,195z
			"/>
		<path id="XMLID_41_" class="st3" d="M349.2,81.6c3.9,0,6.9,1.8,9.1,5c4.1,6,3.7,15.4-1,21.1c-4.3,5.2-12.1,5.2-16.4-0.1
			c-5.2-6.3-4.9-17.2,0.5-22.8C343.6,82.6,346.1,81.6,349.2,81.6z"/>
		<path id="XMLID_40_" class="st3" d="M235.4,85.2c0.4,0.2,0.4,0.5,0.5,0.8c1.5,4.1,2.9,8.3,4.4,12.4c0.4,1.1,0.4,1.2-0.9,1.3
			c-2.7,0.3-5.3,0.2-8,0c-0.6-0.1-0.9-0.2-0.7-0.9c1.5-4.4,3-8.9,4.5-13.3C235.3,85.4,235.4,85.3,235.4,85.2z"/>
		<path id="XMLID_39_" class="st1" d="M270.8,195c0-8.7,6.4-14.9,15.3-14.8c8.5,0,15,6.4,15.1,14.7c0,8.5-6.6,14.9-15.3,14.9
			C277.2,209.7,270.8,203.5,270.8,195z"/>
		<path id="XMLID_38_" class="st1" d="M318,195c0.1-8.7,6.5-14.9,15.4-14.8c8.5,0.1,15.1,6.5,15,14.8c-0.1,8.5-6.7,14.8-15.4,14.8
			C324.3,209.7,317.9,203.4,318,195z"/>
	</g>
</g>
</svg>
