<?xml version="1.0" encoding="utf-8"?>
<!-- Generator: Adobe Illustrator 19.0.0, SVG Export Plug-In . SVG Version: 6.00 Build 0)  -->
<svg version="1.1" id="Layer_1" xmlns="http://www.w3.org/2000/svg" xmlns:xlink="http://www.w3.org/1999/xlink" x="0px" y="0px"
	 viewBox="0 0 579 291" style="enable-background:new 0 0 579 291;" xml:space="preserve">
<style type="text/css">
	.st0{fill:#F27423;}
	.st1{fill:#981D50;}
	.st2{fill:#F8F0E2;}
	.st3{fill:#F27523;}
	.st4{fill:#991D50;}
</style>
<g id="XMLID_9_">
	<g id="XMLID_38_">
		<path id="XMLID_58_" class="st0" d="M117.1,145.5c0-32.4,0-64.9,0-97.3c0-0.7,0.1-1,0.9-1c109.8,0,219.6,0,329.4,0
			c0.8,0,0.9,0.2,0.9,1c0,32.4,0,64.9,0,97.3c-0.3,0.4-0.7,0.4-1.1,0.5c-0.6,0-1.2,0-1.9,0c-108.4,0-216.8,0-325.2,0
			c-0.6,0-1.2,0-1.9,0C117.8,145.9,117.4,145.9,117.1,145.5z"/>
		<path id="XMLID_57_" class="st1" d="M117.1,145.5c110.4,0,220.8,0,331.2,0c0,32.6,0,65.2,0,97.8c0,0.8-0.2,1-1,1
			c-109.8,0-219.5,0-329.3,0c-0.8,0-1-0.2-1-1C117.1,210.7,117.1,178.1,117.1,145.5z"/>
		<path id="XMLID_56_" class="st2" d="M382.8,88.6c0,3.2,0,6.2,0,9.2c0,5.8-0.1,11.7,0.4,17.5c0,0.5-0.1,0.6-0.5,0.6
			c-1.7,0-3.5,0-5.2,0c-0.6,0-0.5-0.4-0.4-0.7c0.7-7.9,0.6-15.7,0.6-23.6c0-4.7-0.1-9.3-0.6-14c-0.1-0.4,0-0.6,0.5-0.6
			c1.7,0,3.3,0,5,0c0.5,0,0.6,0.4,0.8,0.7c6.2,8.4,12.5,16.7,18.7,25.1c0.2,0.2,0.3,0.6,0.8,0.7c0-2.2,0-4.3,0-6.4
			c0-6,0.1-12.1-0.2-18.1c0-0.7-0.1-1.4-0.1-2c0.7,0.1,1.4,0.2,2,0.3c1.4,0.2,2.8-0.1,4.3-0.4c-0.1,1.3-0.2,2.5-0.3,3.8
			c-0.6,8.4-0.7,16.9-0.5,25.4c0.1,3.1,0.1,6.2,0.7,9.3c0.1,0.5,0,0.7-0.6,0.6c-1.5-0.2-3.1-0.2-4.6,0c-0.6,0.1-0.9-0.3-1.1-0.7
			c-6-8.6-12.3-17-18.6-25.4C383.6,89.4,383.5,89,382.8,88.6z"/>
		<path id="XMLID_55_" class="st2" d="M368.3,96c0,8.8-5.4,16.8-13.2,19.4c-9.3,3.2-21.2-1.2-24.3-13.6c-2.2-8.6,0.7-16.7,7.6-21.6
			C349.8,72,366.1,79,368.1,93C368.2,94,368.3,95,368.3,96z"/>
		<path id="XMLID_54_" class="st2" d="M292.2,116c-2.8-0.3-5.3-0.4-7.9-0.1c-0.6,0.1-1-0.1-1.3-0.7c-3.3-5.2-6.8-10.2-10.6-15.1
			c-0.5-0.6-0.4-1.2-0.4-1.9c0-0.9-0.3-2,0.1-2.6c0.4-0.7,1.6-0.3,2.4-0.4c4.9-0.9,7.3-7.1,4.3-10.9c-1.3-1.6-3.1-2.3-5-2.6
			c-1.3-0.1-2.6,0-3.8-0.1c-0.5,0-0.6,0.2-0.6,0.7c-0.2,4.2-0.1,8.4,0,12.6c0.1,6.7,0.3,13.5,0.5,20.2c0,0.5,0,0.8-0.7,0.8
			c-2-0.2-4.1-0.2-6.1,0c-0.6,0-0.7-0.1-0.7-0.7c0.6-7,0.6-14.1,0.5-21.1c0-5-0.1-10.1-0.4-15.1c0-0.7-0.5-1.6,0-2
			c0.5-0.4,1.4-0.1,2.1,0c3.3,0.3,6.6-0.3,9.9-0.1c2,0.1,4,0.4,5.9,1.1c4.6,1.7,6.9,5.3,6.4,10.1c-0.4,4.8-2.9,8.1-7.5,9.6
			c-0.9,0.3-0.4,0.6-0.2,0.9c4.1,5.4,8.1,10.7,12.2,16.1C291.6,115.1,291.9,115.5,292.2,116z"/>
		<path id="XMLID_53_" class="st2" d="M254,115.9c-2.5-0.1-4.9-0.2-7.3,0c-0.7,0-0.6-0.5-0.8-0.9c-0.9-3.1-1.9-6.1-3-9.1
			c-0.2-0.7-0.6-1-1.4-1c-3.9-0.2-7.7-0.2-11.6,0c-0.9,0-1.2,0.4-1.5,1.2c-0.9,3-1.8,6-2.7,9c-0.2,0.7-0.4,0.9-1.2,0.9
			c-1.8-0.1-3.7-0.1-5.7,0.1c0.9-2.2,1.7-4.3,2.6-6.4c3.9-10.2,7.8-20.4,10.9-30.8c0.5-1.8,0.5-1.7,2.4-1.7c1.4,0,2.8,0,4.1-0.1
			c0.5,0,0.7,0.1,0.9,0.6c4,12.6,8.9,24.9,13.7,37.2C253.8,115.2,253.9,115.5,254,115.9z"/>
		<path id="XMLID_52_" class="st2" d="M163.5,98.3c0.1,5.7,0.2,11.4,0.6,17.1c0,0.6-0.2,0.6-0.6,0.5c-2.1-0.4-4.2-0.4-6.3,0
			c-0.7,0.1-0.7-0.1-0.7-0.7c0.5-8.1,0.6-16.2,0.6-24.3c0-4.5,0-9-0.6-13.4c-0.1-0.4-0.1-0.8,0.5-0.8c4.3,0.4,8.6-0.2,12.8,0.1
			c3.1,0.2,6.1,0.9,8.6,2.8c5,3.8,5.4,11.6,0.9,16.4c-3.4,3.5-7.7,4.9-12.4,5.1c-0.5,0-0.7-0.1-0.7-0.7c0-0.9,0-1.8,0-2.7
			c0-0.6,0.1-0.8,0.8-0.9c1.2-0.1,2.4-0.4,3.5-0.8c3.7-1.4,5.7-4.5,5.2-8.4c-0.3-3.3-3.1-5.9-6.9-6.3c-1.6-0.2-3.3-0.1-5-0.1
			c-0.5,0-0.6,0.2-0.6,0.6c0,4.5,0.1,9,0.1,13.6C163.5,96.3,163.5,97.3,163.5,98.3z"/>
		<path id="XMLID_51_" class="st2" d="M201.3,77.1c3.1,0,6.2,0,9.3-0.3c0.8-0.1,0.9,0.2,0.9,0.9c-0.1,1.2-0.1,2.4,0,3.6
			c0,0.8-0.2,1-1,0.9c-3.7-0.3-7.4-0.5-11.2-0.6c-0.2,0-0.4,0-0.6,0c-0.5,0-0.6,0.2-0.6,0.6c0,3.3,0,6.6-0.1,9.9
			c0,0.8,0.4,0.9,1,0.9c3.6,0.2,7.2,0,10.7-0.4c0.8-0.1,1.1,0.1,1,0.9c-0.1,1.3,0,2.6,0,3.8c0,0.6-0.1,0.7-0.8,0.7
			c-3.6-0.3-7.2-0.4-10.8-0.3c-0.8,0-1.2,0.2-1.2,1.1c-0.1,3.8-0.1,7.7-0.1,11.5c0,0.7,0.4,0.6,0.9,0.6c3.8,0,7.6-0.2,11.4-0.4
			c1.7-0.1,1.7-0.1,1.7,1.5c0,1-0.1,2.1-0.1,3.1c0,0.7-0.3,0.8-0.9,0.7c-4.2-0.4-8.4-0.4-12.6-0.4c-2.1,0-4.3,0.2-6.4,0.4
			c-0.7,0-0.9-0.1-0.8-0.8c0.6-8.4,0.6-16.8,0.4-25.1c-0.1-4.2-0.2-8.5-0.4-12.7c0-0.7,0.4-0.6,0.8-0.5
			C195,77,198.1,77.1,201.3,77.1z"/>
		<path id="XMLID_50_" class="st2" d="M318.4,85.8c-0.8-0.9-1.6-1.9-2.6-2.6c-2-1.4-4.1-2-6.5-1.3c-2.6,0.7-4.2,4.3-1.9,6.6
			c1.6,1.6,3.4,2.9,5.3,4.1c2.1,1.4,4.3,2.6,6.1,4.3c3.4,3.3,3.9,7.3,2.7,11.7c-1.1,4.2-4.2,6.4-8.2,7.3c-5.5,1.2-10.3-0.5-14.8-3.4
			c-0.4-0.2-0.6-0.5-0.3-0.9c0.9-1.6,1.6-3.4,2.1-5.2c0.4,0.1,0.6,0.5,0.9,0.7c2.2,2,4.7,3.6,7.7,3.9c2.5,0.3,4.7-0.8,5.6-2.6
			c1-2.1,0.6-4.5-1.1-6.4c-0.5-0.6-1.1-1.1-1.7-1.6c-1.8-1.5-3.7-2.7-5.6-4.1c-1.2-0.8-2.4-1.8-3.4-2.8c-5.3-5.3-3.5-13.4,3.6-15.9
			c4.5-1.6,8.8-0.9,12.9,1.4c0.7,0.4,1.7,0.7,1.9,1.3c0.3,0.6-0.6,1.3-1,2C319.5,83.3,318.9,84.5,318.4,85.8z"/>
		<path id="XMLID_49_" class="st2" d="M284.8,174.8c8.7,0,14.9,2.9,19.1,9.3c6.6,10.2,3.1,26.5-12.8,30.2
			c-6.2,1.4-12.3,0.8-17.7-2.9c-6.4-4.4-9-10.7-8.4-18.4C265.8,182.7,274.5,174.6,284.8,174.8z"/>
		<path id="XMLID_48_" class="st2" d="M354.2,195.9c0.2,10-8.2,17.3-16.9,18.7c-5.3,0.8-10.4,0.5-15.1-2.3c-7-4.1-10.2-10.3-10-18.4
			c0.3-10.5,9.1-19,20.4-19c4.7,0,9.1,0.9,13,3.6C351.2,182.4,354.2,187.9,354.2,195.9z"/>
		<path id="XMLID_47_" class="st2" d="M258.1,195c0,6.1,0,12.2,0,18.3c0,1-0.3,1.2-1.2,1.2c-1.1-0.1-2.3-0.1-3.4,0
			c-0.8,0-1.1-0.2-1-1c0-5,0-9.9,0-14.9c0-0.8-0.2-1.1-1.1-1.1c-6.6,0-13.2,0-19.8,0c-0.8,0-1.1,0.2-1.1,1.1c0,5,0,9.9,0,14.9
			c0,0.8-0.1,1.1-1,1.1c-1.3-0.1-2.6,0-3.8,0c-0.6,0-0.8-0.1-0.8-0.8c0-12.5,0-25,0-37.5c0-0.6,0.2-0.9,0.8-0.8c1.3,0,2.6,0.1,3.8,0
			c0.8,0,1.1,0.2,1,1c0,4.9,0,9.9,0,14.8c0,0.9,0.3,1.1,1.1,1.1c6.6,0,13.2,0,19.8,0c0.9,0,1.1-0.3,1.1-1.1c0-4.9,0-9.9,0-14.8
			c0-0.8,0.2-1,1-1c1.2,0.1,2.5,0.1,3.7,0c0.8,0,1,0.2,1,1C258.1,182.6,258.1,188.8,258.1,195z"/>
		<path id="XMLID_46_" class="st2" d="M217.7,184.1c-2.4-1.3-4.8-2.4-7.4-3.1c-4.7-1.2-9.4-1.3-13.8,1c-5.8,3-8.9,9.5-7.6,16
			c1.3,6.3,6.5,11,12.9,11.6c5.6,0.6,10.7-0.9,15.4-3.7c0.2-0.1,0.5-0.3,0.9-0.5c0,2,0,4,0,5.9c0,0.5-0.4,0.5-0.7,0.7
			c-2.9,1.5-6,2.4-9.3,2.8c-4.3,0.5-8.6,0.4-12.8-1.1c-8.1-3-13.3-11.8-12.5-20.5c0.9-9.6,9.4-18,20.4-18.1c4.8,0,9.3,1.2,13.8,2.9
			c0.5,0.2,0.6,0.4,0.6,0.9C217.7,180.5,217.7,182.2,217.7,184.1z"/>
		<path id="XMLID_45_" class="st2" d="M156.4,204.5c0.8,0.7,1.4,1.4,2.1,2c2.8,2.6,6.1,4,10,3.3c4.3-0.8,5.8-4.9,3.2-8.4
			c-1.1-1.4-2.5-2.4-3.9-3.3c-2.6-1.6-5.3-3.1-7.7-5c-5.1-4.1-4.6-10.5-1.9-14c1.9-2.5,4.6-3.7,7.6-4.1c3.6-0.4,6.9,0.2,10.1,2.1
			c0.6,0.3,0.8,0.7,0.8,1.4c-0.1,1.8,0,3.5,0,5.5c-0.5-0.4-0.9-0.8-1.4-1.1c-2.8-2.2-6-3.4-9.7-2.7c-0.7,0.1-1.4,0.4-2,0.8
			c-2.4,1.4-3,4-1.3,6.3c1,1.4,2.4,2.4,3.9,3.3c2.1,1.3,4.2,2.4,6.2,3.8c3.1,2.1,5.3,4.8,5.8,8.7c0.8,5.8-3.1,11-8.9,11.8
			c-4.4,0.6-8.5-0.4-12.2-2.8c-0.5-0.4-0.8-0.7-0.8-1.4C156.4,208.5,156.4,206.5,156.4,204.5z"/>
		<path id="XMLID_44_" class="st2" d="M407.7,184c-2-1.8-4-3.2-6.5-3.7c-2.1-0.5-4.3-0.5-6.3,0.5c-2.8,1.4-3.4,4.2-1.5,6.7
			c1,1.3,2.2,2.2,3.5,3c1.9,1.2,3.9,2.3,5.8,3.5c2.9,1.8,5.3,4.2,6.2,7.6c1.9,7-2.9,13.2-10.3,13.5c-3.8,0.1-7.2-0.8-10.4-2.9
			c-0.6-0.4-0.9-0.8-0.9-1.7c0.1-2,0-3.9,0-6.1c1,1.1,1.8,2,2.7,2.8c2.7,2.2,5.8,3.4,9.3,2.8c4.4-0.8,5.9-5.1,3.1-8.6
			c-1.1-1.3-2.4-2.3-3.9-3.2c-2.4-1.5-5-2.9-7.2-4.7c-3.8-3-5.1-6.9-3.8-11.2c1.2-3.9,4-6.1,7.9-6.9c4-0.8,7.8-0.2,11.4,1.9
			c0.6,0.3,0.8,0.7,0.8,1.4C407.6,180.2,407.7,182,407.7,184z"/>
		<path id="XMLID_43_" class="st2" d="M361,195c0-6.2,0-12.3,0-18.5c0-0.9,0.3-1.2,1.2-1.1c1.1,0.1,2.3,0.1,3.4,0
			c0.8,0,1.1,0.2,1.1,1c-0.1,3.1,0,6.3,0,9.4c0,7.5,0,15,0,22.5c0,0.8,0.2,1,1,1c5.2,0,10.4,0,15.7,0c0.8,0,1,0.2,1,1
			c-0.1,1.2,0,2.3,0,3.5c0,0.6-0.2,0.7-0.7,0.7c-7.3,0-14.5,0-21.8,0c-0.9,0-0.7-0.5-0.7-1C361,207.3,361,201.1,361,195z"/>
		<path id="XMLID_42_" class="st3" d="M350.3,81.6c3.4,0.1,6.6,2.4,8.7,6.2c3.4,6,2.6,14.7-1.7,19.9c-4.1,4.9-11.4,5.2-15.8,0.5
			c-5.5-5.9-6.1-17.5,0.3-23.7C343.8,82.5,346.2,81.6,350.3,81.6z"/>
		<path id="XMLID_41_" class="st3" d="M235.5,84.9c0.9,2.5,1.8,5,2.6,7.4c0.8,2.1,1.5,4.3,2.3,6.4c0.3,0.7,0.1,0.9-0.6,0.9
			c-2.8,0.2-5.6,0.3-8.5,0c-0.5-0.1-0.8-0.1-0.6-0.8c1.6-4.5,3.1-9.1,4.6-13.6C235.3,85.2,235.4,85.1,235.5,84.9z"/>
		<path id="XMLID_40_" class="st4" d="M285.7,180.2c7.8,0,14,4.9,15.3,12c1.8,9.7-6.1,18.3-16,17.6c-6.2-0.5-10.9-3.3-13.2-9.1
			c-3.7-9.5,2.2-19.7,12.9-20.4C285.2,180.2,285.6,180.2,285.7,180.2z"/>
		<path id="XMLID_39_" class="st4" d="M348.4,194.8c0,8.5-6.5,14.9-15.3,14.9c-8.6,0-15.1-6.3-15.1-14.7c0-8.6,6.5-14.9,15.3-14.9
			C341.8,180.2,348.4,186.5,348.4,194.8z"/>
	</g>
</g>
</svg>
