<?xml version="1.0" encoding="utf-8"?>
<!-- Generator: Adobe Illustrator 19.0.0, SVG Export Plug-In . SVG Version: 6.00 Build 0)  -->
<svg version="1.1" id="Layer_1" xmlns="http://www.w3.org/2000/svg" xmlns:xlink="http://www.w3.org/1999/xlink" x="0px" y="0px"
	 viewBox="0 0 579 291" style="enable-background:new 0 0 579 291;" xml:space="preserve">
<style type="text/css">
	.st0{fill:#FFFFFF;}
	.st1{fill:#939597;}
	.st2{fill:#0F0E0F;}
	.st3{fill:#0C0C0C;}
	.st4{fill:#0D0D0D;}
	.st5{fill:#151516;}
	.st6{fill:#1C1C1C;}
	.st7{fill:#BCBEC0;}
	.st8{fill:#7C7D80;}
	.st9{fill:#DBDCDE;}
	.st10{fill:#FEFEFE;}
</style>
<g id="XMLID_8_">
	<g id="XMLID_33_">
		<path id="XMLID_48_" class="st0" d="M291,204.4c-55.2,0-110.3,0-165.5,0.1c-3.5,0-4.2-0.7-4.1-4.1c0.1-63.8,0.1-127.6,0-191.3
			c0-3.5,0.7-4.2,4.1-4.1c110.3,0.1,220.7,0.1,331,0c3.5,0,4.2,0.7,4.1,4.1c-0.1,63.8-0.1,127.6,0,191.3c0,3.5-0.7,4.2-4.1,4.1
			C401.4,204.4,346.2,204.4,291,204.4z"/>
		<path id="XMLID_47_" class="st1" d="M268.5,86.5c2.4-1.2,4.1,0.2,5.9,0.9c12.9,5.4,25.8,10.7,38.6,16.3c2.8,1.2,4.7,1,7.2-0.8
			c38.8-28.6,77.7-57.1,116.5-85.6c1.5-1.1,3-2.1,4.5-3.1c1.5,2-0.4,2.6-1.1,3.4c-19.4,20-38.8,39.9-58.2,59.9
			c-19.5,20.1-39,40.1-58.4,60.3c-2.6,2.8-4.1,3.2-6.9,0.1C300.7,120.6,284.6,103.6,268.5,86.5z"/>
		<path id="XMLID_46_" class="st2" d="M236.3,151.7c0-7.9,0-15.7,0-23.6c0-7.1,0-14.2,0-21.2c0-2.7-0.5-5.1,3.9-5.1
			c4.5,0,4.3,2.1,4.3,5.2c-0.1,30.4-0.1,60.7,0,91.1c0,3,0.1,5-4,5c-4,0-4.5-1.7-4.2-4.9c0.1-1.5,0-3,0-4.5c-0.6,0-1.1-0.1-1.2,0
			c-7.1,14.4-33.9,13.2-41.9-3.5c-5.4-11.3-5.5-22.8-0.1-34.1C201.3,139,225.6,137.4,236.3,151.7z"/>
		<path id="XMLID_45_" class="st3" d="M161.1,173.1c-6.6,0-13.2,0-19.7,0c-1.2,0-2.9-0.6-2.7,1.8c0.6,7.1,2.5,13.7,8.5,18.1
			c5.8,4.2,12.2,4.5,18.7,1.6c4.2-1.9,7.3-5.1,9.2-9.1c2.2-4.6,4.2-1,6.3-0.3c2.5,0.8,2.6,2.1,1.3,4.4c-6.4,11-17.8,16.1-31.2,13.5
			c-11-2.1-19.2-11.3-21.1-23.1c-1-6.5-0.7-12.8,1.2-19c4.5-14,16.6-21,31.7-18.5c12,2,20.8,13.9,20.5,27.6
			c-0.1,2.8-1.4,2.9-3.4,2.8C173.9,173,167.5,173.1,161.1,173.1z"/>
		<path id="XMLID_44_" class="st3" d="M424.2,173.1c-6.4,0-12.8,0.1-19.2-0.1c-2.7-0.1-3.4,0.7-3.2,3.4c0.7,9.6,6.2,17.2,14.3,19.4
			c8.6,2.3,16.7-1,21.6-9.8c2.4-4.3,4.2-1.7,6.6-0.7c3.8,1.5,1.8,3.6,0.6,5.5c-7.8,12.3-18.2,14.7-31.5,12.1
			c-11.9-2.3-19.4-12.5-20.5-25.7c-0.4-5.4,0-10.8,1.7-16c4.6-14,16.6-21,31.7-18.5c12,2,20.7,13.9,20.4,27.6
			c-0.1,2.7-1.1,2.9-3.3,2.9C437,173,430.6,173.1,424.2,173.1z"/>
		<path id="XMLID_43_" class="st4" d="M300.8,166.4c-0.5,6.3,1,14-1.1,21.4c-2.8,9.9-10.1,15.5-20.3,15.6
			c-18.5,0.2-26.5-7.7-26.5-26.2c0-9.8,0.2-19.6-0.1-29.3c-0.1-3.4,1.3-3.8,4.1-3.8c2.8,0,4.3,0.4,4.1,3.8
			c-0.3,8.8-0.1,17.5-0.1,26.3c0,3.2,0.1,6.4,0.8,9.5c2.1,8.7,6.2,12.2,14.6,12.4c8.5,0.2,13.2-3.6,15.4-12.2
			c1.1-4.3,1.1-8.7,1.2-13c0.1-7.4,0.1-14.8,0-22.2c0-2.8,0-4.7,3.8-4.7c3.6,0,4.1,1.4,4,4.4C300.7,154,300.8,159.6,300.8,166.4z"/>
		<path id="XMLID_42_" class="st5" d="M373,176.6c0-6.6-0.4-13.2,0.1-19.7c0.4-5-1-7.2-6.2-6.2c-3.4,0.7-4.7-0.5-4.5-4.3
			c0.2-3.9,2.9-2.8,4.7-2.6c4.9,0.7,6.6-1.1,6-6c-0.4-3.1,0.3-6.4-0.2-9.6c-0.6-4.5,1.4-5.4,5.4-5c2.1,0.2,3,0.7,2.9,2.9
			c-0.1,4,0.2,8.1-0.1,12.1c-0.4,4.2,0.6,6.5,5.3,5.5c1-0.2,2,0.1,3,0c2.9-0.4,3.2,1.2,3.3,3.6c0.1,2.6-0.6,3.4-3.3,3.5
			c-8.2,0.1-8.2,0.3-8.2,8.5c0,13.3-0.1,26.6,0.1,39.9c0,3.1-0.6,4.4-4.1,4.3c-3.2-0.1-4.3-0.8-4.2-4.2
			C373.2,191.8,373,184.2,373,176.6z"/>
		<path id="XMLID_41_" class="st5" d="M317.4,156.6c2.6-2.9,4.2-5,6-6.9c3.4-3.7,7.7-5.2,12.7-5c6.3,0.2,7,1.4,4.4,7
			c-0.6,1.3-1,1.6-2.5,1.5c-11.5-0.5-18.6,5.4-20,17c-1.2,9.7-0.4,19.5-0.4,29.3c0,3.4-1.1,4.1-4.3,4.2c-3.6,0.1-4.1-1.3-4-4.3
			c0.1-17,0.1-34,0-51c0-2.9,0.2-4.5,4-4.5c3.9,0,4.5,1.5,4.2,4.8C317.2,150.8,317.4,153.1,317.4,156.6z"/>
		<path id="XMLID_40_" class="st6" d="M355.8,173.8c0,8.6-0.2,17.2,0.1,25.8c0.2,3.9-1.7,3.9-4.5,3.9c-2.7,0-4.2-0.1-4.2-3.6
			c0.2-17.5,0.2-35.1,0-52.6c0-3.6,1.5-3.6,4.2-3.6c2.8,0,4.6,0,4.5,3.9C355.6,156.3,355.8,165.1,355.8,173.8z"/>
		<path id="XMLID_39_" class="st7" d="M453.9,149.8c-1.6,2.6-3.4,3-5.5,0.6c-2.5-2.9-1.8-5.4,0.8-7.8c2.1,1,1.5,3.9,3.4,4.9
			C453.4,148.1,453.6,149,453.9,149.8z"/>
		<path id="XMLID_38_" class="st8" d="M452.5,147.8c-1.2,0.8-3.2,1.9-2.5-0.7c0.6-2-1-2.9-0.8-4.4c2-1.6,3.3-0.5,4.5,1.1
			C454.4,145.3,454.6,146.9,452.5,147.8z"/>
		<path id="XMLID_37_" class="st9" d="M452.5,147.8c0.6-1.3,1.5-2.5,1.3-4.1c3.2,1.9,1.6,4,0.2,6.1
			C452.9,149.5,452.6,148.7,452.5,147.8z"/>
		<path id="XMLID_36_" class="st0" d="M236.4,171.7c-0.1,4.7-0.5,8.9-2.2,12.9c-3.3,7.8-10.2,12.2-18.3,11.6
			c-8.8-0.7-14.6-5.7-16.6-14.4c-1.2-5.3-1.4-10.6-0.2-16c2.5-11,9.4-16.6,19.8-16c9.6,0.5,15.8,7.1,17,17.9
			C236.2,169.2,236.3,170.7,236.4,171.7z"/>
		<path id="XMLID_35_" class="st10" d="M156.3,166.1c-4.7,0-9.4-0.2-14.1,0.1c-2.9,0.1-3-1.1-2.5-3.3c1.7-7.5,9-13,17.2-12.9
			c8.8,0.1,15,5.1,16.8,13.2c0.6,2.7-0.3,3.1-2.7,3.1C166.1,166,161.2,166.1,156.3,166.1z"/>
		<path id="XMLID_34_" class="st10" d="M402.3,166.1c1.4-9.8,7.2-15.5,16.2-16.2c8.3-0.7,15.5,4,17.7,11.3c0.9,3.1,1.2,5.2-3.5,5
			C422.6,165.9,412.4,166.1,402.3,166.1z"/>
	</g>
</g>
</svg>
