<?xml version="1.0" encoding="utf-8"?>
<!-- Generator: Adobe Illustrator 19.0.0, SVG Export Plug-In . SVG Version: 6.00 Build 0)  -->
<svg version="1.1" id="Layer_1" xmlns="http://www.w3.org/2000/svg" xmlns:xlink="http://www.w3.org/1999/xlink" x="0px" y="0px"
	 viewBox="0 0 579 291" style="enable-background:new 0 0 579 291;" xml:space="preserve">
<style type="text/css">
	.st0{fill:#FFFFFF;}
	.st1{fill:#F47423;}
	.st2{fill:#1D3765;}
	.st3{fill:#1D3664;}
	.st4{fill:#1D3764;}
	.st5{fill:#1F3865;}
	.st6{fill:#213966;}
	.st7{fill:#565D82;}
	.st8{fill:#747696;}
	.st9{fill:#A7A7BC;}
	.st10{fill:#3E4B74;}
	.st11{fill:#ABACBF;}
	.st12{fill:#FEFEFE;}
</style>
<g id="XMLID_8_">
	<g id="XMLID_35_">
		<path id="XMLID_52_" class="st0" d="M291,204.4c-55.2,0-110.3,0-165.5,0.1c-3.5,0-4.2-0.7-4.1-4.1c0.1-63.8,0.1-127.6,0-191.3
			c0-3.5,0.7-4.2,4.1-4.1c110.3,0.1,220.7,0.1,331,0c3.5,0,4.2,0.7,4.1,4.1c-0.1,63.8-0.1,127.6,0,191.3c0,3.5-0.7,4.2-4.1,4.1
			C401.4,204.4,346.2,204.4,291,204.4z"/>
		<path id="XMLID_51_" class="st1" d="M267.8,84.8c6.8,2.8,13.6,5.6,20.3,8.4c8.2,3.4,16.5,6.8,24.6,10.5c3,1.4,5,1.1,7.6-0.9
			c38.8-28.6,77.7-57.1,116.5-85.6c1.4-1,2.6-2.6,4.6-2.7c1,1.6-0.5,2.2-1.2,2.9c-32.2,33.1-64.4,66.2-96.6,99.4
			c-7.1,7.3-14,14.6-21.1,21.8c-1.4,1.4-2.3,3.2-4.7,0.7c-16.8-18-33.7-35.8-50.5-53.7C267.6,85.2,267.7,85,267.8,84.8z"/>
		<path id="XMLID_50_" class="st2" d="M236.2,152.7c0-16.1,0.1-31.1-0.1-46.1c0-3.3,0.5-4.7,4.3-4.8c4,0,4.2,1.8,4.1,4.9
			c-0.1,30.3-0.1,60.7,0,91c0,2.8,0.7,5.5-4.1,5.5c-4.4,0-4.5-2.2-4.3-5.3c0.1-1.3,0-2.7,0-4c-0.6,0-1.1,0-1.2,0.1
			c-7.4,14.3-34,12.8-41.9-3.9c-5.3-11.4-5.3-22.8,0-34.1C200.3,140.8,223.1,135.9,236.2,152.7z"/>
		<path id="XMLID_49_" class="st3" d="M160.4,173.1c-6.2,0-12.5,0-18.7,0c-1.3,0-2.9-0.7-3.1,2c-0.9,14.9,13.6,25.5,27,19.6
			c4.4-1.9,7.5-5.2,9.5-9.4c2.3-4.6,4.3-0.5,6.4,0c3,0.8,2.2,2.5,1,4.5c-6.5,11.1-17.6,16-31.2,13.4c-10.7-2-18.9-11-21-22.6
			c-1.1-6.3-0.9-12.4,0.9-18.5c4.3-14.4,16-21.9,30.9-19.7c12.9,1.9,21.7,13.2,21.7,27.5c0,2.5-0.9,3.1-3.2,3.1
			C173.9,173,167.2,173.1,160.4,173.1z"/>
		<path id="XMLID_48_" class="st3" d="M424.1,173.1c-6.4,0-12.8,0.2-19.2-0.1c-2.9-0.1-3.3,1-3.1,3.5c0.7,9.5,6.2,17.1,14.4,19.2
			c8.6,2.2,16.4-1,21.5-10c2.6-4.5,4.5-1.3,6.7-0.5c3.4,1.3,1.8,3.3,0.6,5.1c-8.5,13.3-18.6,14.6-31.4,12.5
			c-11.8-1.9-19.7-12.5-20.8-25.4c-0.4-4.7-0.2-9.4,0.9-14.1c3.4-14.4,15.8-23,30.5-21c13.6,1.8,22.8,13.3,22.4,27.8
			c-0.1,2.7-1.2,2.9-3.4,2.9C436.9,173,430.5,173.1,424.1,173.1z"/>
		<path id="XMLID_47_" class="st4" d="M300.8,166c-0.5,6.2,0.9,13.6-1,20.9c-2.9,10.9-9.9,16.5-21.1,16.5
			c-17.9,0.1-25.8-7.9-25.9-25.8c0-9.6,0.1-19.2-0.1-28.8c-0.1-3.2,0.4-4.8,4.2-4.8c4.2,0,4.1,2.1,4,5c-0.1,8.6-0.1,17.2,0,25.8
			c0,2.7,0.2,5.4,0.7,8c2.2,11.2,10.5,15.9,21.4,12.3c4.8-1.6,7.3-5.2,8.4-9.9c2-8.1,1.2-16.4,1.4-24.7c0.1-4.2,0.2-8.4,0-12.6
			c-0.2-3.3,1.2-3.8,4.1-3.9c3.2-0.1,4,1.1,3.9,4.1C300.7,153.6,300.8,159.2,300.8,166z"/>
		<path id="XMLID_46_" class="st5" d="M372.9,177.1c0-7.2-0.2-14.5,0.1-21.7c0.2-3.9-1-4.9-4.8-4.7c-1.9,0.1-5,1.9-5.7-1.8
			c-0.6-3.2-0.1-5.9,4.2-5c5.2,1,6.8-1.2,6.2-6.2c-0.4-3,0.2-6.1-0.1-9.1c-0.5-4.3,1.1-5.6,5.3-5.2c2.3,0.2,3.3,0.7,3.2,3.2
			c-0.2,4.5,0.1,9.1-0.1,13.6c-0.1,2.8,0.7,4,3.6,3.7c1.7-0.2,3.4,0.1,5-0.1c2.8-0.2,2.8,1.5,2.8,3.5c0,2,0.1,3.4-2.7,3.5
			c-8.7,0.5-8.7,0.7-8.7,9.5c0,13-0.1,26,0.1,38.9c0.1,3.4-1,4.2-4.3,4.2c-3.3,0-4.4-0.8-4.2-4.2
			C373.1,191.9,372.9,184.5,372.9,177.1z"/>
		<path id="XMLID_45_" class="st5" d="M317.5,155.4c5.5-6.5,11-11.8,19.9-10.6c1.7,0.2,5-0.4,4.3,2.4c-0.5,2.2,0.5,6.7-5.1,5.9
			c-9.6-1.5-17.9,6.4-18.8,18c-0.7,9.4-0.4,18.8-0.3,28.2c0,3.1-0.5,4.6-4.1,4.3c-2.9-0.2-4.5-0.3-4.4-4c0.2-17.2,0.2-34.3,0-51.5
			c0-3.2,0.8-4.4,4.2-4.3c3.3,0,4.6,0.9,4.2,4.3C317.3,150.4,317.5,152.9,317.5,155.4z"/>
		<path id="XMLID_44_" class="st6" d="M355.9,173.4c0,8.8-0.2,17.6,0.1,26.3c0.2,4-1.9,3.8-4.6,3.8c-2.7,0.1-4.3-0.1-4.2-3.6
			c0.2-17.5,0.2-35.1,0-52.6c0-3.7,1.7-3.6,4.3-3.6c2.8,0,4.7,0,4.5,3.9C355.7,156.1,355.9,164.7,355.9,173.4z"/>
		<path id="XMLID_43_" class="st7" d="M453.5,143.7c2.6,1.8-0.5,3.9,0.4,5.7c-0.8,0.1-1.5,0.2-2.3-0.1c-1.5-1-2.1-2.2-1.1-3.9
			C451.3,144.5,451.9,143.3,453.5,143.7z"/>
		<path id="XMLID_42_" class="st8" d="M453.5,143.7c-0.7,0.7-1.5,1.4-2.2,2c-0.7-0.5-1.8-0.3-2.3-1.3c-0.1-0.7,0-1.4,0.2-2
			C451.1,141.2,452.6,141.5,453.5,143.7z"/>
		<path id="XMLID_41_" class="st9" d="M449.2,142.5c0.1,0.8,0.2,1.5,0.3,2.3c0.2,1.7,1.5,3.6-0.6,5.1
			C446,147.3,446.5,144.9,449.2,142.5z"/>
		<path id="XMLID_40_" class="st10" d="M449,149.9c1.1-1.6,0.1-3.4,0.6-5.1c0.8,0,1.5-0.1,1.7,1c-1.5,1.1,0.1,2.1,0.2,3.1
			c0.2,1.6-0.5,2.3-2.1,2.1C449.3,150.6,449.1,150.2,449,149.9z"/>
		<path id="XMLID_39_" class="st11" d="M449.4,150.9c0.7-0.7,1.4-1.4,2.1-2.1c0.8,0.2,1.5,0.4,2.3,0.6
			C452.9,151.6,451.8,153.2,449.4,150.9z"/>
		<path id="XMLID_38_" class="st0" d="M236.2,171.4c0,5.7-0.6,10.1-2.5,14.1c-3.4,7.2-10.3,11.3-18,10.6
			c-8.7-0.8-14.4-5.7-16.4-14.1c-1.3-5.5-1.4-11-0.1-16.5c2.4-10.6,9.4-16.3,19.7-15.7c9.5,0.5,16,7.3,17.1,17.9
			C236.2,169.4,236.2,171.1,236.2,171.4z"/>
		<path id="XMLID_37_" class="st12" d="M156.4,166.1c-4.7,0-9.4-0.1-14.1,0.1c-2.7,0.1-3.1-0.9-2.6-3.2c1.6-7.4,8.9-13,17.1-12.9
			c8.8,0,15,5,16.8,13c0.6,2.6-0.1,3.2-2.6,3.1C166.2,166,161.3,166.1,156.4,166.1z"/>
		<path id="XMLID_36_" class="st12" d="M402.3,166.1c1.4-9.7,6.8-15.1,15.7-16.1c8-0.9,15,3.2,17.7,10.4c2,5.3,1.7,5.7-3.7,5.7
			C422.1,166.1,412.3,166.1,402.3,166.1z"/>
	</g>
</g>
</svg>
