<?xml version="1.0" encoding="utf-8"?>
<!-- Generator: Adobe Illustrator 19.0.0, SVG Export Plug-In . SVG Version: 6.00 Build 0)  -->
<svg version="1.1" id="Layer_1" xmlns="http://www.w3.org/2000/svg" xmlns:xlink="http://www.w3.org/1999/xlink" x="0px" y="0px"
	 viewBox="0 0 579 291" style="enable-background:new 0 0 579 291;" xml:space="preserve">
<style type="text/css">
	.st0{fill:#E4E4E4;}
	.st1{fill:#949494;}
	.st2{fill:#AFAFAF;}
	.st3{fill:#CACACA;}
	.st4{fill:#7A7A7A;}
</style>
<g id="XMLID_8_">
	<path id="XMLID_27_" class="st0" d="M82.1,137.5c0,2.8-2.3,5-5,5c-2.8,0-5-2.3-5-5c0-2.8,2.3-5,5-5
		C79.8,132.5,82.1,134.7,82.1,137.5"/>
	<path id="XMLID_26_" class="st0" d="M81.1,170.7c0,2.2-1.8,4-4,4c-2.2,0-4-1.8-4-4c0-2.2,1.8-4,4-4
		C79.3,166.7,81.1,168.5,81.1,170.7"/>
	<path id="XMLID_25_" class="st0" d="M81.1,104.9c0,2.2-1.8,4-4,4c-2.2,0-4-1.8-4-4c0-2.2,1.8-4,4-4
		C79.3,100.9,81.1,102.7,81.1,104.9"/>
	<path id="XMLID_24_" class="st1" d="M147,87.2c0,4.4-3.5,7.9-7.9,7.9c-4.4,0-7.9-3.5-7.9-7.9c0-4.4,3.5-7.9,7.9-7.9
		C143.5,79.3,147,82.8,147,87.2"/>
	<path id="XMLID_23_" class="st1" d="M148.9,155.6c0,5.4-4.4,9.9-9.8,9.9c-5.4,0-9.8-4.4-9.8-9.9c0-5.4,4.4-9.8,9.8-9.8
		C144.5,145.7,148.9,150.1,148.9,155.6"/>
	<path id="XMLID_22_" class="st1" d="M147,186c0,4.4-3.5,7.9-7.9,7.9c-4.4,0-7.9-3.5-7.9-7.9c0-4.4,3.5-7.9,7.9-7.9
		C143.5,178.1,147,181.6,147,186"/>
	<path id="XMLID_21_" class="st2" d="M123.5,137.5c0,4.3-3.5,7.9-7.9,7.9c-4.4,0-7.9-3.5-7.9-7.9c0-4.4,3.5-7.9,7.9-7.9
		C120,129.7,123.5,133.2,123.5,137.5"/>
	<path id="XMLID_20_" class="st2" d="M122,170.7c0,3.5-2.8,6.3-6.3,6.3c-3.5,0-6.3-2.8-6.3-6.3c0-3.5,2.8-6.3,6.3-6.3
		C119.1,164.4,122,167.2,122,170.7"/>
	<path id="XMLID_19_" class="st2" d="M122,104.9c0,3.5-2.8,6.3-6.3,6.3c-3.5,0-6.3-2.8-6.3-6.3c0-3.5,2.8-6.3,6.3-6.3
		C119.1,98.6,122,101.4,122,104.9"/>
	<path id="XMLID_18_" class="st3" d="M103.1,154.2c0,3.5-2.8,6.3-6.3,6.3c-3.5,0-6.3-2.8-6.3-6.3c0-3.5,2.8-6.3,6.3-6.3
		C100.3,147.9,103.1,150.8,103.1,154.2"/>
	<path id="XMLID_17_" class="st3" d="M101.9,187.9c0,2.8-2.3,5-5,5c-2.8,0-5-2.3-5-5c0-2.8,2.3-5,5-5
		C99.6,182.8,101.9,185.1,101.9,187.9"/>
	<path id="XMLID_16_" class="st3" d="M101.9,121.1c0,2.8-2.3,5-5,5c-2.8,0-5-2.3-5-5c0-2.8,2.3-5,5-5
		C99.6,116.1,101.9,118.3,101.9,121.1"/>
	<polygon id="XMLID_15_" class="st4" points="238.5,107.2 238.5,129.3 266.5,129.3 266.5,209.8 291.1,209.8 291.1,129.3 
		319.2,129.3 319.2,107.2 	"/>
	<polygon id="XMLID_14_" class="st4" points="355.4,187.7 355.4,168 394.8,168 394.8,146.2 355.4,146.2 355.4,129.3 400.2,129.3 
		400.2,107.2 330.7,107.2 330.7,209.8 402.2,209.8 402.2,187.7 	"/>
	<path id="XMLID_13_" class="st4" d="M487.6,173.3l-1.2,1.9c-5.4,8.1-11.5,13.4-23.5,13.5c-16.5-0.1-27.5-12.8-27.6-30.2
		c0-8.7,2.8-16.2,7.6-21.5c4.8-5.3,11.6-8.4,19.9-8.4c10.6,0,17.7,4.9,22,11.8l1.2,2l19.1-13.6l-1.1-1.8
		c-9.1-14.3-22.9-21.2-41.2-21.1c-14.6,0-27.9,5.5-37.4,14.9c-9.5,9.3-15.4,22.5-15.4,37.6c0,15.1,5.8,28.3,15.4,37.7
		c9.5,9.4,22.8,15,37.4,15h0.1c19.5,0,33.9-8.9,42.8-22.7l1.1-1.8L487.6,173.3z"/>
	<path id="XMLID_9_" class="st4" d="M221,152.5c6-4.7,9.8-11.7,9.8-19.3c0-14.3-13.2-25.9-29.4-25.9H171c-3.9,0-7.3,2-9.3,5.1
		c-1.4,2.2-3.9,3.7-6.7,3.7c-2.6,0-4.9-1.2-6.3-3.1l0,0c-2.1-2.7-5.4-4.4-9.1-4.4c-6.4,0-11.6,5.2-11.6,11.6
		c0,6.4,5.2,11.6,11.6,11.6c3.6,0,6.8-1.6,8.9-4.2c1.2-1.5,3-2.4,5-2.4c3.6,0,6.4,2.9,6.4,6.4c0,0.1,0,0.2,0,0.3l0,11.6v66.3h0h41.5
		c19.8,0,35.8-14,35.8-31.2C237.2,167.7,230.7,158.1,221,152.5 M184.5,129.4h14.4c3.9,0,7.1,3.2,7.1,7.1c0,3.9-3.2,7.1-7.1,7.1
		h-14.4V129.4z M201.4,187.7L201.4,187.7h-16.9V165h16.9c6.3,0,11.4,5.1,11.4,11.4C212.8,182.6,207.7,187.7,201.4,187.7"/>
</g>
</svg>
