<?xml version="1.0" encoding="utf-8"?>
<!-- Generator: Adobe Illustrator 19.0.0, SVG Export Plug-In . SVG Version: 6.00 Build 0)  -->
<svg version="1.1" id="Layer_1" xmlns="http://www.w3.org/2000/svg" xmlns:xlink="http://www.w3.org/1999/xlink" x="0px" y="0px"
	 viewBox="0 0 579 291" style="enable-background:new 0 0 579 291;" xml:space="preserve">
<style type="text/css">
	.st0{fill:#002756;}
	.st1{fill:#ADCFEE;}
</style>
<g id="XMLID_33_">
	<g id="XMLID_45_">
		<polyline id="XMLID_27_" class="st0" points="289.6,177.1 267.5,148.7 287.1,123.7 275.9,123.7 261.9,141.5 248,123.7 237,123.7 
			256.4,148.5 233.9,177.1 245.1,177.1 262,155.7 278.7,177.1 289.6,177.1 		"/>
		<path id="XMLID_57_" class="st0" d="M169.7,110.6c0,0,0,10.9,0,13.1c-3.2-0.7-6.3-1-10.2-1c-18.2,0-30.4,12.3-30.4,28.7
			c0,16.4,11,27.1,30.3,27.1c8.1,0,15.3-1.8,19.4-3.9v-63.9H169.7 M169.7,169.6c-2.5,0.8-6,1.3-9.5,1.3c-14.5,0-21.6-7.4-21.6-19.9
			c0-14.5,10.4-21.1,21.5-21.1c4.2,0,6.6,0.4,9.7,1.3C169.7,132.8,169.7,168.1,169.7,169.6z"/>
		<path id="XMLID_54_" class="st0" d="M234.8,173.2l-3.2-6.1c-5,2.4-9.2,3.8-17,3.8c-12,0-21.3-7.3-21.6-18.7c2.2,0,43.1,0,43.1,0
			l0.1-2.6c0.5-16.6-10-26.9-25.1-26.9c-14.9,0-27.3,11.4-27.6,27c-0.3,17.4,12,28.7,29.5,28.7C221.5,178.4,229.4,176.7,234.8,173.2
			 M193.4,145c1-8.9,9-15.1,17.6-15.1c9.8,0,15.1,7.9,15.5,15.1C224.4,145,195.6,145,193.4,145z"/>
		<path id="XMLID_51_" class="st0" d="M383.8,173.2l-3.2-6.1c-5,2.4-9.2,3.8-17,3.8c-12,0-21.3-7.3-21.6-18.7c2.2,0,43.1,0,43.1,0
			l0.1-2.6c0.5-16.6-10-26.9-25.1-26.9c-14.9,0-27.3,11.4-27.6,27c-0.3,17.4,12,28.7,29.5,28.7C370.6,178.4,378.4,176.7,383.8,173.2
			 M342.5,145c1-8.9,9-15.1,17.6-15.1c9.8,0,15.1,7.9,15.5,15.1C373.4,145,344.7,145,342.5,145z"/>
		<path id="XMLID_48_" class="st0" d="M124.2,173.2l-3.2-6.1c-5,2.4-9.2,3.8-17,3.8c-12,0-21.3-7.3-21.6-18.7c2.2,0,43.1,0,43.1,0
			l0.1-2.6c0.5-16.6-10-26.9-25.1-26.9c-14.9,0-27.3,11.4-27.6,27c-0.3,17.4,12,28.7,29.5,28.7C111,178.4,118.8,176.7,124.2,173.2
			 M82.8,145c1-8.9,9-15.1,17.6-15.1c9.8,0,15.1,7.9,15.5,15.1C113.8,145,85,145,82.8,145z"/>
		<path id="XMLID_18_" class="st0" d="M334.5,173.2L331,167c-3.9,2.2-10.6,3.9-15.5,3.9c-12.9,0-19.8-7.6-19.9-20.5
			c-0.1-12.3,7.4-20.2,20.2-20.2c4.6,0,9.7,1.1,14.7,3.7l3.3-6.5c-3.5-2.4-10.4-4.8-18.1-4.8c-21.2,0-29.8,14.7-29.6,28.5
			c0.2,13.5,8.5,27.2,28.8,27.2C319,178.4,326.6,177.7,334.5,173.2"/>
		<path id="XMLID_17_" class="st0" d="M404.4,170.8l3.1,5.8c-0.8,0.5-5,1.7-8,1.7c-6.9,0-9.7-3.6-9.7-10v-57.8h9.1v55.5
			C398.9,171.5,400.9,171.6,404.4,170.8"/>
	</g>
	<g id="XMLID_34_">
		<path id="XMLID_16_" class="st1" d="M447.7,106.1c1.1,1.1,1.8,8,1.8,9.7c0,1.7-0.7,8.6-1.8,9.7c-1.1,1.1-8,1.7-9.7,1.8
			c-1.7,0-8.6-0.7-9.7-1.8c-1.1-1.1-1.8-8-1.8-9.7c0-1.7,0.7-8.6,1.8-9.7c1.1-1.1,8-1.8,9.7-1.8C439.6,104.4,446.6,105,447.7,106.1"
			/>
		<path id="XMLID_15_" class="st1" d="M503.9,162.2c1.1,1.1,1.8,8,1.8,9.7c0,1.7-0.7,8.6-1.8,9.7c-1.1,1.1-8,1.7-9.7,1.8
			c-1.7,0-8.6-0.7-9.7-1.8c-1.1-1.1-1.8-8-1.8-9.7c0-1.7,0.7-8.6,1.8-9.7c1.1-1.1,8-1.8,9.7-1.8
			C495.8,160.5,502.8,161.2,503.9,162.2"/>
		<path id="XMLID_14_" class="st1" d="M447.1,134.8c1.6,1.6,2.6,6.6,2.6,9.1c0,2.5-1,7.5-2.6,9.1c-1.6,1.6-6.6,2.6-9.1,2.6
			c-2.5,0-7.5-1-9.1-2.6c-1.6-1.6-2.6-6.6-2.6-9.1c0-2.5,1-7.5,2.6-9.1c1.6-1.6,6.6-2.6,9.1-2.6
			C440.5,132.1,445.4,133.1,447.1,134.8"/>
		<path id="XMLID_13_" class="st1" d="M475.3,162.9c1.6,1.6,2.6,6.6,2.6,9.1c0,2.5-1,7.5-2.6,9.1c-1.6,1.6-6.6,2.6-9.1,2.6
			c-2.5,0-7.5-1-9.1-2.6c-1.6-1.6-2.6-6.6-2.6-9.1c0-2.5,1-7.5,2.6-9.1c1.6-1.6,6.6-2.6,9.1-2.6
			C468.7,160.2,473.6,161.2,475.3,162.9"/>
		<g id="XMLID_36_">
			<path id="XMLID_12_" class="st1" d="M476.4,105.6c0.5,0.5,0.9,9.5,0.9,10.3c0,0.8-0.3,9.7-0.9,10.3c-0.5,0.5-9.5,0.9-10.3,0.9
				c-0.8,0-9.7-0.3-10.3-0.9c-0.5-0.5-0.9-9.5-0.9-10.3c0-0.8,0.3-9.7,0.9-10.3c0.5-0.5,9.5-0.9,10.3-0.9
				C466.9,104.7,475.9,105,476.4,105.6"/>
			<path id="XMLID_11_" class="st1" d="M504.6,133.6c0.5,0.5,0.9,9.5,0.9,10.3c0,0.8-0.3,9.7-0.9,10.3c-0.5,0.5-9.5,0.9-10.3,0.9
				c-0.8,0-9.7-0.3-10.3-0.9c-0.5-0.5-0.9-9.5-0.9-10.3c0-0.8,0.3-9.7,0.9-10.3c0.5-0.5,9.5-0.9,10.3-0.9
				C495.1,132.7,504,133,504.6,133.6"/>
			<path id="XMLID_10_" class="st1" d="M475.8,134.2c1.1,1.1,1.8,8,1.8,9.7c0,1.7-0.7,8.6-1.8,9.7c-1.1,1.1-8,1.8-9.7,1.8
				c-1.7,0-8.6-0.7-9.7-1.8c-1.1-1.1-1.8-8-1.8-9.7c0-1.7,0.7-8.6,1.8-9.7c1.1-1.1,8-1.8,9.7-1.8
				C467.7,132.4,474.7,133.1,475.8,134.2"/>
			<rect id="XMLID_9_" x="483.2" y="105" class="st1" width="21.8" height="21.8"/>
		</g>
		<path id="XMLID_8_" class="st1" d="M438,183.9c-6.6,0-12-5.4-12-12c0-6.6,5.4-12,12-12s12,5.4,12,12
			C450,178.5,444.7,183.9,438,183.9"/>
	</g>
</g>
</svg>
